SplineFontDB: 3.0
FontName: FiraMath-Ultra
FullName: Fira Math Ultra
FamilyName: Fira Math
Weight: Ultra
Copyright: 
Version: 
ItalicAngle: 0
UnderlinePosition: -100
UnderlineWidth: 50
Ascent: 800
Descent: 200
InvalidEm: 0
LayerCount: 2
Layer: 0 0 "Back" 1
Layer: 1 0 "Fore" 0
XUID: [1021 728 -285233693 7138]
OS2Version: 0
OS2_WeightWidthSlopeOnly: 0
OS2_UseTypoMetrics: 1
CreationTime: 1541747925
OS2TypoAscent: 0
OS2TypoAOffset: 1
OS2TypoDescent: 0
OS2TypoDOffset: 1
OS2TypoLinegap: 0
OS2WinAscent: 0
OS2WinAOffset: 1
OS2WinDescent: 0
OS2WinDOffset: 1
HheadAscent: 0
HheadAOffset: 1
HheadDescent: 0
HheadDOffset: 1
OS2Vendor: 'PfEd'
DEI: 91125
MATH:ScriptPercentScaleDown: 80
MATH:ScriptScriptPercentScaleDown: 60
MATH:DelimitedSubFormulaMinHeight: 1500
MATH:DisplayOperatorMinHeight: 1500
MATH:MathLeading: 150 
MATH:AxisHeight: 280 
MATH:AccentBaseHeight: 527 
MATH:FlattenedAccentBaseHeight: 689 
MATH:SubscriptShiftDown: 350 
MATH:SubscriptTopMax: 527 
MATH:SubscriptBaselineDropMin: 250 
MATH:SuperscriptShiftUp: 400 
MATH:SuperscriptShiftUpCramped: 270 
MATH:SuperscriptBottomMin: 130 
MATH:SuperscriptBaselineDropMax: 360 
MATH:SubSuperscriptGapMin: 200 
MATH:SuperscriptBottomMaxWithSubscript: 527 
MATH:SpaceAfterScript: 41 
MATH:UpperLimitGapMin: 150 
MATH:UpperLimitBaselineRiseMin: 150 
MATH:LowerLimitGapMin: 150 
MATH:LowerLimitBaselineDropMin: 600 
MATH:StackTopShiftUp: 450 
MATH:StackTopDisplayStyleShiftUp: 580 
MATH:StackBottomShiftDown: 480 
MATH:StackBottomDisplayStyleShiftDown: 700 
MATH:StackGapMin: 200 
MATH:StackDisplayStyleGapMin: 500 
MATH:StretchStackTopShiftUp: 300 
MATH:StretchStackBottomShiftDown: 600 
MATH:StretchStackGapAboveMin: 150 
MATH:StretchStackGapBelowMin: 150 
MATH:FractionNumeratorShiftUp: 450 
MATH:FractionNumeratorDisplayStyleShiftUp: 580 
MATH:FractionDenominatorShiftDown: 480 
MATH:FractionDenominatorDisplayStyleShiftDown: 700 
MATH:FractionNumeratorGapMin: 80 
MATH:FractionNumeratorDisplayStyleGapMin: 200 
MATH:FractionRuleThickness: 166 

StartChar: uni0021
Encoding: 33 33 1
Width: 240
Flags: W
LayerCount: 2
Fore
SplineSet
237 698 m 1
 207 279 l 1
 33 279 l 1
 4 698 l 1
 237 698 l 1
120 203 m 0
 182 203 232 151 232 91 c 0
 232 30 182 -22 120 -22 c 0
 58 -22 8 30 8 91 c 0
 8 151 58 203 120 203 c 0
EndSplineSet
EndChar

StartChar: uni0022
Encoding: 34 34 2
Width: 481
Flags: W
LayerCount: 2
Fore
SplineSet
59 401 m 1
 35 698 l 1
 223 698 l 1
 199 401 l 1
 59 401 l 1
282 401 m 1
 258 698 l 1
 446 698 l 1
 422 401 l 1
 282 401 l 1
EndSplineSet
EndChar

StartChar: uni0023
Encoding: 35 35 3
Width: 593
Flags: W
LayerCount: 2
Fore
SplineSet
578 433 m 1
 515 433 l 1
 493 262 l 1
 541 262 l 1
 541 123 l 1
 474 123 l 1
 458 0 l 1
 276 0 l 1
 292 123 l 1
 244 123 l 1
 228 0 l 1
 45 0 l 1
 61 123 l 1
 15 123 l 1
 15 262 l 1
 80 262 l 1
 103 433 l 1
 52 433 l 1
 52 573 l 1
 121 573 l 1
 136 683 l 1
 318 683 l 1
 304 573 l 1
 352 573 l 1
 366 683 l 1
 548 683 l 1
 534 573 l 1
 578 573 l 1
 578 433 l 1
311 262 m 1
 333 433 l 1
 285 433 l 1
 263 262 l 1
 311 262 l 1
EndSplineSet
EndChar

StartChar: uni0024
Encoding: 36 36 4
Width: 566
Flags: W
LayerCount: 2
Fore
SplineSet
557 213 m 0
 557 109 489 30 370 2 c 1
 370 -167 l 1
 221 -167 l 1
 221 -7 l 1
 114 4 40 48 -6 94 c 1
 100 211 l 1
 148 170 201 148 261 148 c 0
 312 148 329 169 329 193 c 0
 329 225 311 239 230 265 c 0
 65 316 22 388 22 484 c 0
 22 594 104 667 221 687 c 1
 221 837 l 1
 370 837 l 1
 370 686 l 1
 441 674 497 644 541 600 c 1
 447 487 l 1
 403 520 358 538 307 538 c 0
 265 538 247 524 247 503 c 0
 247 474 270 467 360 438 c 0
 499 392 557 330 557 213 c 0
EndSplineSet
EndChar

StartChar: uni0025
Encoding: 37 37 5
Width: 893
Flags: W
LayerCount: 2
Fore
SplineSet
615 729 m 1
 745 648 l 1
 281 -49 l 1
 152 32 l 1
 615 729 l 1
208 699 m 0
 314 699 401 626 401 509 c 0
 401 393 314 320 208 320 c 0
 102 320 14 393 14 510 c 0
 14 626 102 699 208 699 c 0
208 573 m 0
 168 573 159 541 159 510 c 0
 159 478 168 446 208 446 c 0
 247 446 255 478 255 509 c 0
 255 541 247 573 208 573 c 0
686 358 m 0
 792 358 879 285 879 168 c 0
 879 52 792 -22 686 -22 c 0
 580 -22 491 52 491 168 c 0
 491 285 580 358 686 358 c 0
686 232 m 0
 646 232 637 200 637 168 c 0
 637 137 646 105 686 105 c 0
 725 105 733 137 733 168 c 0
 733 200 725 232 686 232 c 0
EndSplineSet
EndChar

StartChar: uni0026
Encoding: 38 38 6
Width: 789
Flags: W
LayerCount: 2
Fore
SplineSet
322 719 m 0
 482 719 568 646 568 552 c 0
 568 469 520 413 444 357 c 1
 539 269 l 1
 553 300 565 340 575 386 c 1
 752 334 l 1
 726 265 694 207 658 160 c 1
 785 53 l 1
 586 -22 l 1
 526 35 l 1
 457 -7 382 -22 310 -22 c 0
 146 -22 40 59 40 180 c 0
 40 259 77 310 171 372 c 1
 93 448 77 484 77 542 c 0
 77 628 150 719 322 719 c 0
326 583 m 0
 303 583 288 569 288 541 c 0
 288 521 290 508 325 472 c 1
 351 495 357 516 357 547 c 0
 357 567 348 583 326 583 c 0
296 253 m 1
 279 236 274 216 274 194 c 0
 274 157 302 129 353 129 c 0
 377 129 400 130 421 135 c 1
 296 253 l 1
EndSplineSet
EndChar

StartChar: uni0027
Encoding: 39 39 7
Width: 258
Flags: W
LayerCount: 2
Fore
SplineSet
59 401 m 1
 35 698 l 1
 223 698 l 1
 199 401 l 1
 59 401 l 1
EndSplineSet
EndChar

StartChar: uni0028
Encoding: 40 40 8
Width: 325
Flags: W
LayerCount: 2
Fore
SplineSet
198 872 m 1
 340 777 l 1
 245 645 218 508 218 350 c 0
 218 192 245 55 340 -77 c 1
 198 -172 l 1
 95 -34 -3 109 -3 350 c 0
 -3 591 95 734 198 872 c 1
EndSplineSet
EndChar

StartChar: uni0029
Encoding: 41 41 9
Width: 325
Flags: W
LayerCount: 2
Fore
SplineSet
127 872 m 1
 230 734 328 591 328 350 c 0
 328 109 230 -34 127 -172 c 1
 -15 -77 l 1
 80 55 107 192 107 350 c 0
 107 508 80 645 -15 777 c 1
 127 872 l 1
EndSplineSet
EndChar

StartChar: uni002A
Encoding: 42 42 10
Width: 458
Flags: W
LayerCount: 2
Fore
SplineSet
464 510 m 1
 333 495 l 1
 432 407 l 1
 284 300 l 1
 229 420 l 1
 176 299 l 1
 29 406 l 1
 125 495 l 1
 -6 508 l 1
 51 679 l 1
 165 614 l 1
 139 745 l 1
 321 745 l 1
 295 614 l 1
 407 680 l 1
 464 510 l 1
EndSplineSet
EndChar

StartChar: uni002B
Encoding: 43 43 11
Width: 560
Flags: W
LayerCount: 2
Fore
SplineSet
369 577 m 1
 369 416 l 1
 525 416 l 1
 525 249 l 1
 369 249 l 1
 369 87 l 1
 191 87 l 1
 191 249 l 1
 35 249 l 1
 35 416 l 1
 191 416 l 1
 191 577 l 1
 369 577 l 1
EndSplineSet
EndChar

StartChar: uni002C
Encoding: 44 44 12
Width: 245
Flags: W
LayerCount: 2
Fore
SplineSet
122 203 m 0
 186 203 234 155 234 91 c 0
 234 52 220 19 190 -49 c 2
 127 -189 l 1
 16 -189 l 1
 60 -1 l 1
 28 20 10 53 10 92 c 0
 10 155 58 203 122 203 c 0
EndSplineSet
EndChar

StartChar: uni002D
Encoding: 45 45 13
Width: 412
Flags: W
LayerCount: 2
Fore
SplineSet
29 230 m 1
 29 396 l 1
 382 396 l 1
 382 230 l 1
 29 230 l 1
EndSplineSet
EndChar

StartChar: uni002E
Encoding: 46 46 14
Width: 245
Flags: W
LayerCount: 2
Fore
SplineSet
122 203 m 0
 184 203 234 151 234 91 c 0
 234 30 184 -22 122 -22 c 0
 61 -22 10 30 10 91 c 0
 10 151 61 203 122 203 c 0
EndSplineSet
EndChar

StartChar: uni002F
Encoding: 47 47 15
Width: 520
Flags: W
LayerCount: 2
Fore
SplineSet
282 825 m 1
 477 781 l 1
 239 -120 l 1
 43 -75 l 1
 282 825 l 1
EndSplineSet
EndChar

StartChar: uni0030
Encoding: 48 48 16
Width: 611
Flags: W
LayerCount: 2
Fore
SplineSet
306 699 m 0
 488 699 591 571 591 340 c 0
 591 110 488 -22 306 -22 c 0
 123 -22 20 110 20 340 c 0
 20 571 123 699 306 699 c 0
306 540 m 0
 257 540 247 502 247 340 c 0
 247 177 257 139 306 139 c 0
 354 139 365 170 365 340 c 0
 365 511 354 540 306 540 c 0
EndSplineSet
EndChar

StartChar: uni0031
Encoding: 49 49 17
Width: 494
Flags: W
LayerCount: 2
Fore
SplineSet
438 683 m 1
 438 0 l 1
 224 0 l 1
 224 473 l 1
 89 391 l 1
 -8 535 l 1
 241 683 l 1
 438 683 l 1
EndSplineSet
EndChar

StartChar: uni0032
Encoding: 50 50 18
Width: 539
Flags: W
LayerCount: 2
Fore
SplineSet
247 699 m 0
 425 699 511 603 511 496 c 0
 511 410 485 341 270 164 c 1
 524 164 l 1
 502 0 l 1
 20 0 l 1
 20 151 l 1
 236 352 285 410 285 471 c 0
 285 510 262 535 222 535 c 0
 180 535 149 513 114 468 c 1
 -12 568 l 1
 43 644 131 699 247 699 c 0
EndSplineSet
EndChar

StartChar: uni0033
Encoding: 51 51 19
Width: 540
Flags: W
LayerCount: 2
Fore
SplineSet
252 699 m 0
 417 699 504 626 504 527 c 0
 504 447 460 389 369 360 c 1
 453 349 527 302 527 189 c 0
 527 80 434 -22 240 -22 c 0
 118 -22 33 25 -21 93 c 1
 93 205 l 1
 139 162 174 143 224 143 c 0
 265 143 301 163 301 209 c 0
 301 259 275 283 213 283 c 2
 150 283 l 1
 175 429 l 1
 217 429 l 2
 271 429 291 453 291 487 c 0
 291 522 265 540 223 540 c 0
 176 540 133 519 98 484 c 1
 -10 598 l 1
 58 664 147 699 252 699 c 0
EndSplineSet
EndChar

StartChar: uni0034
Encoding: 52 52 20
Width: 597
Flags: W
LayerCount: 2
Fore
SplineSet
585 290 m 1
 585 127 l 1
 518 127 l 1
 518 0 l 1
 301 0 l 1
 301 127 l 1
 16 127 l 1
 16 271 l 1
 200 705 l 1
 389 639 l 1
 243 290 l 1
 303 290 l 1
 328 430 l 1
 518 430 l 1
 518 290 l 1
 585 290 l 1
EndSplineSet
EndChar

StartChar: uni0035
Encoding: 53 53 21
Width: 569
Flags: W
LayerCount: 2
Fore
SplineSet
510 683 m 1
 487 529 l 1
 258 529 l 1
 258 440 l 1
 291 455 324 460 350 460 c 0
 459 460 549 378 549 232 c 0
 549 80 433 -22 250 -22 c 0
 132 -22 51 31 0 97 c 1
 122 207 l 1
 149 168 190 141 240 141 c 0
 293 141 322 169 322 228 c 0
 322 293 296 315 254 315 c 0
 235 315 216 309 188 292 c 1
 45 292 l 1
 45 683 l 1
 510 683 l 1
EndSplineSet
EndChar

StartChar: uni0036
Encoding: 54 54 22
Width: 592
Flags: W
LayerCount: 2
Fore
SplineSet
381 469 m 0
 503 469 583 379 583 234 c 0
 583 105 489 -22 308 -22 c 0
 112 -22 20 107 20 306 c 0
 20 543 148 699 354 699 c 0
 427 699 485 679 524 652 c 1
 445 525 l 1
 420 539 396 549 362 549 c 0
 308 549 267 516 255 430 c 1
 295 458 340 469 381 469 c 0
310 132 m 0
 347 132 361 171 361 234 c 0
 361 303 350 324 309 324 c 0
 296 324 276 320 254 306 c 1
 254 172 265 132 310 132 c 0
EndSplineSet
EndChar

StartChar: uni0037
Encoding: 55 55 23
Width: 490
Flags: W
LayerCount: 2
Fore
SplineSet
484 683 m 1
 484 538 l 1
 240 -22 l 1
 39 45 l 1
 251 520 l 1
 1 520 l 1
 1 683 l 1
 484 683 l 1
EndSplineSet
EndChar

StartChar: uni0038
Encoding: 56 56 24
Width: 610
Flags: W
LayerCount: 2
Fore
SplineSet
468 367 m 1
 559 317 595 257 595 187 c 0
 595 81 497 -22 300 -22 c 0
 113 -22 14 77 14 184 c 0
 14 258 60 312 132 345 c 1
 63 394 40 453 40 509 c 0
 40 615 139 699 305 699 c 0
 471 699 570 629 570 521 c 0
 570 472 541 409 468 367 c 1
306 556 m 0
 275 556 254 542 254 506 c 0
 254 479 265 453 297 434 c 1
 321 424 l 1
 354 453 356 482 356 508 c 0
 356 535 341 556 306 556 c 0
308 132 m 0
 359 132 376 162 376 191 c 0
 376 229 357 248 310 268 c 2
 272 283 l 1
 246 262 233 230 233 198 c 0
 233 160 263 132 308 132 c 0
EndSplineSet
EndChar

StartChar: uni0039
Encoding: 57 57 25
Width: 593
Flags: W
LayerCount: 2
Fore
SplineSet
294 699 m 0
 482 699 580 587 580 437 c 0
 580 160 430 15 98 -34 c 1
 55 117 l 1
 225 150 293 185 337 272 c 1
 302 241 268 226 209 226 c 0
 103 226 8 312 8 456 c 0
 8 599 130 699 294 699 c 0
230 468 m 0
 230 387 259 374 285 374 c 0
 305 374 332 384 352 410 c 1
 354 515 344 549 291 549 c 0
 257 549 230 524 230 468 c 0
EndSplineSet
EndChar

StartChar: uni003A
Encoding: 58 58 26
Width: 245
Flags: W
LayerCount: 2
Fore
SplineSet
122 525 m 0
 184 525 234 474 234 413 c 0
 234 352 184 301 122 301 c 0
 61 301 10 352 10 413 c 0
 10 474 61 525 122 525 c 0
122 203 m 0
 184 203 234 151 234 91 c 0
 234 30 184 -22 122 -22 c 0
 61 -22 10 30 10 91 c 0
 10 151 61 203 122 203 c 0
EndSplineSet
EndChar

StartChar: uni003B
Encoding: 59 59 27
Width: 245
Flags: W
LayerCount: 2
Fore
SplineSet
122 525 m 0
 184 525 234 474 234 413 c 0
 234 352 184 301 122 301 c 0
 61 301 10 352 10 413 c 0
 10 474 61 525 122 525 c 0
122 203 m 0
 186 203 234 155 234 91 c 0
 234 52 220 19 190 -49 c 2
 127 -189 l 1
 16 -189 l 1
 60 -1 l 1
 28 20 10 53 10 92 c 0
 10 155 58 203 122 203 c 0
EndSplineSet
EndChar

StartChar: uni003C
Encoding: 60 60 28
Width: 536
Flags: W
LayerCount: 2
Fore
SplineSet
451 601 m 1
 517 455 l 1
 210 333 l 1
 517 221 l 1
 451 65 l 1
 19 240 l 1
 19 425 l 1
 451 601 l 1
EndSplineSet
EndChar

StartChar: uni003D
Encoding: 61 61 29
Width: 536
Flags: W
LayerCount: 2
Fore
SplineSet
35 362 m 1
 35 529 l 1
 501 529 l 1
 501 362 l 1
 35 362 l 1
35 135 m 1
 35 302 l 1
 501 302 l 1
 501 135 l 1
 35 135 l 1
EndSplineSet
EndChar

StartChar: uni003E
Encoding: 62 62 30
Width: 536
Flags: W
LayerCount: 2
Fore
SplineSet
85 601 m 1
 517 425 l 1
 517 240 l 1
 85 65 l 1
 19 221 l 1
 326 333 l 1
 19 455 l 1
 85 601 l 1
EndSplineSet
EndChar

StartChar: uni003F
Encoding: 63 63 31
Width: 503
Flags: W
LayerCount: 2
Fore
SplineSet
257 719 m 0
 423 719 504 638 504 541 c 0
 504 375 326 378 326 285 c 2
 326 279 l 1
 130 279 l 1
 130 291 l 2
 130 469 272 463 272 519 c 0
 272 538 259 548 232 548 c 0
 201 548 167 529 136 497 c 1
 -1 604 l 1
 55 671 136 719 257 719 c 0
228 203 m 0
 290 203 341 151 341 91 c 0
 341 30 290 -22 228 -22 c 0
 167 -22 116 30 116 91 c 0
 116 151 167 203 228 203 c 0
EndSplineSet
EndChar

StartChar: uni0040
Encoding: 64 64 32
Width: 1020
Flags: W
LayerCount: 2
Fore
SplineSet
718 463 m 1
 718 228 l 1
 718 227 l 2
 718 147 718 126 744 126 c 0
 774 126 804 159 804 321 c 0
 804 479 725 565 526 565 c 0
 321 565 219 440 219 245 c 0
 219 41 320 -74 528 -74 c 0
 592 -74 680 -58 729 -39 c 1
 779 -185 l 1
 718 -211 606 -231 527 -231 c 0
 217 -231 27 -45 27 244 c 0
 27 527 242 719 527 719 c 0
 818 719 993 526 993 323 c 0
 993 131 889 -1 754 -1 c 0
 676 -1 626 50 616 99 c 1
 589 40 540 5 473 5 c 0
 326 5 281 109 281 234 c 0
 281 391 359 513 529 513 c 0
 585 513 663 494 718 463 c 1
503 136 m 0
 514 136 526 140 534 152 c 1
 534 377 l 1
 524 381 521 380 515 380 c 0
 497 380 475 360 475 233 c 0
 475 151 480 136 503 136 c 0
EndSplineSet
EndChar

StartChar: uni0041
Encoding: 65 65 33
Width: 607
Flags: W
LayerCount: 2
Fore
SplineSet
395 0 m 1
 373 126 l 1
 231 126 l 1
 210 0 l 1
 -32 0 l 1
 167 698 l 1
 442 698 l 1
 639 0 l 1
 395 0 l 1
258 286 m 1
 345 286 l 1
 301 538 l 1
 258 286 l 1
EndSplineSet
EndChar

StartChar: uni0042
Encoding: 66 66 34
Width: 626
Flags: W
LayerCount: 2
Fore
SplineSet
463 370 m 1
 538 353 618 316 618 209 c 0
 618 38 474 0 285 0 c 2
 31 0 l 1
 31 698 l 1
 259 698 l 2
 461 698 589 656 589 516 c 0
 589 426 524 387 463 370 c 1
280 541 m 2
 262 541 l 1
 262 434 l 1
 280 434 l 2
 340 434 355 449 355 492 c 0
 355 524 338 541 280 541 c 2
288 161 m 2
 342 161 380 170 380 225 c 0
 380 270 353 290 294 290 c 2
 262 290 l 1
 262 161 l 1
 288 161 l 2
EndSplineSet
EndChar

StartChar: uni0043
Encoding: 67 67 35
Width: 590
Flags: W
LayerCount: 2
Fore
SplineSet
354 719 m 0
 448 719 524 688 586 634 c 1
 480 510 l 1
 446 535 409 555 365 555 c 0
 291 555 252 486 252 351 c 0
 252 215 292 151 369 151 c 0
 414 151 451 173 494 207 c 1
 594 80 l 1
 541 27 456 -22 357 -22 c 0
 145 -22 12 108 12 351 c 0
 12 583 151 719 354 719 c 0
EndSplineSet
EndChar

StartChar: uni0044
Encoding: 68 68 36
Width: 660
Flags: W
LayerCount: 2
Fore
SplineSet
270 698 m 2
 466 698 648 638 648 352 c 0
 648 75 485 0 281 0 c 2
 31 0 l 1
 31 698 l 1
 270 698 l 2
297 537 m 2
 262 537 l 1
 262 161 l 1
 295 161 l 2
 384 161 410 209 410 352 c 0
 410 493 380 537 297 537 c 2
EndSplineSet
EndChar

StartChar: uni0045
Encoding: 69 69 37
Width: 521
Flags: W
LayerCount: 2
Fore
SplineSet
507 698 m 1
 484 539 l 1
 262 539 l 1
 262 431 l 1
 457 431 l 1
 457 276 l 1
 262 276 l 1
 262 160 l 1
 500 160 l 1
 500 0 l 1
 31 0 l 1
 31 698 l 1
 507 698 l 1
EndSplineSet
EndChar

StartChar: uni0046
Encoding: 70 70 38
Width: 485
Flags: W
LayerCount: 2
Fore
SplineSet
31 0 m 1
 31 698 l 1
 490 698 l 1
 467 539 l 1
 262 539 l 1
 262 407 l 1
 443 407 l 1
 443 248 l 1
 262 248 l 1
 262 0 l 1
 31 0 l 1
EndSplineSet
EndChar

StartChar: uni0047
Encoding: 71 71 39
Width: 659
Flags: W
LayerCount: 2
Fore
SplineSet
374 719 m 0
 486 719 574 675 631 625 c 1
 520 509 l 1
 475 541 440 560 389 560 c 0
 295 560 250 490 250 349 c 0
 250 183 277 140 349 140 c 0
 371 140 389 146 408 154 c 1
 408 262 l 1
 349 262 l 1
 328 416 l 1
 629 416 l 1
 629 63 l 1
 552 9 445 -22 356 -22 c 0
 112 -22 12 113 12 350 c 0
 12 586 164 719 374 719 c 0
EndSplineSet
EndChar

StartChar: uni0048
Encoding: 72 72 40
Width: 654
Flags: W
LayerCount: 2
Fore
SplineSet
392 0 m 1
 392 272 l 1
 262 272 l 1
 262 0 l 1
 31 0 l 1
 31 698 l 1
 262 698 l 1
 262 448 l 1
 392 448 l 1
 392 698 l 1
 623 698 l 1
 623 0 l 1
 392 0 l 1
EndSplineSet
EndChar

StartChar: uni0049
Encoding: 73 73 41
Width: 293
Flags: W
LayerCount: 2
Fore
SplineSet
262 698 m 1
 262 0 l 1
 31 0 l 1
 31 698 l 1
 262 698 l 1
EndSplineSet
EndChar

StartChar: uni004A
Encoding: 74 74 42
Width: 330
Flags: W
LayerCount: 2
Fore
SplineSet
301 698 m 1
 301 114 l 2
 301 -92 159 -161 36 -201 c 1
 -26 -39 l 1
 63 -6 70 48 70 122 c 2
 70 698 l 1
 301 698 l 1
EndSplineSet
EndChar

StartChar: uni004B
Encoding: 75 75 43
Width: 678
Flags: W
LayerCount: 2
Fore
SplineSet
262 698 m 1
 262 0 l 1
 31 0 l 1
 31 698 l 1
 262 698 l 1
683 698 m 1
 501 390 l 1
 701 0 l 1
 440 0 l 1
 269 372 l 1
 447 698 l 1
 683 698 l 1
EndSplineSet
EndChar

StartChar: uni004C
Encoding: 76 76 44
Width: 529
Flags: W
LayerCount: 2
Fore
SplineSet
262 698 m 1
 262 176 l 1
 521 176 l 1
 498 0 l 1
 31 0 l 1
 31 698 l 1
 262 698 l 1
EndSplineSet
EndChar

StartChar: uni004D
Encoding: 77 77 45
Width: 794
Flags: W
LayerCount: 2
Fore
SplineSet
741 698 m 1
 789 0 l 1
 561 0 l 1
 561 233 l 2
 560 319 562 403 573 515 c 1
 507 68 l 1
 288 68 l 1
 215 515 l 1
 229 392 235 326 234 234 c 2
 234 0 l 1
 5 0 l 1
 53 698 l 1
 336 698 l 1
 401 260 l 1
 457 698 l 1
 741 698 l 1
EndSplineSet
EndChar

StartChar: uni004E
Encoding: 78 78 46
Width: 647
Flags: W
LayerCount: 2
Fore
SplineSet
616 698 m 1
 616 0 l 1
 327 0 l 1
 204 489 l 1
 215 419 235 318 235 188 c 2
 235 0 l 1
 31 0 l 1
 31 698 l 1
 314 698 l 1
 444 206 l 1
 429 297 412 375 412 508 c 2
 412 698 l 1
 616 698 l 1
EndSplineSet
EndChar

StartChar: uni004F
Encoding: 79 79 47
Width: 690
Flags: W
LayerCount: 2
Fore
SplineSet
345 719 m 0
 561 719 678 581 678 350 c 0
 678 124 561 -22 345 -22 c 0
 128 -22 12 119 12 350 c 0
 12 576 128 719 345 719 c 0
345 557 m 0
 276 557 252 503 252 350 c 0
 252 197 275 140 345 140 c 0
 416 140 438 197 438 350 c 0
 438 503 414 557 345 557 c 0
EndSplineSet
EndChar

StartChar: uni0050
Encoding: 80 80 48
Width: 618
Flags: W
LayerCount: 2
Fore
SplineSet
298 698 m 2
 489 698 608 617 608 459 c 0
 608 294 493 209 325 209 c 2
 262 209 l 1
 262 0 l 1
 31 0 l 1
 31 698 l 1
 298 698 l 2
302 370 m 2
 350 370 373 401 373 459 c 0
 373 506 354 539 294 539 c 2
 262 539 l 1
 262 370 l 1
 302 370 l 2
EndSplineSet
EndChar

StartChar: uni0051
Encoding: 81 81 49
Width: 690
Flags: W
LayerCount: 2
Fore
SplineSet
512 52 m 1
 613 52 672 34 732 -11 c 1
 597 -187 l 1
 545 -113 461 -17 327 -17 c 0
 128 -17 12 119 12 350 c 0
 12 576 128 719 345 719 c 0
 561 719 678 581 678 350 c 0
 678 186 586 99 512 52 c 1
252 350 m 0
 252 197 275 140 345 140 c 0
 416 140 438 197 438 350 c 0
 438 503 414 557 345 557 c 0
 276 557 252 503 252 350 c 0
EndSplineSet
EndChar

StartChar: uni0052
Encoding: 82 82 50
Width: 630
Flags: W
LayerCount: 2
Fore
SplineSet
404 0 m 1
 283 238 l 1
 262 238 l 1
 262 0 l 1
 31 0 l 1
 31 698 l 1
 302 698 l 2
 507 698 610 629 610 471 c 0
 610 386 575 334 493 281 c 1
 659 0 l 1
 404 0 l 1
262 541 m 1
 262 391 l 1
 306 391 l 2
 353 391 375 417 375 471 c 0
 375 519 345 541 296 541 c 2
 262 541 l 1
EndSplineSet
EndChar

StartChar: uni0053
Encoding: 83 83 51
Width: 597
Flags: W
LayerCount: 2
Fore
SplineSet
305 719 m 0
 421 719 507 684 572 621 c 1
 471 502 l 1
 426 538 378 557 324 557 c 0
 280 557 261 542 261 518 c 0
 261 488 285 481 380 450 c 0
 527 402 588 337 588 212 c 0
 588 75 474 -22 284 -22 c 0
 144 -22 51 31 -6 87 c 1
 106 210 l 1
 156 167 212 143 275 143 c 0
 329 143 348 166 348 192 c 0
 348 226 329 241 243 268 c 0
 70 323 23 398 23 499 c 0
 23 637 145 719 305 719 c 0
EndSplineSet
EndChar

StartChar: uni0054
Encoding: 84 84 52
Width: 564
Flags: W
LayerCount: 2
Fore
SplineSet
572 698 m 1
 548 527 l 1
 397 527 l 1
 397 0 l 1
 166 0 l 1
 166 527 l 1
 3 527 l 1
 3 698 l 1
 572 698 l 1
EndSplineSet
EndChar

StartChar: uni0055
Encoding: 85 85 53
Width: 642
Flags: W
LayerCount: 2
Fore
SplineSet
621 698 m 1
 621 240 l 2
 621 96 525 -22 321 -22 c 0
 117 -22 21 84 21 240 c 2
 21 698 l 1
 252 698 l 1
 252 246 l 2
 252 175 270 143 321 143 c 0
 372 143 390 175 390 246 c 2
 390 698 l 1
 621 698 l 1
EndSplineSet
EndChar

StartChar: uni0056
Encoding: 86 86 54
Width: 585
Flags: W
LayerCount: 2
Fore
SplineSet
617 698 m 1
 449 0 l 1
 148 0 l 1
 -32 698 l 1
 211 698 l 1
 302 156 l 1
 380 698 l 1
 617 698 l 1
EndSplineSet
EndChar

StartChar: uni0057
Encoding: 87 87 55
Width: 867
Flags: W
LayerCount: 2
Fore
SplineSet
873 698 m 1
 780 0 l 1
 479 0 l 1
 432 480 l 1
 377 0 l 1
 82 0 l 1
 -5 698 l 1
 226 698 l 1
 255 165 l 1
 316 698 l 1
 556 698 l 1
 603 165 l 1
 650 698 l 1
 873 698 l 1
EndSplineSet
EndChar

StartChar: uni0058
Encoding: 88 88 56
Width: 622
Flags: W
LayerCount: 2
Fore
SplineSet
445 376 m 1
 635 0 l 1
 387 0 l 1
 305 224 l 1
 231 0 l 1
 -13 0 l 1
 168 369 l 1
 -2 698 l 1
 245 698 l 1
 308 511 l 1
 380 698 l 1
 623 698 l 1
 445 376 l 1
EndSplineSet
EndChar

StartChar: uni0059
Encoding: 89 89 57
Width: 637
Flags: W
LayerCount: 2
Fore
SplineSet
656 698 m 1
 434 255 l 1
 434 0 l 1
 203 0 l 1
 203 254 l 1
 -20 698 l 1
 232 698 l 1
 321 427 l 1
 412 698 l 1
 656 698 l 1
EndSplineSet
EndChar

StartChar: uni005A
Encoding: 90 90 58
Width: 564
Flags: W
LayerCount: 2
Fore
SplineSet
544 698 m 1
 544 527 l 1
 282 179 l 1
 556 179 l 1
 534 0 l 1
 6 0 l 1
 6 168 l 1
 278 524 l 1
 32 524 l 1
 32 698 l 1
 544 698 l 1
EndSplineSet
EndChar

StartChar: uni005B
Encoding: 91 91 59
Width: 326
Flags: W
LayerCount: 2
Fore
SplineSet
326 830 m 1
 326 671 l 1
 214 671 l 1
 214 28 l 1
 326 28 l 1
 326 -130 l 1
 3 -130 l 1
 3 830 l 1
 326 830 l 1
EndSplineSet
EndChar

StartChar: uni005C
Encoding: 92 92 60
Width: 520
Flags: W
LayerCount: 2
Fore
SplineSet
238 825 m 1
 477 -75 l 1
 281 -120 l 1
 43 780 l 1
 238 825 l 1
EndSplineSet
EndChar

StartChar: uni005D
Encoding: 93 93 61
Width: 326
Flags: W
LayerCount: 2
Fore
SplineSet
323 830 m 1
 323 -130 l 1
 0 -130 l 1
 0 30 l 1
 112 30 l 1
 112 673 l 1
 0 673 l 1
 0 830 l 1
 323 830 l 1
EndSplineSet
EndChar

StartChar: uni005E
Encoding: 94 94 62
Width: 577
Flags: W
LayerCount: 2
Fore
SplineSet
391 849 m 1
 580 527 l 1
 370 527 l 1
 287 693 l 1
 211 527 l 1
 -4 527 l 1
 186 849 l 1
 391 849 l 1
EndSplineSet
EndChar

StartChar: uni005F
Encoding: 95 95 63
Width: 520
Flags: W
LayerCount: 2
Fore
SplineSet
1 -199 m 1
 1 -32 l 1
 519 -32 l 1
 519 -199 l 1
 1 -199 l 1
EndSplineSet
EndChar

StartChar: uni0060
Encoding: 96 96 64
Width: 379
Flags: W
LayerCount: 2
Fore
SplineSet
112 869 m 1
 349 718 l 1
 290 607 l 1
 30 709 l 1
 112 869 l 1
EndSplineSet
EndChar

StartChar: uni0061
Encoding: 97 97 65
Width: 554
Flags: W
LayerCount: 2
Fore
SplineSet
517 183 m 2
 517 148 524 134 547 125 c 1
 503 -17 l 1
 430 -13 382 5 348 55 c 1
 309 -4 247 -22 187 -22 c 0
 79 -22 9 51 9 151 c 0
 9 270 100 336 274 336 c 2
 301 336 l 1
 301 343 l 2
 301 392 286 402 232 402 c 0
 203 402 148 392 94 374 c 1
 47 514 l 1
 115 542 204 557 265 557 c 0
 444 557 517 492 517 355 c 2
 517 183 l 2
257 133 m 0
 275 133 291 143 301 156 c 1
 301 223 l 1
 292 223 l 2
 245 223 224 208 224 173 c 0
 224 150 237 133 257 133 c 0
EndSplineSet
EndChar

StartChar: uni0062
Encoding: 98 98 66
Width: 597
Flags: W
LayerCount: 2
Fore
SplineSet
390 557 m 0
 523 557 588 446 588 266 c 0
 588 104 508 -22 372 -22 c 0
 313 -22 265 2 235 44 c 1
 229 0 l 1
 31 0 l 1
 31 745 l 1
 253 767 l 1
 253 493 l 1
 281 531 336 557 390 557 c 0
303 135 m 0
 337 135 361 161 361 266 c 0
 361 386 337 399 310 399 c 0
 294 399 271 389 253 357 c 1
 253 166 l 1
 266 144 283 135 303 135 c 0
EndSplineSet
EndChar

StartChar: uni0063
Encoding: 99 99 67
Width: 480
Flags: W
LayerCount: 2
Fore
SplineSet
297 557 m 0
 383 557 447 530 499 483 c 1
 408 355 l 1
 376 381 347 391 317 391 c 0
 266 391 239 364 239 264 c 0
 239 164 272 149 315 149 c 0
 346 149 366 159 403 181 c 1
 498 46 l 1
 448 5 386 -22 302 -22 c 0
 119 -22 9 97 9 264 c 0
 9 433 122 557 297 557 c 0
EndSplineSet
EndChar

StartChar: uni0064
Encoding: 100 100 68
Width: 599
Flags: W
LayerCount: 2
Fore
SplineSet
345 767 m 1
 567 745 l 1
 567 0 l 1
 370 0 l 1
 363 52 l 1
 336 16 291 -22 213 -22 c 0
 71 -22 9 94 9 272 c 0
 9 439 101 557 235 557 c 0
 277 557 316 546 345 521 c 1
 345 767 l 1
290 136 m 0
 309 136 329 147 345 173 c 1
 345 379 l 1
 330 393 318 401 300 401 c 0
 265 401 236 371 236 269 c 0
 236 144 263 136 290 136 c 0
EndSplineSet
EndChar

StartChar: uni0065
Encoding: 101 101 69
Width: 564
Flags: W
LayerCount: 2
Fore
SplineSet
557 273 m 0
 557 256 554 227 552 206 c 1
 233 206 l 1
 244 142 278 134 330 134 c 0
 365 134 402 149 448 180 c 1
 537 60 l 1
 483 17 405 -22 308 -22 c 0
 102 -22 9 103 9 268 c 0
 9 422 99 557 285 557 c 0
 446 557 557 456 557 273 c 0
338 329 m 1
 338 335 l 2
 337 379 332 420 289 420 c 0
 253 420 236 400 231 329 c 1
 338 329 l 1
EndSplineSet
EndChar

StartChar: uni0066
Encoding: 102 102 70
Width: 377
Flags: W
LayerCount: 2
Fore
SplineSet
334 610 m 0
 300 610 285 594 285 546 c 2
 285 536 l 1
 407 536 l 1
 382 387 l 1
 285 387 l 1
 285 0 l 1
 63 0 l 1
 63 387 l 1
 -6 387 l 1
 -6 536 l 1
 63 536 l 1
 63 557 l 2
 63 672 139 767 303 767 c 0
 363 767 429 749 466 729 c 1
 408 590 l 1
 381 605 354 610 334 610 c 0
EndSplineSet
EndChar

StartChar: uni0067
Encoding: 103 103 71
Width: 581
Flags: W
LayerCount: 2
Fore
SplineSet
535 648 m 1
 583 496 l 1
 550 480 501 470 430 470 c 1
 502 441 536 405 536 330 c 0
 536 230 442 154 291 154 c 0
 270 154 254 153 236 156 c 0
 231 153 228 149 228 144 c 0
 228 137 229 123 275 123 c 2
 351 123 l 2
 490 123 576 56 576 -40 c 0
 576 -156 469 -231 269 -231 c 0
 39 -231 -12 -152 -12 -48 c 1
 187 -48 l 1
 186 -81 199 -93 276 -93 c 0
 349 -93 353 -71 353 -56 c 0
 353 -43 346 -25 307 -25 c 2
 235 -25 l 2
 97 -25 46 24 46 85 c 0
 46 128 76 171 115 195 c 1
 40 236 14 284 14 352 c 0
 14 484 116 557 275 557 c 1
 381 553 467 599 535 648 c 1
282 415 m 0
 256 415 233 398 233 357 c 0
 233 311 256 294 282 294 c 0
 314 294 331 314 331 361 c 0
 331 402 315 415 282 415 c 0
EndSplineSet
EndChar

StartChar: uni0068
Encoding: 104 104 72
Width: 568
Flags: W
LayerCount: 2
Fore
SplineSet
401 557 m 0
 489 557 544 500 544 398 c 2
 544 0 l 1
 322 0 l 1
 322 357 l 2
 322 391 314 397 304 397 c 0
 292 397 273 385 253 353 c 1
 253 0 l 1
 31 0 l 1
 31 745 l 1
 253 768 l 1
 253 494 l 1
 299 540 344 557 401 557 c 0
EndSplineSet
EndChar

StartChar: uni0069
Encoding: 105 105 73
Width: 284
Flags: W
LayerCount: 2
Fore
SplineSet
142 842 m 0
 214 842 265 791 265 725 c 0
 265 659 214 608 142 608 c 0
 71 608 20 659 20 725 c 0
 20 791 71 842 142 842 c 0
253 536 m 1
 253 0 l 1
 31 0 l 1
 31 536 l 1
 253 536 l 1
EndSplineSet
EndChar

StartChar: uni006A
Encoding: 106 106 74
Width: 284
Flags: W
LayerCount: 2
Fore
SplineSet
142 842 m 0
 214 842 265 791 265 725 c 0
 265 659 214 608 142 608 c 0
 71 608 20 659 20 725 c 0
 20 791 71 842 142 842 c 0
253 536 m 1
 253 87 l 2
 253 -109 132 -188 -6 -231 c 1
 -83 -70 l 1
 -17 -39 31 -9 31 73 c 2
 31 536 l 1
 253 536 l 1
EndSplineSet
EndChar

StartChar: uni006B
Encoding: 107 107 75
Width: 591
Flags: W
LayerCount: 2
Fore
SplineSet
253 767 m 1
 253 0 l 1
 31 0 l 1
 31 745 l 1
 253 767 l 1
605 536 m 1
 477 302 l 1
 610 0 l 1
 366 0 l 1
 257 293 l 1
 387 536 l 1
 605 536 l 1
EndSplineSet
EndChar

StartChar: uni006C
Encoding: 108 108 76
Width: 305
Flags: W
LayerCount: 2
Fore
SplineSet
205 -22 m 0
 88 -22 24 47 24 165 c 2
 24 745 l 1
 246 767 l 1
 246 174 l 2
 246 159 253 151 267 151 c 0
 275 151 281 153 285 155 c 1
 323 -3 l 1
 296 -13 254 -22 205 -22 c 0
EndSplineSet
EndChar

StartChar: uni006D
Encoding: 109 109 77
Width: 832
Flags: W
LayerCount: 2
Fore
SplineSet
673 557 m 0
 752 557 808 500 808 398 c 2
 808 0 l 1
 586 0 l 1
 586 357 l 2
 586 391 579 397 570 397 c 0
 559 397 543 385 531 353 c 1
 531 0 l 1
 309 0 l 1
 309 357 l 2
 309 391 301 397 292 397 c 0
 281 397 265 385 253 353 c 1
 253 0 l 1
 31 0 l 1
 31 536 l 1
 225 536 l 1
 240 487 l 1
 285 538 332 557 395 557 c 0
 448 557 491 532 513 484 c 1
 559 537 607 557 673 557 c 0
EndSplineSet
EndChar

StartChar: uni006E
Encoding: 110 110 78
Width: 568
Flags: W
LayerCount: 2
Fore
SplineSet
401 557 m 0
 489 557 544 500 544 398 c 2
 544 0 l 1
 322 0 l 1
 322 357 l 2
 322 391 314 397 304 397 c 0
 292 397 273 385 253 353 c 1
 253 0 l 1
 31 0 l 1
 31 536 l 1
 225 536 l 1
 240 486 l 1
 292 537 338 557 401 557 c 0
EndSplineSet
EndChar

StartChar: uni006F
Encoding: 111 111 79
Width: 586
Flags: W
LayerCount: 2
Fore
SplineSet
293 557 m 0
 466 557 577 455 577 267 c 0
 577 91 468 -22 293 -22 c 0
 120 -22 9 80 9 269 c 0
 9 445 117 557 293 557 c 0
293 400 m 0
 251 400 236 362 236 269 c 0
 236 170 252 136 293 136 c 0
 334 136 350 174 350 267 c 0
 350 365 334 400 293 400 c 0
EndSplineSet
EndChar

StartChar: uni0070
Encoding: 112 112 80
Width: 597
Flags: W
LayerCount: 2
Fore
SplineSet
387 557 m 0
 522 557 588 447 588 270 c 0
 588 104 500 -22 373 -22 c 0
 326 -22 285 -6 253 29 c 1
 253 -209 l 1
 31 -231 l 1
 31 536 l 1
 229 536 l 1
 237 488 l 1
 284 544 342 557 387 557 c 0
299 135 m 0
 334 135 361 165 361 266 c 0
 361 392 336 399 310 399 c 0
 291 399 271 389 253 358 c 1
 253 164 l 1
 268 142 281 135 299 135 c 0
EndSplineSet
EndChar

StartChar: uni0071
Encoding: 113 113 81
Width: 599
Flags: W
LayerCount: 2
Fore
SplineSet
373 536 m 1
 567 536 l 1
 567 -231 l 1
 345 -209 l 1
 345 35 l 1
 317 4 276 -22 213 -22 c 0
 72 -22 9 94 9 272 c 0
 9 439 100 557 236 557 c 0
 280 557 324 545 364 503 c 1
 364 504 l 1
 373 536 l 1
290 136 m 0
 309 136 329 147 345 174 c 1
 345 379 l 1
 330 393 319 401 301 401 c 0
 265 401 236 371 236 269 c 0
 236 144 263 136 290 136 c 0
EndSplineSet
EndChar

StartChar: uni0072
Encoding: 114 114 82
Width: 416
Flags: W
LayerCount: 2
Fore
SplineSet
376 554 m 0
 397 554 411 551 430 544 c 1
 396 330 l 1
 379 335 363 339 347 339 c 0
 285 339 266 292 253 231 c 1
 253 0 l 1
 31 0 l 1
 31 536 l 1
 225 536 l 1
 244 440 l 1
 264 506 319 554 376 554 c 0
EndSplineSet
EndChar

StartChar: uni0073
Encoding: 115 115 83
Width: 493
Flags: W
LayerCount: 2
Fore
SplineSet
260 557 m 0
 341 557 423 529 472 487 c 1
 394 368 l 1
 358 390 311 405 269 405 c 0
 242 405 236 399 236 392 c 0
 236 380 238 374 340 342 c 0
 439 311 495 266 495 168 c 0
 495 56 387 -22 231 -22 c 0
 136 -22 45 12 -12 67 c 1
 93 182 l 1
 129 153 179 129 225 129 c 0
 253 129 269 136 269 151 c 0
 269 171 261 172 172 200 c 0
 74 230 17 290 17 378 c 0
 17 477 101 557 260 557 c 0
EndSplineSet
EndChar

StartChar: uni0074
Encoding: 116 116 84
Width: 411
Flags: W
LayerCount: 2
Fore
SplineSet
357 164 m 1
 428 27 l 1
 382 -6 311 -22 260 -22 c 0
 116 -20 54 60 54 209 c 2
 54 387 l 1
 -5 387 l 1
 -5 536 l 1
 54 536 l 1
 54 646 l 1
 276 671 l 1
 276 536 l 1
 394 536 l 1
 372 387 l 1
 276 387 l 1
 276 211 l 2
 276 163 292 151 312 151 c 0
 325 151 341 155 357 164 c 1
EndSplineSet
EndChar

StartChar: uni0075
Encoding: 117 117 85
Width: 562
Flags: W
LayerCount: 2
Fore
SplineSet
531 536 m 1
 531 0 l 1
 337 0 l 1
 329 52 l 1
 292 2 238 -22 173 -22 c 0
 67 -22 24 48 24 150 c 2
 24 536 l 1
 246 536 l 1
 246 180 l 2
 246 145 257 139 267 139 c 0
 276 139 294 146 309 172 c 1
 309 536 l 1
 531 536 l 1
EndSplineSet
EndChar

StartChar: uni0076
Encoding: 118 118 86
Width: 535
Flags: W
LayerCount: 2
Fore
SplineSet
556 536 m 1
 400 0 l 1
 139 0 l 1
 -20 536 l 1
 221 536 l 1
 272 158 l 1
 332 536 l 1
 556 536 l 1
EndSplineSet
EndChar

StartChar: uni0077
Encoding: 119 119 87
Width: 780
Flags: W
LayerCount: 2
Fore
SplineSet
790 536 m 1
 689 0 l 1
 437 0 l 1
 388 339 l 1
 344 0 l 1
 93 0 l 1
 -10 536 l 1
 214 536 l 1
 232 169 l 1
 293 536 l 1
 498 536 l 1
 544 170 l 1
 577 536 l 1
 790 536 l 1
EndSplineSet
EndChar

StartChar: uni0078
Encoding: 120 120 88
Width: 539
Flags: W
LayerCount: 2
Fore
SplineSet
403 287 m 1
 565 0 l 1
 318 0 l 1
 262 174 l 1
 213 0 l 1
 -25 0 l 1
 134 280 l 1
 -13 536 l 1
 232 536 l 1
 271 388 l 1
 304 536 l 1
 535 536 l 1
 403 287 l 1
EndSplineSet
EndChar

StartChar: uni0079
Encoding: 121 121 89
Width: 545
Flags: W
LayerCount: 2
Fore
SplineSet
565 536 m 1
 404 2 l 2
 358 -153 239 -230 52 -232 c 1
 28 -82 l 1
 130 -74 176 -55 203 0 c 1
 126 0 l 1
 -20 536 l 1
 215 536 l 1
 266 134 l 1
 337 536 l 1
 565 536 l 1
EndSplineSet
EndChar

StartChar: uni007A
Encoding: 122 122 90
Width: 475
Flags: W
LayerCount: 2
Fore
SplineSet
466 536 m 1
 466 383 l 1
 260 162 l 1
 475 162 l 1
 456 0 l 1
 1 0 l 1
 1 154 l 1
 211 376 l 1
 20 376 l 1
 20 536 l 1
 466 536 l 1
EndSplineSet
EndChar

StartChar: uni007B
Encoding: 123 123 91
Width: 325
Flags: W
LayerCount: 2
Fore
SplineSet
318 844 m 1
 318 695 l 1
 265 695 259 682 259 645 c 2
 259 509 l 2
 259 404 211 367 129 349 c 1
 209 336 260 294 260 192 c 2
 260 55 l 2
 260 19 266 5 318 5 c 1
 318 -144 l 1
 93 -144 52 -75 52 38 c 2
 52 174 l 2
 52 235 44 260 -7 260 c 1
 -7 441 l 1
 44 441 52 465 52 526 c 2
 52 662 l 2
 52 777 93 844 318 844 c 1
EndSplineSet
EndChar

StartChar: uni007C
Encoding: 124 124 92
Width: 352
Flags: W
LayerCount: 2
Fore
SplineSet
280 813 m 1
 280 -108 l 1
 71 -108 l 1
 71 813 l 1
 280 813 l 1
EndSplineSet
EndChar

StartChar: uni007D
Encoding: 125 125 93
Width: 325
Flags: W
LayerCount: 2
Fore
SplineSet
7 844 m 1
 232 844 273 777 273 662 c 2
 273 526 l 2
 273 465 281 441 332 441 c 1
 332 260 l 1
 281 260 273 235 273 174 c 2
 273 38 l 2
 273 -75 232 -144 7 -144 c 1
 7 5 l 1
 59 5 65 19 65 55 c 2
 65 192 l 2
 65 294 116 336 196 349 c 1
 114 367 66 404 66 509 c 2
 66 645 l 2
 66 682 60 695 7 695 c 1
 7 844 l 1
EndSplineSet
EndChar

StartChar: uni007E
Encoding: 126 126 94
Width: 540
Flags: W
LayerCount: 2
Fore
SplineSet
357 214 m 0
 254 214 230 274 176 274 c 0
 138 274 127 250 108 224 c 1
 -3 279 l 1
 36 359 88 435 183 435 c 0
 285 435 310 375 364 375 c 0
 402 375 413 400 433 424 c 1
 543 371 l 1
 504 291 452 214 357 214 c 0
EndSplineSet
EndChar

StartChar: uni00A1
Encoding: 161 161 96
Width: 240
Flags: W
LayerCount: 2
Fore
SplineSet
120 525 m 0
 182 525 232 474 232 413 c 0
 232 352 182 301 120 301 c 0
 58 301 8 352 8 413 c 0
 8 474 58 525 120 525 c 0
207 224 m 1
 236 -218 l 1
 3 -218 l 1
 33 224 l 1
 207 224 l 1
EndSplineSet
EndChar

StartChar: uni00A2
Encoding: 162 162 97
Width: 480
Flags: W
LayerCount: 2
Fore
SplineSet
403 181 m 1
 498 46 l 1
 461 16 417 -7 363 -17 c 1
 363 -168 l 1
 214 -168 l 1
 214 -12 l 1
 84 20 9 126 9 264 c 0
 9 405 88 514 215 547 c 1
 215 699 l 1
 363 699 l 1
 363 551 l 1
 417 541 461 517 499 483 c 1
 408 355 l 1
 376 381 347 391 317 391 c 0
 266 391 239 364 239 264 c 0
 239 164 272 149 315 149 c 0
 346 149 366 159 403 181 c 1
EndSplineSet
EndChar

StartChar: uni00A3
Encoding: 163 163 98
Width: 558
Flags: W
LayerCount: 2
Fore
SplineSet
316 278 m 2
 316 231 306 193 250 162 c 1
 544 162 l 1
 520 0 l 1
 15 0 l 1
 15 154 l 1
 100 174 99 214 99 263 c 2
 99 299 l 1
 29 299 l 1
 29 403 l 1
 99 403 l 1
 99 471 l 2
 99 603 177 699 337 699 c 0
 444 699 514 660 565 585 c 1
 432 489 l 1
 410 529 388 539 363 539 c 0
 326 539 316 511 316 468 c 2
 316 403 l 1
 480 403 l 1
 480 299 l 1
 316 299 l 1
 316 278 l 2
EndSplineSet
EndChar

StartChar: uni00A4
Encoding: 164 164 99
Width: 560
Flags: W
LayerCount: 2
Fore
SplineSet
512 342 m 0
 512 299 501 260 482 227 c 1
 557 153 l 1
 471 67 l 1
 394 143 l 1
 361 126 322 116 281 116 c 0
 240 116 202 125 169 142 c 1
 90 67 l 1
 4 153 l 1
 79 227 l 1
 60 260 49 300 49 342 c 0
 49 384 60 422 79 456 c 1
 4 532 l 1
 90 618 l 1
 167 541 l 1
 201 559 239 569 281 569 c 0
 323 569 362 559 395 541 c 1
 471 618 l 1
 557 532 l 1
 482 456 l 1
 501 423 512 384 512 342 c 0
281 256 m 0
 330 256 354 287 354 342 c 0
 354 396 330 426 281 426 c 0
 233 426 208 396 208 342 c 0
 208 287 233 256 281 256 c 0
EndSplineSet
EndChar

StartChar: uni00A5
Encoding: 165 165 100
Width: 601
Flags: W
LayerCount: 2
Fore
SplineSet
621 683 m 1
 455 359 l 1
 540 359 l 1
 540 255 l 1
 411 255 l 1
 411 203 l 1
 540 203 l 1
 540 99 l 1
 411 99 l 1
 411 0 l 1
 192 0 l 1
 192 99 l 1
 65 99 l 1
 65 203 l 1
 192 203 l 1
 192 255 l 1
 65 255 l 1
 65 359 l 1
 147 359 l 1
 -20 683 l 1
 213 683 l 1
 305 416 l 1
 394 683 l 1
 621 683 l 1
EndSplineSet
EndChar

StartChar: uni00A6
Encoding: 166 166 101
Width: 352
Flags: W
LayerCount: 2
Fore
SplineSet
280 813 m 1
 280 443 l 1
 71 443 l 1
 71 813 l 1
 280 813 l 1
280 262 m 1
 280 -108 l 1
 71 -108 l 1
 71 262 l 1
 280 262 l 1
EndSplineSet
EndChar

StartChar: uni00A7
Encoding: 167 167 102
Width: 565
Flags: W
LayerCount: 2
Fore
SplineSet
449 190 m 1
 491 163 506 131 506 77 c 0
 506 -22 412 -95 257 -95 c 0
 172 -95 98 -73 43 -36 c 1
 111 89 l 1
 156 64 199 51 239 51 c 0
 282 51 298 60 298 73 c 0
 298 92 292 102 184 134 c 0
 100 158 35 197 35 285 c 0
 35 344 73 384 117 410 c 1
 75 441 61 478 61 525 c 0
 61 621 148 700 304 700 c 0
 378 700 460 679 518 642 c 1
 449 522 l 1
 404 544 357 553 321 553 c 0
 282 553 269 545 269 530 c 0
 269 509 278 504 379 475 c 0
 464 451 530 413 530 320 c 0
 530 258 494 217 449 190 c 1
280 266 m 2
 332 246 l 1
 339 261 343 278 343 289 c 0
 343 311 325 327 255 348 c 2
 228 357 l 1
 223 342 222 328 222 318 c 0
 222 298 233 284 280 266 c 2
EndSplineSet
EndChar

StartChar: uni00A8
Encoding: 168 168 103
Width: 523
Flags: W
LayerCount: 2
Fore
SplineSet
132 831 m 0
 191 831 236 786 236 730 c 0
 236 673 191 628 132 628 c 0
 75 628 28 673 28 730 c 0
 28 786 75 831 132 831 c 0
386 831 m 0
 445 831 490 786 490 730 c 0
 490 673 445 628 386 628 c 0
 329 628 282 673 282 730 c 0
 282 786 329 831 386 831 c 0
EndSplineSet
EndChar

StartChar: uni00A9
Encoding: 169 169 104
Width: 810
Flags: W
LayerCount: 2
Fore
SplineSet
406 784 m 0
 608 784 768 639 768 430 c 0
 768 222 608 78 406 78 c 0
 205 78 42 222 42 430 c 0
 42 639 205 784 406 784 c 0
406 678 m 0
 267 678 165 579 165 430 c 0
 165 281 267 184 406 184 c 0
 544 184 646 281 646 430 c 0
 646 579 544 678 406 678 c 0
408 636 m 0
 459 636 516 613 553 575 c 1
 492 500 l 1
 465 521 449 522 427 522 c 0
 393 522 367 499 367 431 c 0
 367 361 390 339 423 339 c 0
 452 339 476 347 501 368 c 1
 557 286 l 1
 517 247 463 226 409 226 c 0
 290 226 217 299 217 431 c 0
 217 553 292 636 408 636 c 0
EndSplineSet
EndChar

StartChar: uni00AA
Encoding: 170 170 105
Width: 500
Flags: W
LayerCount: 2
Fore
SplineSet
29 390 m 0
 29 481 103 531 244 531 c 2
 260 531 l 1
 260 561 250 565 209 565 c 0
 188 565 143 557 100 545 c 1
 59 664 l 1
 114 685 188 698 238 698 c 0
 387 698 448 648 448 540 c 2
 448 425 l 2
 448 402 451 390 470 384 c 1
 431 262 l 1
 375 264 335 279 302 314 c 1
 271 272 221 258 173 258 c 0
 86 258 29 314 29 390 c 0
222 407 m 0
 222 399 226 392 240 392 c 0
 247 392 254 395 260 398 c 1
 260 435 l 1
 232 435 222 426 222 407 c 0
33 167 m 1
 472 167 l 1
 472 0 l 1
 33 0 l 1
 33 167 l 1
EndSplineSet
EndChar

StartChar: uni00AB
Encoding: 171 171 106
Width: 678
Flags: W
LayerCount: 2
Fore
SplineSet
221 577 m 1
 359 487 l 1
 236 282 l 1
 359 78 l 1
 221 -13 l 1
 17 214 l 1
 17 350 l 1
 221 577 l 1
523 577 m 1
 661 487 l 1
 538 282 l 1
 661 78 l 1
 523 -13 l 1
 319 214 l 1
 319 350 l 1
 523 577 l 1
EndSplineSet
EndChar

StartChar: uni00AC
Encoding: 172 172 107
Width: 559
Flags: W
LayerCount: 2
Fore
SplineSet
524 417 m 1
 524 85 l 1
 346 85 l 1
 346 250 l 1
 35 250 l 1
 35 417 l 1
 524 417 l 1
EndSplineSet
EndChar

StartChar: uni00AD
Encoding: 173 173 108
Width: 412
Flags: W
LayerCount: 2
Fore
SplineSet
29 230 m 1
 29 396 l 1
 382 396 l 1
 382 230 l 1
 29 230 l 1
EndSplineSet
EndChar

StartChar: uni00AE
Encoding: 174 174 109
Width: 634
Flags: W
LayerCount: 2
Fore
SplineSet
319 768 m 0
 489 768 613 651 613 476 c 0
 613 302 489 186 319 186 c 0
 147 186 22 303 22 476 c 0
 22 651 147 768 319 768 c 0
319 271 m 0
 433 271 512 347 512 476 c 0
 512 604 433 683 319 683 c 0
 204 683 122 605 122 476 c 0
 122 347 204 271 319 271 c 0
438 541 m 0
 438 506 416 479 385 463 c 1
 458 344 l 1
 361 344 l 1
 305 443 l 1
 288 443 l 1
 288 344 l 1
 202 344 l 1
 202 632 l 1
 293 632 l 2
 388 632 438 604 438 541 c 0
288 569 m 1
 288 515 l 1
 316 515 l 2
 333 515 349 523 349 545 c 0
 349 561 335 569 316 569 c 2
 288 569 l 1
EndSplineSet
EndChar

StartChar: uni00AF
Encoding: 175 175 110
Width: 399
Flags: W
LayerCount: 2
Fore
SplineSet
369 643 m 1
 30 643 l 1
 30 792 l 1
 369 792 l 1
 369 643 l 1
EndSplineSet
EndChar

StartChar: uni00B0
Encoding: 176 176 111
Width: 519
Flags: W
LayerCount: 2
Fore
SplineSet
217 357 m 0
 123 357 24 428 24 540 c 0
 24 653 123 719 217 719 c 0
 309 719 410 653 410 540 c 0
 410 428 309 357 217 357 c 0
217 479 m 0
 254 479 269 509 269 540 c 0
 269 572 254 601 217 601 c 0
 179 601 164 572 164 540 c 0
 164 509 179 479 217 479 c 0
EndSplineSet
EndChar

StartChar: uni00B1
Encoding: 177 177 112
Width: 560
Flags: W
LayerCount: 2
Fore
SplineSet
369 697 m 1
 369 535 l 1
 525 535 l 1
 525 368 l 1
 369 368 l 1
 369 206 l 1
 191 206 l 1
 191 368 l 1
 35 368 l 1
 35 535 l 1
 191 535 l 1
 191 697 l 1
 369 697 l 1
47 0 m 1
 47 167 l 1
 513 167 l 1
 513 0 l 1
 47 0 l 1
EndSplineSet
EndChar

StartChar: uni00B2
Encoding: 178 178 113
Width: 400
Flags: W
LayerCount: 2
Fore
SplineSet
194 758 m 0
 316 758 372 691 372 626 c 0
 372 573 353 533 216 437 c 1
 381 437 l 1
 366 320 l 1
 40 320 l 1
 40 426 l 1
 179 544 209 579 209 611 c 0
 209 631 197 643 174 643 c 0
 148 643 127 631 104 603 c 1
 18 671 l 1
 53 719 114 758 194 758 c 0
EndSplineSet
EndChar

StartChar: uni00B3
Encoding: 179 179 114
Width: 400
Flags: W
LayerCount: 2
Fore
SplineSet
200 757 m 0
 312 757 370 709 370 643 c 0
 370 602 344 562 270 544 c 1
 339 539 386 509 386 442 c 0
 386 371 324 305 192 305 c 0
 106 305 50 337 14 380 c 1
 99 461 l 1
 124 434 147 423 180 423 c 0
 201 423 222 429 222 453 c 0
 222 477 208 490 170 490 c 2
 128 490 l 1
 146 593 l 1
 175 593 l 2
 209 593 217 603 217 618 c 0
 217 636 201 644 177 644 c 0
 148 644 119 631 97 611 c 1
 20 690 l 1
 65 733 127 757 200 757 c 0
EndSplineSet
EndChar

StartChar: uni00B4
Encoding: 180 180 115
Width: 379
Flags: W
LayerCount: 2
Fore
SplineSet
267 869 m 1
 349 709 l 1
 89 607 l 1
 30 718 l 1
 267 869 l 1
EndSplineSet
EndChar

StartChar: uni00B5
Encoding: 181 181 116
Width: 578
Flags: W
LayerCount: 2
Fore
SplineSet
561 0 m 1
 359 -22 l 1
 348 0 344 17 337 50 c 1
 311 8 284 -5 258 -5 c 0
 232 -5 204 -1 177 29 c 1
 211 -17 238 -53 238 -130 c 2
 238 -209 l 1
 31 -229 l 1
 31 536 l 1
 253 536 l 1
 253 177 l 2
 253 151 263 145 275 145 c 0
 287 145 303 154 317 177 c 1
 317 536 l 1
 539 536 l 1
 539 185 l 2
 539 102 550 40 561 0 c 1
EndSplineSet
EndChar

StartChar: uni00B6
Encoding: 182 182 117
Width: 839
Flags: W
LayerCount: 2
Fore
SplineSet
321 698 m 2
 748 698 l 1
 748 -207 l 1
 556 -230 l 1
 556 550 l 1
 486 550 l 1
 486 -207 l 1
 294 -230 l 1
 294 245 l 1
 132 246 41 337 41 470 c 0
 41 609 141 698 321 698 c 2
EndSplineSet
EndChar

StartChar: uni00B7
Encoding: 183 183 118
Width: 245
Flags: W
LayerCount: 2
Fore
SplineSet
122 416 m 0
 184 416 234 365 234 304 c 0
 234 243 184 192 122 192 c 0
 61 192 10 243 10 304 c 0
 10 365 61 416 122 416 c 0
EndSplineSet
EndChar

StartChar: uni00B8
Encoding: 184 184 119
Width: 367
Flags: W
LayerCount: 2
Fore
SplineSet
223 16 m 1
 223 -39 l 1
 298 -49 337 -87 337 -153 c 0
 337 -224 276 -283 163 -283 c 0
 108 -283 60 -266 30 -247 c 1
 77 -152 l 1
 98 -164 118 -171 142 -171 c 0
 169 -171 185 -166 185 -151 c 0
 185 -130 156 -124 90 -124 c 1
 108 16 l 1
 223 16 l 1
EndSplineSet
EndChar

StartChar: uni00B9
Encoding: 185 185 120
Width: 400
Flags: W
LayerCount: 2
Fore
SplineSet
325 746 m 1
 325 320 l 1
 170 320 l 1
 170 603 l 1
 84 548 l 1
 14 650 l 1
 181 746 l 1
 325 746 l 1
EndSplineSet
EndChar

StartChar: uni00BA
Encoding: 186 186 121
Width: 500
Flags: W
LayerCount: 2
Fore
SplineSet
250 698 m 0
 391 698 484 623 484 476 c 0
 484 342 395 258 251 258 c 0
 110 258 18 332 18 479 c 0
 18 613 108 698 250 698 c 0
250 563 m 0
 223 563 214 539 214 479 c 0
 214 413 223 392 251 392 c 0
 278 392 287 416 287 476 c 0
 287 543 278 563 250 563 c 0
17 0 m 1
 17 167 l 1
 483 167 l 1
 483 0 l 1
 17 0 l 1
EndSplineSet
EndChar

StartChar: uni00BB
Encoding: 187 187 122
Width: 681
Flags: W
LayerCount: 2
Fore
SplineSet
155 577 m 1
 359 350 l 1
 359 214 l 1
 155 -13 l 1
 17 78 l 1
 140 282 l 1
 17 487 l 1
 155 577 l 1
460 577 m 1
 664 350 l 1
 664 214 l 1
 460 -13 l 1
 322 78 l 1
 445 282 l 1
 322 487 l 1
 460 577 l 1
EndSplineSet
EndChar

StartChar: uni00BC
Encoding: 188 188 123
Width: 1004
Flags: W
LayerCount: 2
Fore
SplineSet
648 767 m 1
 771 706 l 1
 356 -93 l 1
 233 -32 l 1
 648 767 l 1
325 272 m 1
 170 272 l 1
 170 555 l 1
 84 500 l 1
 14 602 l 1
 181 698 l 1
 325 698 l 1
 325 272 l 1
996 185 m 1
 996 73 l 1
 955 73 l 1
 955 0 l 1
 808 0 l 1
 808 73 l 1
 611 73 l 1
 611 175 l 1
 726 437 l 1
 858 390 l 1
 772 185 l 1
 810 185 l 1
 843 268 l 1
 955 268 l 1
 955 185 l 1
 996 185 l 1
EndSplineSet
EndChar

StartChar: uni00BD
Encoding: 189 189 124
Width: 1004
Flags: W
LayerCount: 2
Fore
SplineSet
648 767 m 1
 771 706 l 1
 356 -93 l 1
 233 -32 l 1
 648 767 l 1
325 698 m 1
 325 272 l 1
 170 272 l 1
 170 555 l 1
 84 500 l 1
 14 602 l 1
 181 698 l 1
 325 698 l 1
798 438 m 0
 920 438 976 371 976 306 c 0
 976 253 957 213 820 117 c 1
 985 117 l 1
 970 0 l 1
 644 0 l 1
 644 106 l 1
 783 224 813 259 813 291 c 0
 813 311 801 323 778 323 c 0
 752 323 731 311 708 283 c 1
 622 351 l 1
 657 399 718 438 798 438 c 0
EndSplineSet
EndChar

StartChar: uni00BE
Encoding: 190 190 125
Width: 1004
Flags: W
LayerCount: 2
Fore
SplineSet
648 767 m 1
 771 706 l 1
 356 -93 l 1
 233 -32 l 1
 648 767 l 1
386 394 m 0
 386 323 324 257 192 257 c 0
 106 257 50 289 14 332 c 1
 99 413 l 1
 124 386 147 375 180 375 c 0
 201 375 222 381 222 405 c 0
 222 429 208 442 170 442 c 2
 128 442 l 1
 146 545 l 1
 175 545 l 2
 209 545 217 555 217 570 c 0
 217 588 201 596 177 596 c 0
 148 596 119 583 97 563 c 1
 20 642 l 1
 65 685 127 709 200 709 c 0
 312 709 370 661 370 595 c 0
 370 554 344 514 270 496 c 1
 339 491 386 461 386 394 c 0
996 185 m 1
 996 73 l 1
 955 73 l 1
 955 0 l 1
 808 0 l 1
 808 73 l 1
 611 73 l 1
 611 175 l 1
 726 437 l 1
 858 390 l 1
 772 185 l 1
 810 185 l 1
 843 268 l 1
 955 268 l 1
 955 185 l 1
 996 185 l 1
EndSplineSet
EndChar

StartChar: uni00BF
Encoding: 191 191 126
Width: 503
Flags: W
LayerCount: 2
Fore
SplineSet
275 301 m 0
 213 301 163 352 163 413 c 0
 163 474 213 525 275 525 c 0
 337 525 387 474 387 413 c 0
 387 352 337 301 275 301 c 0
246 -230 m 0
 80 -230 -1 -149 -1 -51 c 0
 -1 115 177 111 177 206 c 2
 177 225 l 1
 374 225 l 1
 374 200 l 2
 374 21 231 27 231 -29 c 0
 231 -49 244 -59 271 -59 c 0
 302 -59 336 -40 367 -8 c 1
 504 -115 l 1
 448 -182 367 -230 246 -230 c 0
EndSplineSet
EndChar

StartChar: uni00C0
Encoding: 192 192 127
Width: 607
Flags: W
LayerCount: 2
Fore
SplineSet
225 1000 m 1
 465 858 l 1
 409 747 l 1
 146 841 l 1
 225 1000 l 1
395 0 m 1
 373 126 l 1
 231 126 l 1
 210 0 l 1
 -32 0 l 1
 167 698 l 1
 442 698 l 1
 639 0 l 1
 395 0 l 1
258 286 m 1
 345 286 l 1
 301 538 l 1
 258 286 l 1
EndSplineSet
EndChar

StartChar: uni00C1
Encoding: 193 193 128
Width: 607
Flags: W
LayerCount: 2
Fore
SplineSet
464 841 m 1
 201 747 l 1
 145 858 l 1
 387 1000 l 1
 464 841 l 1
395 0 m 1
 373 126 l 1
 231 126 l 1
 210 0 l 1
 -32 0 l 1
 167 698 l 1
 442 698 l 1
 639 0 l 1
 395 0 l 1
258 286 m 1
 345 286 l 1
 301 538 l 1
 258 286 l 1
EndSplineSet
EndChar

StartChar: uni00C2
Encoding: 194 194 129
Width: 607
Flags: W
LayerCount: 2
Fore
SplineSet
165 750 m 1
 91 835 l 1
 238 983 l 1
 370 983 l 1
 518 835 l 1
 444 750 l 1
 304 837 l 1
 165 750 l 1
395 0 m 1
 373 126 l 1
 231 126 l 1
 210 0 l 1
 -32 0 l 1
 167 698 l 1
 442 698 l 1
 639 0 l 1
 395 0 l 1
258 286 m 1
 345 286 l 1
 301 538 l 1
 258 286 l 1
EndSplineSet
EndChar

StartChar: uni00C3
Encoding: 195 195 130
Width: 607
Flags: W
LayerCount: 2
Fore
SplineSet
362 740 m 0
 334 740 318 745 297 761 c 0
 276 775 267 783 250 783 c 0
 225 783 213 768 198 740 c 1
 95 789 l 1
 122 868 174 936 244 936 c 0
 277 936 294 929 315 915 c 0
 335 901 346 894 360 894 c 0
 385 894 396 909 411 937 c 1
 514 888 l 1
 488 811 436 740 362 740 c 0
395 0 m 1
 373 126 l 1
 231 126 l 1
 210 0 l 1
 -32 0 l 1
 167 698 l 1
 442 698 l 1
 639 0 l 1
 395 0 l 1
258 286 m 1
 345 286 l 1
 301 538 l 1
 258 286 l 1
EndSplineSet
EndChar

StartChar: uni00C4
Encoding: 196 196 131
Width: 607
Flags: W
LayerCount: 2
Fore
SplineSet
174 957 m 0
 233 957 279 912 279 856 c 0
 279 799 233 754 174 754 c 0
 117 754 70 799 70 856 c 0
 70 912 117 957 174 957 c 0
429 957 m 0
 488 957 533 912 533 856 c 0
 533 799 488 754 429 754 c 0
 372 754 324 799 324 856 c 0
 324 912 372 957 429 957 c 0
395 0 m 1
 373 126 l 1
 231 126 l 1
 210 0 l 1
 -32 0 l 1
 167 698 l 1
 442 698 l 1
 639 0 l 1
 395 0 l 1
258 286 m 1
 345 286 l 1
 301 538 l 1
 258 286 l 1
EndSplineSet
EndChar

StartChar: uni00C5
Encoding: 197 197 132
Width: 607
Flags: W
LayerCount: 2
Fore
SplineSet
304 1023 m 0
 408 1023 468 950 468 868 c 0
 468 786 408 712 304 712 c 0
 201 712 141 786 141 868 c 0
 141 950 201 1023 304 1023 c 0
304 912 m 0
 284 912 267 900 267 868 c 0
 267 837 284 824 304 824 c 0
 325 824 342 837 342 868 c 0
 342 900 325 912 304 912 c 0
395 0 m 1
 373 126 l 1
 231 126 l 1
 210 0 l 1
 -32 0 l 1
 167 698 l 1
 442 698 l 1
 639 0 l 1
 395 0 l 1
258 286 m 1
 345 286 l 1
 301 538 l 1
 258 286 l 1
EndSplineSet
EndChar

StartChar: uni00C6
Encoding: 198 198 133
Width: 876
Flags: W
LayerCount: 2
Fore
SplineSet
627 160 m 1
 861 160 l 1
 861 0 l 1
 432 0 l 1
 418 127 l 1
 254 127 l 1
 217 0 l 1
 -35 0 l 1
 236 698 l 1
 828 698 l 1
 805 539 l 1
 571 539 l 1
 587 428 l 1
 819 428 l 1
 819 274 l 1
 610 274 l 1
 627 160 l 1
300 286 m 1
 400 286 l 1
 372 534 l 1
 300 286 l 1
EndSplineSet
EndChar

StartChar: uni00C7
Encoding: 199 199 134
Width: 590
Flags: W
LayerCount: 2
Fore
SplineSet
392 -39 m 1
 467 -49 506 -87 506 -153 c 0
 506 -224 445 -283 332 -283 c 0
 277 -283 229 -266 199 -247 c 1
 246 -152 l 1
 267 -164 287 -171 311 -171 c 0
 338 -171 354 -166 354 -151 c 0
 354 -130 325 -124 259 -124 c 1
 273 -14 l 1
 111 16 12 142 12 351 c 0
 12 583 151 719 354 719 c 0
 448 719 524 688 586 634 c 1
 480 510 l 1
 446 535 409 555 365 555 c 0
 291 555 252 486 252 351 c 0
 252 215 292 151 369 151 c 0
 414 151 451 173 494 207 c 1
 594 80 l 1
 547 33 476 -10 392 -20 c 1
 392 -39 l 1
EndSplineSet
EndChar

StartChar: uni00C8
Encoding: 200 200 135
Width: 521
Flags: W
LayerCount: 2
Fore
SplineSet
189 1000 m 1
 429 858 l 1
 373 747 l 1
 110 841 l 1
 189 1000 l 1
507 698 m 1
 484 539 l 1
 262 539 l 1
 262 431 l 1
 457 431 l 1
 457 276 l 1
 262 276 l 1
 262 160 l 1
 500 160 l 1
 500 0 l 1
 31 0 l 1
 31 698 l 1
 507 698 l 1
EndSplineSet
EndChar

StartChar: uni00C9
Encoding: 201 201 136
Width: 521
Flags: W
LayerCount: 2
Fore
SplineSet
351 1000 m 1
 428 841 l 1
 165 747 l 1
 109 858 l 1
 351 1000 l 1
507 698 m 1
 484 539 l 1
 262 539 l 1
 262 431 l 1
 457 431 l 1
 457 276 l 1
 262 276 l 1
 262 160 l 1
 500 160 l 1
 500 0 l 1
 31 0 l 1
 31 698 l 1
 507 698 l 1
EndSplineSet
EndChar

StartChar: uni00CA
Encoding: 202 202 137
Width: 521
Flags: W
LayerCount: 2
Fore
SplineSet
130 750 m 1
 56 835 l 1
 203 983 l 1
 335 983 l 1
 483 835 l 1
 409 750 l 1
 269 837 l 1
 130 750 l 1
507 698 m 1
 484 539 l 1
 262 539 l 1
 262 431 l 1
 457 431 l 1
 457 276 l 1
 262 276 l 1
 262 160 l 1
 500 160 l 1
 500 0 l 1
 31 0 l 1
 31 698 l 1
 507 698 l 1
EndSplineSet
EndChar

StartChar: uni00CB
Encoding: 203 203 138
Width: 521
Flags: W
LayerCount: 2
Fore
SplineSet
139 957 m 0
 198 957 244 912 244 856 c 0
 244 799 198 754 139 754 c 0
 82 754 35 799 35 856 c 0
 35 912 82 957 139 957 c 0
394 957 m 0
 453 957 498 912 498 856 c 0
 498 799 453 754 394 754 c 0
 337 754 289 799 289 856 c 0
 289 912 337 957 394 957 c 0
507 698 m 1
 484 539 l 1
 262 539 l 1
 262 431 l 1
 457 431 l 1
 457 276 l 1
 262 276 l 1
 262 160 l 1
 500 160 l 1
 500 0 l 1
 31 0 l 1
 31 698 l 1
 507 698 l 1
EndSplineSet
EndChar

StartChar: uni00CC
Encoding: 204 204 139
Width: 293
Flags: W
LayerCount: 2
Fore
SplineSet
67 1000 m 1
 307 858 l 1
 251 747 l 1
 -12 841 l 1
 67 1000 l 1
262 698 m 1
 262 0 l 1
 31 0 l 1
 31 698 l 1
 262 698 l 1
EndSplineSet
EndChar

StartChar: uni00CD
Encoding: 205 205 140
Width: 293
Flags: W
LayerCount: 2
Fore
SplineSet
229 1000 m 1
 306 841 l 1
 43 747 l 1
 -13 858 l 1
 229 1000 l 1
262 698 m 1
 262 0 l 1
 31 0 l 1
 31 698 l 1
 262 698 l 1
EndSplineSet
EndChar

StartChar: uni00CE
Encoding: 206 206 141
Width: 293
Flags: W
LayerCount: 2
Fore
SplineSet
7 750 m 1
 -67 835 l 1
 80 983 l 1
 212 983 l 1
 360 835 l 1
 286 750 l 1
 146 837 l 1
 7 750 l 1
262 698 m 1
 262 0 l 1
 31 0 l 1
 31 698 l 1
 262 698 l 1
EndSplineSet
EndChar

StartChar: uni00CF
Encoding: 207 207 142
Width: 293
Flags: W
LayerCount: 2
Fore
SplineSet
16 957 m 0
 75 957 121 912 121 856 c 0
 121 799 75 754 16 754 c 0
 -41 754 -88 799 -88 856 c 0
 -88 912 -41 957 16 957 c 0
271 957 m 0
 330 957 375 912 375 856 c 0
 375 799 330 754 271 754 c 0
 214 754 166 799 166 856 c 0
 166 912 214 957 271 957 c 0
262 698 m 1
 262 0 l 1
 31 0 l 1
 31 698 l 1
 262 698 l 1
EndSplineSet
EndChar

StartChar: uni00D0
Encoding: 208 208 143
Width: 676
Flags: W
LayerCount: 2
Fore
SplineSet
286 698 m 2
 482 698 664 638 664 352 c 0
 664 75 501 0 298 0 c 2
 48 0 l 1
 48 289 l 1
 8 289 l 1
 8 417 l 1
 48 417 l 1
 48 698 l 1
 286 698 l 2
311 161 m 2
 400 161 427 209 427 352 c 0
 427 493 396 537 314 537 c 2
 279 537 l 1
 279 417 l 1
 391 417 l 1
 391 289 l 1
 279 289 l 1
 279 161 l 1
 311 161 l 2
EndSplineSet
EndChar

StartChar: uni00D1
Encoding: 209 209 144
Width: 647
Flags: W
LayerCount: 2
Fore
SplineSet
380 740 m 0
 352 740 336 745 315 761 c 0
 294 775 285 783 268 783 c 0
 243 783 231 768 216 740 c 1
 113 789 l 1
 140 868 192 936 262 936 c 0
 295 936 312 929 333 915 c 0
 353 901 364 894 378 894 c 0
 403 894 414 909 429 937 c 1
 532 888 l 1
 506 811 454 740 380 740 c 0
616 698 m 1
 616 0 l 1
 327 0 l 1
 204 489 l 1
 215 419 235 318 235 188 c 2
 235 0 l 1
 31 0 l 1
 31 698 l 1
 314 698 l 1
 444 206 l 1
 429 297 412 375 412 508 c 2
 412 698 l 1
 616 698 l 1
EndSplineSet
EndChar

StartChar: uni00D2
Encoding: 210 210 145
Width: 690
Flags: W
LayerCount: 2
Fore
SplineSet
265 1000 m 1
 505 858 l 1
 449 747 l 1
 186 841 l 1
 265 1000 l 1
345 719 m 0
 561 719 678 581 678 350 c 0
 678 124 561 -22 345 -22 c 0
 128 -22 12 119 12 350 c 0
 12 576 128 719 345 719 c 0
345 557 m 0
 276 557 252 503 252 350 c 0
 252 197 275 140 345 140 c 0
 416 140 438 197 438 350 c 0
 438 503 414 557 345 557 c 0
EndSplineSet
EndChar

StartChar: uni00D3
Encoding: 211 211 146
Width: 690
Flags: W
LayerCount: 2
Fore
SplineSet
427 1000 m 1
 504 841 l 1
 241 747 l 1
 185 858 l 1
 427 1000 l 1
345 719 m 0
 561 719 678 581 678 350 c 0
 678 124 561 -22 345 -22 c 0
 128 -22 12 119 12 350 c 0
 12 576 128 719 345 719 c 0
345 557 m 0
 276 557 252 503 252 350 c 0
 252 197 275 140 345 140 c 0
 416 140 438 197 438 350 c 0
 438 503 414 557 345 557 c 0
EndSplineSet
EndChar

StartChar: uni00D4
Encoding: 212 212 147
Width: 690
Flags: W
LayerCount: 2
Fore
SplineSet
206 750 m 1
 132 835 l 1
 279 983 l 1
 411 983 l 1
 559 835 l 1
 485 750 l 1
 345 837 l 1
 206 750 l 1
345 719 m 0
 561 719 678 581 678 350 c 0
 678 124 561 -22 345 -22 c 0
 128 -22 12 119 12 350 c 0
 12 576 128 719 345 719 c 0
345 557 m 0
 276 557 252 503 252 350 c 0
 252 197 275 140 345 140 c 0
 416 140 438 197 438 350 c 0
 438 503 414 557 345 557 c 0
EndSplineSet
EndChar

StartChar: uni00D5
Encoding: 213 213 148
Width: 690
Flags: W
LayerCount: 2
Fore
SplineSet
402 740 m 0
 374 740 358 745 337 761 c 0
 316 775 307 783 290 783 c 0
 265 783 253 768 238 740 c 1
 135 789 l 1
 162 868 214 936 284 936 c 0
 317 936 334 929 355 915 c 0
 375 901 386 894 400 894 c 0
 425 894 436 909 451 937 c 1
 554 888 l 1
 528 811 476 740 402 740 c 0
345 719 m 0
 561 719 678 581 678 350 c 0
 678 124 561 -22 345 -22 c 0
 128 -22 12 119 12 350 c 0
 12 576 128 719 345 719 c 0
345 557 m 0
 276 557 252 503 252 350 c 0
 252 197 275 140 345 140 c 0
 416 140 438 197 438 350 c 0
 438 503 414 557 345 557 c 0
EndSplineSet
EndChar

StartChar: uni00D6
Encoding: 214 214 149
Width: 690
Flags: W
LayerCount: 2
Fore
SplineSet
215 957 m 0
 274 957 320 912 320 856 c 0
 320 799 274 754 215 754 c 0
 158 754 111 799 111 856 c 0
 111 912 158 957 215 957 c 0
470 957 m 0
 529 957 574 912 574 856 c 0
 574 799 529 754 470 754 c 0
 413 754 365 799 365 856 c 0
 365 912 413 957 470 957 c 0
345 719 m 0
 561 719 678 581 678 350 c 0
 678 124 561 -22 345 -22 c 0
 128 -22 12 119 12 350 c 0
 12 576 128 719 345 719 c 0
345 557 m 0
 276 557 252 503 252 350 c 0
 252 197 275 140 345 140 c 0
 416 140 438 197 438 350 c 0
 438 503 414 557 345 557 c 0
EndSplineSet
EndChar

StartChar: uni00D7
Encoding: 215 215 150
Width: 536
Flags: W
LayerCount: 2
Fore
SplineSet
379 534 m 1
 497 416 l 1
 385 309 l 1
 497 195 l 1
 379 77 l 1
 270 195 l 1
 157 77 l 1
 40 195 l 1
 151 303 l 1
 40 416 l 1
 157 534 l 1
 265 417 l 1
 379 534 l 1
EndSplineSet
EndChar

StartChar: uni00D8
Encoding: 216 216 151
Width: 690
Flags: W
LayerCount: 2
Fore
SplineSet
542 666 m 1
 631 605 678 496 678 350 c 0
 678 124 561 -22 345 -22 c 0
 334 -22 323 -22 313 -21 c 1
 275 -142 l 1
 108 -98 l 1
 148 32 l 1
 59 93 12 204 12 350 c 0
 12 576 128 719 345 719 c 0
 356 719 366 719 377 718 c 1
 415 837 l 1
 581 792 l 1
 542 666 l 1
345 557 m 2
 276 557 252 503 252 350 c 0
 252 300 254 262 257 232 c 1
 355 557 l 1
 345 557 l 2
345 140 m 2
 416 140 438 197 438 350 c 0
 438 397 437 433 433 462 c 1
 336 140 l 1
 345 140 l 2
EndSplineSet
EndChar

StartChar: uni00D9
Encoding: 217 217 152
Width: 642
Flags: W
LayerCount: 2
Fore
SplineSet
242 1000 m 1
 482 858 l 1
 426 747 l 1
 163 841 l 1
 242 1000 l 1
621 698 m 1
 621 240 l 2
 621 96 525 -22 321 -22 c 0
 117 -22 21 84 21 240 c 2
 21 698 l 1
 252 698 l 1
 252 246 l 2
 252 175 270 143 321 143 c 0
 372 143 390 175 390 246 c 2
 390 698 l 1
 621 698 l 1
EndSplineSet
EndChar

StartChar: uni00DA
Encoding: 218 218 153
Width: 642
Flags: W
LayerCount: 2
Fore
SplineSet
403 1000 m 1
 480 841 l 1
 217 747 l 1
 161 858 l 1
 403 1000 l 1
621 698 m 1
 621 240 l 2
 621 96 525 -22 321 -22 c 0
 117 -22 21 84 21 240 c 2
 21 698 l 1
 252 698 l 1
 252 246 l 2
 252 175 270 143 321 143 c 0
 372 143 390 175 390 246 c 2
 390 698 l 1
 621 698 l 1
EndSplineSet
EndChar

StartChar: uni00DB
Encoding: 219 219 154
Width: 642
Flags: W
LayerCount: 2
Fore
SplineSet
182 750 m 1
 108 835 l 1
 255 983 l 1
 387 983 l 1
 535 835 l 1
 461 750 l 1
 321 837 l 1
 182 750 l 1
621 698 m 1
 621 240 l 2
 621 96 525 -22 321 -22 c 0
 117 -22 21 84 21 240 c 2
 21 698 l 1
 252 698 l 1
 252 246 l 2
 252 175 270 143 321 143 c 0
 372 143 390 175 390 246 c 2
 390 698 l 1
 621 698 l 1
EndSplineSet
EndChar

StartChar: uni00DC
Encoding: 220 220 155
Width: 642
Flags: W
LayerCount: 2
Fore
SplineSet
191 957 m 0
 250 957 296 912 296 856 c 0
 296 799 250 754 191 754 c 0
 134 754 87 799 87 856 c 0
 87 912 134 957 191 957 c 0
446 957 m 0
 505 957 550 912 550 856 c 0
 550 799 505 754 446 754 c 0
 389 754 341 799 341 856 c 0
 341 912 389 957 446 957 c 0
621 698 m 1
 621 240 l 2
 621 96 525 -22 321 -22 c 0
 117 -22 21 84 21 240 c 2
 21 698 l 1
 252 698 l 1
 252 246 l 2
 252 175 270 143 321 143 c 0
 372 143 390 175 390 246 c 2
 390 698 l 1
 621 698 l 1
EndSplineSet
EndChar

StartChar: uni00DD
Encoding: 221 221 156
Width: 637
Flags: W
LayerCount: 2
Fore
SplineSet
401 1000 m 1
 478 841 l 1
 215 747 l 1
 159 858 l 1
 401 1000 l 1
656 698 m 1
 434 255 l 1
 434 0 l 1
 203 0 l 1
 203 254 l 1
 -20 698 l 1
 232 698 l 1
 321 427 l 1
 412 698 l 1
 656 698 l 1
EndSplineSet
EndChar

StartChar: uni00DE
Encoding: 222 222 157
Width: 618
Flags: W
LayerCount: 2
Fore
SplineSet
298 598 m 2
 489 598 608 518 608 358 c 0
 608 187 493 101 325 101 c 2
 262 101 l 1
 262 0 l 1
 31 0 l 1
 31 698 l 1
 262 698 l 1
 262 598 l 1
 298 598 l 2
302 262 m 2
 350 262 373 294 373 359 c 0
 373 406 354 439 294 439 c 2
 262 439 l 1
 262 262 l 1
 302 262 l 2
EndSplineSet
EndChar

StartChar: uni00DF
Encoding: 223 223 158
Width: 620
Flags: W
LayerCount: 2
Fore
SplineSet
300 767 m 0
 457 767 533 691 533 611 c 0
 533 518 443 490 443 436 c 0
 443 369 622 347 622 170 c 0
 622 48 528 -22 397 -22 c 0
 350 -22 298 -9 262 9 c 1
 328 157 l 1
 343 149 355 147 366 147 c 0
 385 147 392 156 392 175 c 0
 392 260 257 255 257 392 c 0
 257 506 325 500 325 578 c 0
 325 600 317 618 294 618 c 0
 262 618 253 587 253 537 c 2
 253 0 l 1
 31 0 l 1
 31 528 l 2
 31 675 123 767 300 767 c 0
EndSplineSet
EndChar

StartChar: uni00E0
Encoding: 224 224 159
Width: 554
Flags: W
LayerCount: 2
Fore
SplineSet
214 869 m 1
 451 718 l 1
 392 607 l 1
 132 709 l 1
 214 869 l 1
517 183 m 2
 517 148 524 134 547 125 c 1
 503 -17 l 1
 430 -13 382 5 348 55 c 1
 309 -4 247 -22 187 -22 c 0
 79 -22 9 51 9 151 c 0
 9 270 100 336 274 336 c 2
 301 336 l 1
 301 343 l 2
 301 392 286 402 232 402 c 0
 203 402 148 392 94 374 c 1
 47 514 l 1
 115 542 204 557 265 557 c 0
 444 557 517 492 517 355 c 2
 517 183 l 2
257 133 m 0
 275 133 291 143 301 156 c 1
 301 223 l 1
 292 223 l 2
 245 223 224 208 224 173 c 0
 224 150 237 133 257 133 c 0
EndSplineSet
EndChar

StartChar: uni00E1
Encoding: 225 225 160
Width: 554
Flags: W
LayerCount: 2
Fore
SplineSet
430 709 m 1
 170 607 l 1
 111 718 l 1
 348 869 l 1
 430 709 l 1
517 183 m 2
 517 148 524 134 547 125 c 1
 503 -17 l 1
 431 -13 382 4 348 55 c 1
 308 -4 247 -22 187 -22 c 0
 79 -22 9 51 9 151 c 0
 9 270 100 336 274 336 c 2
 301 336 l 1
 301 343 l 2
 301 392 286 402 232 402 c 0
 203 402 148 392 94 374 c 1
 47 514 l 1
 115 542 204 557 265 557 c 0
 444 557 517 492 517 355 c 2
 517 183 l 2
257 133 m 0
 275 133 291 143 301 155 c 1
 301 223 l 1
 292 223 l 2
 245 223 224 208 224 173 c 0
 224 150 237 133 257 133 c 0
EndSplineSet
EndChar

StartChar: uni00E2
Encoding: 226 226 161
Width: 554
Flags: W
LayerCount: 2
Fore
SplineSet
142 607 m 1
 68 692 l 1
 216 850 l 1
 347 850 l 1
 495 692 l 1
 421 607 l 1
 282 705 l 1
 142 607 l 1
517 183 m 2
 517 148 524 134 547 125 c 1
 503 -17 l 1
 430 -13 382 5 348 55 c 1
 309 -4 247 -22 187 -22 c 0
 79 -22 9 51 9 151 c 0
 9 270 100 336 274 336 c 2
 301 336 l 1
 301 343 l 2
 301 392 286 402 232 402 c 0
 203 402 148 392 94 374 c 1
 47 514 l 1
 115 542 204 557 265 557 c 0
 444 557 517 492 517 355 c 2
 517 183 l 2
257 133 m 0
 275 133 291 143 301 156 c 1
 301 223 l 1
 292 223 l 2
 245 223 224 208 224 173 c 0
 224 150 237 133 257 133 c 0
EndSplineSet
EndChar

StartChar: uni00E3
Encoding: 227 227 162
Width: 554
Flags: W
LayerCount: 2
Fore
SplineSet
339 614 m 0
 311 614 295 619 274 635 c 0
 253 649 244 657 227 657 c 0
 202 657 190 642 175 614 c 1
 72 663 l 1
 99 742 151 810 221 810 c 0
 254 810 271 803 292 789 c 0
 312 775 323 768 337 768 c 0
 362 768 373 783 388 811 c 1
 491 762 l 1
 465 685 413 614 339 614 c 0
517 183 m 2
 517 148 524 134 547 125 c 1
 503 -17 l 1
 430 -13 382 5 348 55 c 1
 309 -4 247 -22 187 -22 c 0
 79 -22 9 51 9 151 c 0
 9 270 100 336 274 336 c 2
 301 336 l 1
 301 343 l 2
 301 392 286 402 232 402 c 0
 203 402 148 392 94 374 c 1
 47 514 l 1
 115 542 204 557 265 557 c 0
 444 557 517 492 517 355 c 2
 517 183 l 2
257 133 m 0
 275 133 291 143 301 156 c 1
 301 223 l 1
 292 223 l 2
 245 223 224 208 224 173 c 0
 224 150 237 133 257 133 c 0
EndSplineSet
EndChar

StartChar: uni00E4
Encoding: 228 228 163
Width: 554
Flags: W
LayerCount: 2
Fore
SplineSet
153 831 m 0
 212 831 258 786 258 730 c 0
 258 673 212 628 153 628 c 0
 96 628 49 673 49 730 c 0
 49 786 96 831 153 831 c 0
408 831 m 0
 467 831 512 786 512 730 c 0
 512 673 467 628 408 628 c 0
 351 628 303 673 303 730 c 0
 303 786 351 831 408 831 c 0
517 183 m 2
 517 148 524 134 547 125 c 1
 503 -17 l 1
 430 -13 382 5 348 55 c 1
 309 -4 247 -22 187 -22 c 0
 79 -22 9 51 9 151 c 0
 9 270 100 336 274 336 c 2
 301 336 l 1
 301 343 l 2
 301 392 286 402 232 402 c 0
 203 402 148 392 94 374 c 1
 47 514 l 1
 115 542 204 557 265 557 c 0
 444 557 517 492 517 355 c 2
 517 183 l 2
257 133 m 0
 275 133 291 143 301 156 c 1
 301 223 l 1
 292 223 l 2
 245 223 224 208 224 173 c 0
 224 150 237 133 257 133 c 0
EndSplineSet
EndChar

StartChar: uni00E5
Encoding: 229 229 164
Width: 554
Flags: W
LayerCount: 2
Fore
SplineSet
281 897 m 0
 385 897 445 824 445 742 c 0
 445 660 385 586 281 586 c 0
 178 586 118 660 118 742 c 0
 118 824 178 897 281 897 c 0
281 786 m 0
 261 786 244 774 244 742 c 0
 244 711 261 698 281 698 c 0
 302 698 319 711 319 742 c 0
 319 774 302 786 281 786 c 0
517 183 m 2
 517 148 524 134 547 125 c 1
 503 -17 l 1
 430 -13 382 5 348 55 c 1
 309 -4 247 -22 187 -22 c 0
 79 -22 9 51 9 151 c 0
 9 270 100 336 274 336 c 2
 301 336 l 1
 301 343 l 2
 301 392 286 402 232 402 c 0
 203 402 148 392 94 374 c 1
 47 514 l 1
 115 542 204 557 265 557 c 0
 444 557 517 492 517 355 c 2
 517 183 l 2
257 133 m 0
 275 133 291 143 301 156 c 1
 301 223 l 1
 292 223 l 2
 245 223 224 208 224 173 c 0
 224 150 237 133 257 133 c 0
EndSplineSet
EndChar

StartChar: uni00E6
Encoding: 230 230 165
Width: 866
Flags: W
LayerCount: 2
Fore
SplineSet
858 273 m 0
 858 256 856 227 854 206 c 1
 535 206 l 1
 545 142 580 134 632 134 c 0
 666 134 703 149 749 180 c 1
 838 60 l 1
 785 17 707 -22 610 -22 c 0
 506 -22 429 13 380 64 c 1
 334 -2 261 -22 192 -22 c 0
 78 -22 9 51 9 151 c 0
 9 270 100 336 283 336 c 2
 310 336 l 1
 310 340 l 2
 310 389 295 400 241 400 c 0
 212 400 157 390 104 372 c 1
 56 514 l 1
 124 542 213 557 275 557 c 0
 354 557 405 535 441 500 c 1
 482 535 534 557 604 557 c 0
 747 557 858 456 858 273 c 0
640 329 m 1
 640 335 l 2
 639 379 634 420 590 420 c 0
 555 420 538 400 533 329 c 1
 640 329 l 1
270 133 m 0
 293 133 307 151 322 170 c 1
 318 184 316 198 315 213 c 2
 315 217 l 1
 304 217 l 2
 260 217 239 205 239 168 c 0
 239 149 250 133 270 133 c 0
EndSplineSet
EndChar

StartChar: uni00E7
Encoding: 231 231 166
Width: 480
Flags: W
LayerCount: 2
Fore
SplineSet
498 46 m 1
 456 11 405 -13 339 -20 c 1
 339 -39 l 1
 414 -49 453 -87 453 -153 c 0
 453 -224 392 -283 279 -283 c 0
 224 -283 176 -266 146 -247 c 1
 193 -152 l 1
 214 -164 234 -171 258 -171 c 0
 285 -171 301 -166 301 -151 c 0
 301 -130 272 -124 206 -124 c 1
 220 -13 l 1
 87 17 9 124 9 264 c 0
 9 433 122 557 297 557 c 0
 383 557 447 530 499 483 c 1
 408 355 l 1
 376 381 347 391 317 391 c 0
 266 391 239 364 239 264 c 0
 239 164 272 149 315 149 c 0
 346 149 366 159 403 181 c 1
 498 46 l 1
EndSplineSet
EndChar

StartChar: uni00E8
Encoding: 232 232 167
Width: 564
Flags: W
LayerCount: 2
Fore
SplineSet
220 869 m 1
 457 718 l 1
 398 607 l 1
 138 709 l 1
 220 869 l 1
557 273 m 0
 557 256 554 227 552 206 c 1
 233 206 l 1
 244 142 278 134 330 134 c 0
 365 134 402 149 448 180 c 1
 537 60 l 1
 483 17 405 -22 308 -22 c 0
 102 -22 9 103 9 268 c 0
 9 422 99 557 285 557 c 0
 446 557 557 456 557 273 c 0
338 329 m 1
 338 335 l 2
 337 379 332 420 289 420 c 0
 253 420 236 400 231 329 c 1
 338 329 l 1
EndSplineSet
EndChar

StartChar: uni00E9
Encoding: 233 233 168
Width: 564
Flags: W
LayerCount: 2
Fore
SplineSet
435 709 m 1
 175 607 l 1
 116 718 l 1
 353 869 l 1
 435 709 l 1
557 273 m 0
 557 256 554 227 552 206 c 1
 233 206 l 1
 244 142 278 134 330 134 c 0
 365 134 402 149 448 180 c 1
 537 60 l 1
 483 17 405 -22 308 -22 c 0
 102 -22 9 103 9 268 c 0
 9 422 99 557 285 557 c 0
 446 557 557 456 557 273 c 0
338 329 m 1
 338 335 l 2
 337 379 332 420 289 420 c 0
 253 420 236 400 231 329 c 1
 338 329 l 1
EndSplineSet
EndChar

StartChar: uni00EA
Encoding: 234 234 169
Width: 564
Flags: W
LayerCount: 2
Fore
SplineSet
287 705 m 1
 147 607 l 1
 73 692 l 1
 221 850 l 1
 352 850 l 1
 500 692 l 1
 426 607 l 1
 287 705 l 1
557 273 m 0
 557 256 554 227 552 206 c 1
 233 206 l 1
 244 142 278 134 330 134 c 0
 365 134 402 149 448 180 c 1
 537 60 l 1
 483 17 405 -22 308 -22 c 0
 102 -22 9 103 9 268 c 0
 9 422 99 557 285 557 c 0
 446 557 557 456 557 273 c 0
338 329 m 1
 338 335 l 2
 337 379 332 420 289 420 c 0
 253 420 236 400 231 329 c 1
 338 329 l 1
EndSplineSet
EndChar

StartChar: uni00EB
Encoding: 235 235 170
Width: 564
Flags: W
LayerCount: 2
Fore
SplineSet
159 831 m 0
 218 831 264 786 264 730 c 0
 264 673 218 628 159 628 c 0
 102 628 55 673 55 730 c 0
 55 786 102 831 159 831 c 0
414 831 m 0
 473 831 518 786 518 730 c 0
 518 673 473 628 414 628 c 0
 357 628 309 673 309 730 c 0
 309 786 357 831 414 831 c 0
557 273 m 0
 557 256 554 227 552 206 c 1
 233 206 l 1
 244 142 278 134 330 134 c 0
 365 134 402 149 448 180 c 1
 537 60 l 1
 483 17 405 -22 308 -22 c 0
 102 -22 9 103 9 268 c 0
 9 422 99 557 285 557 c 0
 446 557 557 456 557 273 c 0
338 329 m 1
 338 335 l 2
 337 379 332 420 289 420 c 0
 253 420 236 400 231 329 c 1
 338 329 l 1
EndSplineSet
EndChar

StartChar: uni00EC
Encoding: 236 236 171
Width: 284
Flags: W
LayerCount: 2
Fore
SplineSet
75 869 m 1
 312 718 l 1
 253 607 l 1
 -7 709 l 1
 75 869 l 1
253 536 m 1
 253 0 l 1
 31 0 l 1
 31 536 l 1
 253 536 l 1
EndSplineSet
EndChar

StartChar: uni00ED
Encoding: 237 237 172
Width: 284
Flags: W
LayerCount: 2
Fore
SplineSet
209 869 m 1
 291 709 l 1
 31 607 l 1
 -28 718 l 1
 209 869 l 1
253 536 m 1
 253 0 l 1
 31 0 l 1
 31 536 l 1
 253 536 l 1
EndSplineSet
EndChar

StartChar: uni00EE
Encoding: 238 238 173
Width: 284
Flags: W
LayerCount: 2
Fore
SplineSet
3 607 m 1
 -71 692 l 1
 77 850 l 1
 208 850 l 1
 356 692 l 1
 282 607 l 1
 143 705 l 1
 3 607 l 1
253 536 m 1
 253 0 l 1
 31 0 l 1
 31 536 l 1
 253 536 l 1
EndSplineSet
EndChar

StartChar: uni00EF
Encoding: 239 239 174
Width: 284
Flags: W
LayerCount: 2
Fore
SplineSet
14 831 m 0
 73 831 119 786 119 730 c 0
 119 673 73 628 14 628 c 0
 -43 628 -90 673 -90 730 c 0
 -90 786 -43 831 14 831 c 0
269 831 m 0
 328 831 373 786 373 730 c 0
 373 673 328 628 269 628 c 0
 212 628 164 673 164 730 c 0
 164 786 212 831 269 831 c 0
253 536 m 1
 253 0 l 1
 31 0 l 1
 31 536 l 1
 253 536 l 1
EndSplineSet
EndChar

StartChar: uni00F0
Encoding: 240 240 175
Width: 589
Flags: W
LayerCount: 2
Fore
SplineSet
373 676 m 1
 524 573 575 443 575 285 c 0
 575 128 481 -22 288 -22 c 0
 130 -22 9 73 9 233 c 0
 9 386 116 484 224 484 c 0
 272 484 306 474 341 455 c 1
 322 495 300 525 257 557 c 1
 217 516 l 1
 81 577 l 1
 119 618 l 1
 92 623 68 627 52 629 c 1
 94 766 l 1
 137 761 175 755 236 737 c 1
 314 819 l 1
 421 725 l 1
 373 676 l 1
293 135 m 0
 341 135 348 168 348 245 c 0
 348 271 348 297 349 323 c 1
 333 331 313 336 293 336 c 0
 254 336 234 306 234 235 c 0
 234 156 256 135 293 135 c 0
EndSplineSet
EndChar

StartChar: uni00F1
Encoding: 241 241 176
Width: 568
Flags: W
LayerCount: 2
Fore
SplineSet
236 657 m 0
 211 657 199 642 184 614 c 1
 81 663 l 1
 108 742 160 810 230 810 c 0
 263 810 280 803 301 789 c 0
 321 775 332 768 346 768 c 0
 371 768 382 783 397 811 c 1
 500 762 l 1
 474 685 422 614 348 614 c 0
 320 614 304 619 283 635 c 0
 262 649 253 657 236 657 c 0
401 557 m 0
 489 557 544 500 544 398 c 2
 544 0 l 1
 322 0 l 1
 322 357 l 2
 322 391 314 397 304 397 c 0
 292 397 273 385 253 353 c 1
 253 0 l 1
 31 0 l 1
 31 536 l 1
 225 536 l 1
 240 486 l 1
 292 537 338 557 401 557 c 0
EndSplineSet
EndChar

StartChar: uni00F2
Encoding: 242 242 177
Width: 586
Flags: W
LayerCount: 2
Fore
SplineSet
226 869 m 1
 463 718 l 1
 404 607 l 1
 144 709 l 1
 226 869 l 1
293 557 m 0
 466 557 577 455 577 267 c 0
 577 91 468 -22 293 -22 c 0
 120 -22 9 80 9 269 c 0
 9 445 117 557 293 557 c 0
293 400 m 0
 251 400 236 362 236 269 c 0
 236 170 252 136 293 136 c 0
 334 136 350 174 350 267 c 0
 350 365 334 400 293 400 c 0
EndSplineSet
EndChar

StartChar: uni00F3
Encoding: 243 243 178
Width: 586
Flags: W
LayerCount: 2
Fore
SplineSet
359 869 m 1
 441 709 l 1
 181 607 l 1
 122 718 l 1
 359 869 l 1
293 557 m 0
 466 557 577 455 577 267 c 0
 577 91 468 -22 293 -22 c 0
 120 -22 9 80 9 269 c 0
 9 445 117 557 293 557 c 0
293 400 m 0
 251 400 236 362 236 269 c 0
 236 170 252 136 293 136 c 0
 334 136 350 174 350 267 c 0
 350 365 334 400 293 400 c 0
EndSplineSet
EndChar

StartChar: uni00F4
Encoding: 244 244 179
Width: 586
Flags: W
LayerCount: 2
Fore
SplineSet
153 607 m 1
 79 692 l 1
 227 850 l 1
 358 850 l 1
 506 692 l 1
 432 607 l 1
 293 705 l 1
 153 607 l 1
293 557 m 0
 466 557 577 455 577 267 c 0
 577 91 468 -22 293 -22 c 0
 120 -22 9 80 9 269 c 0
 9 445 117 557 293 557 c 0
293 400 m 0
 251 400 236 362 236 269 c 0
 236 170 252 136 293 136 c 0
 334 136 350 174 350 267 c 0
 350 365 334 400 293 400 c 0
EndSplineSet
EndChar

StartChar: uni00F5
Encoding: 245 245 180
Width: 586
Flags: W
LayerCount: 2
Fore
SplineSet
350 614 m 0
 322 614 306 619 285 635 c 0
 264 649 255 657 238 657 c 0
 213 657 201 642 186 614 c 1
 83 663 l 1
 110 742 162 810 232 810 c 0
 265 810 282 803 303 789 c 0
 323 775 334 768 348 768 c 0
 373 768 384 783 399 811 c 1
 502 762 l 1
 476 685 424 614 350 614 c 0
293 557 m 0
 466 557 577 455 577 267 c 0
 577 91 468 -22 293 -22 c 0
 120 -22 9 80 9 269 c 0
 9 445 117 557 293 557 c 0
293 400 m 0
 251 400 236 362 236 269 c 0
 236 170 252 136 293 136 c 0
 334 136 350 174 350 267 c 0
 350 365 334 400 293 400 c 0
EndSplineSet
EndChar

StartChar: uni00F6
Encoding: 246 246 181
Width: 586
Flags: W
LayerCount: 2
Fore
SplineSet
165 831 m 0
 224 831 270 786 270 730 c 0
 270 673 224 628 165 628 c 0
 108 628 61 673 61 730 c 0
 61 786 108 831 165 831 c 0
420 831 m 0
 479 831 524 786 524 730 c 0
 524 673 479 628 420 628 c 0
 363 628 315 673 315 730 c 0
 315 786 363 831 420 831 c 0
293 557 m 0
 466 557 577 455 577 267 c 0
 577 91 468 -22 293 -22 c 0
 120 -22 9 80 9 269 c 0
 9 445 117 557 293 557 c 0
293 400 m 0
 251 400 236 362 236 269 c 0
 236 170 252 136 293 136 c 0
 334 136 350 174 350 267 c 0
 350 365 334 400 293 400 c 0
EndSplineSet
EndChar

StartChar: uni00F7
Encoding: 247 247 182
Width: 536
Flags: W
LayerCount: 2
Fore
SplineSet
268 698 m 0
 330 698 380 647 380 586 c 0
 380 525 330 474 268 474 c 0
 206 474 156 525 156 586 c 0
 156 647 206 698 268 698 c 0
35 249 m 1
 35 416 l 1
 501 416 l 1
 501 249 l 1
 35 249 l 1
268 190 m 0
 330 190 380 139 380 78 c 0
 380 17 330 -34 268 -34 c 0
 206 -34 156 17 156 78 c 0
 156 139 206 190 268 190 c 0
EndSplineSet
EndChar

StartChar: uni00F8
Encoding: 248 248 183
Width: 586
Flags: W
LayerCount: 2
Fore
SplineSet
462 513 m 1
 535 466 577 383 577 267 c 0
 577 91 468 -22 293 -22 c 2
 278 -22 l 1
 241 -140 l 1
 86 -95 l 1
 123 23 l 1
 51 70 9 153 9 269 c 0
 9 445 117 557 293 557 c 2
 308 557 l 1
 308 558 l 1
 347 677 l 1
 502 632 l 1
 462 513 l 1
289 400 m 1
 238 398 212 360 212 269 c 0
 212 233 214 207 218 188 c 1
 289 400 l 1
298 136 m 1
 348 138 374 177 374 267 c 0
 374 304 372 331 367 350 c 1
 298 136 l 1
EndSplineSet
EndChar

StartChar: uni00F9
Encoding: 249 249 184
Width: 562
Flags: W
LayerCount: 2
Fore
SplineSet
211 869 m 1
 448 718 l 1
 389 607 l 1
 129 709 l 1
 211 869 l 1
531 536 m 1
 531 0 l 1
 337 0 l 1
 329 52 l 1
 292 2 238 -22 173 -22 c 0
 67 -22 24 48 24 150 c 2
 24 536 l 1
 246 536 l 1
 246 180 l 2
 246 145 257 139 267 139 c 0
 276 139 294 146 309 172 c 1
 309 536 l 1
 531 536 l 1
EndSplineSet
EndChar

StartChar: uni00FA
Encoding: 250 250 185
Width: 562
Flags: W
LayerCount: 2
Fore
SplineSet
344 869 m 1
 426 709 l 1
 166 607 l 1
 107 718 l 1
 344 869 l 1
531 536 m 1
 531 0 l 1
 337 0 l 1
 329 52 l 1
 292 2 238 -22 173 -22 c 0
 67 -22 24 48 24 150 c 2
 24 536 l 1
 246 536 l 1
 246 180 l 2
 246 145 257 139 267 139 c 0
 276 139 294 146 309 172 c 1
 309 536 l 1
 531 536 l 1
EndSplineSet
EndChar

StartChar: uni00FB
Encoding: 251 251 186
Width: 562
Flags: W
LayerCount: 2
Fore
SplineSet
138 607 m 1
 64 692 l 1
 212 850 l 1
 343 850 l 1
 491 692 l 1
 417 607 l 1
 278 705 l 1
 138 607 l 1
531 536 m 1
 531 0 l 1
 337 0 l 1
 329 52 l 1
 292 2 238 -22 173 -22 c 0
 67 -22 24 48 24 150 c 2
 24 536 l 1
 246 536 l 1
 246 180 l 2
 246 145 257 139 267 139 c 0
 276 139 294 146 309 172 c 1
 309 536 l 1
 531 536 l 1
EndSplineSet
EndChar

StartChar: uni00FC
Encoding: 252 252 187
Width: 562
Flags: W
LayerCount: 2
Fore
SplineSet
150 831 m 0
 209 831 255 786 255 730 c 0
 255 673 209 628 150 628 c 0
 93 628 46 673 46 730 c 0
 46 786 93 831 150 831 c 0
405 831 m 0
 464 831 509 786 509 730 c 0
 509 673 464 628 405 628 c 0
 348 628 300 673 300 730 c 0
 300 786 348 831 405 831 c 0
531 536 m 1
 531 0 l 1
 337 0 l 1
 329 52 l 1
 292 2 238 -22 173 -22 c 0
 67 -22 24 48 24 150 c 2
 24 536 l 1
 246 536 l 1
 246 180 l 2
 246 145 257 139 267 139 c 0
 276 139 294 146 309 172 c 1
 309 536 l 1
 531 536 l 1
EndSplineSet
EndChar

StartChar: uni00FD
Encoding: 253 253 188
Width: 545
Flags: W
LayerCount: 2
Fore
SplineSet
339 869 m 1
 421 709 l 1
 161 607 l 1
 102 718 l 1
 339 869 l 1
565 536 m 1
 404 2 l 2
 358 -153 239 -230 52 -232 c 1
 28 -82 l 1
 130 -74 176 -55 203 0 c 1
 126 0 l 1
 -20 536 l 1
 215 536 l 1
 266 134 l 1
 337 536 l 1
 565 536 l 1
EndSplineSet
EndChar

StartChar: uni00FE
Encoding: 254 254 189
Width: 597
Flags: W
LayerCount: 2
Fore
SplineSet
382 557 m 0
 524 557 588 447 588 270 c 0
 588 104 500 -22 373 -22 c 0
 326 -22 285 -6 253 29 c 1
 253 -209 l 1
 31 -231 l 1
 31 745 l 1
 253 767 l 1
 253 499 l 1
 297 547 347 557 382 557 c 0
299 135 m 0
 334 135 361 165 361 266 c 0
 361 392 336 399 305 399 c 0
 290 399 271 389 253 358 c 1
 253 164 l 1
 268 142 281 135 299 135 c 0
EndSplineSet
EndChar

StartChar: uni00FF
Encoding: 255 255 190
Width: 545
Flags: W
LayerCount: 2
Fore
SplineSet
145 831 m 0
 204 831 250 786 250 730 c 0
 250 673 204 628 145 628 c 0
 88 628 41 673 41 730 c 0
 41 786 88 831 145 831 c 0
400 831 m 0
 459 831 504 786 504 730 c 0
 504 673 459 628 400 628 c 0
 343 628 295 673 295 730 c 0
 295 786 343 831 400 831 c 0
565 536 m 1
 404 2 l 2
 358 -153 239 -230 52 -232 c 1
 28 -82 l 1
 130 -74 176 -55 203 0 c 1
 126 0 l 1
 -20 536 l 1
 215 536 l 1
 266 134 l 1
 337 536 l 1
 565 536 l 1
EndSplineSet
EndChar

StartChar: uni0100
Encoding: 256 256 191
Width: 607
Flags: W
LayerCount: 2
Fore
SplineSet
473 769 m 1
 134 769 l 1
 134 918 l 1
 473 918 l 1
 473 769 l 1
395 0 m 1
 373 126 l 1
 231 126 l 1
 210 0 l 1
 -32 0 l 1
 167 698 l 1
 442 698 l 1
 639 0 l 1
 395 0 l 1
258 286 m 1
 345 286 l 1
 301 538 l 1
 258 286 l 1
EndSplineSet
EndChar

StartChar: uni0101
Encoding: 257 257 192
Width: 554
Flags: W
LayerCount: 2
Fore
SplineSet
450 643 m 1
 111 643 l 1
 111 792 l 1
 450 792 l 1
 450 643 l 1
517 183 m 2
 517 148 524 134 547 125 c 1
 503 -17 l 1
 430 -13 382 5 348 55 c 1
 309 -4 247 -22 187 -22 c 0
 79 -22 9 51 9 151 c 0
 9 270 100 336 274 336 c 2
 301 336 l 1
 301 343 l 2
 301 392 286 402 232 402 c 0
 203 402 148 392 94 374 c 1
 47 514 l 1
 115 542 204 557 265 557 c 0
 444 557 517 492 517 355 c 2
 517 183 l 2
257 133 m 0
 275 133 291 143 301 156 c 1
 301 223 l 1
 292 223 l 2
 245 223 224 208 224 173 c 0
 224 150 237 133 257 133 c 0
EndSplineSet
EndChar

StartChar: uni0102
Encoding: 258 258 193
Width: 607
Flags: W
LayerCount: 2
Fore
SplineSet
304 743 m 0
 175 743 118 846 110 943 c 1
 224 962 l 1
 234 925 260 892 304 892 c 0
 349 892 374 925 384 962 c 1
 498 943 l 1
 490 846 433 743 304 743 c 0
395 0 m 1
 373 126 l 1
 231 126 l 1
 210 0 l 1
 -32 0 l 1
 167 698 l 1
 442 698 l 1
 639 0 l 1
 395 0 l 1
258 286 m 1
 345 286 l 1
 301 538 l 1
 258 286 l 1
EndSplineSet
EndChar

StartChar: uni0103
Encoding: 259 259 194
Width: 554
Flags: W
LayerCount: 2
Fore
SplineSet
281 622 m 0
 152 622 95 725 87 832 c 1
 201 850 l 1
 211 804 237 770 281 770 c 0
 326 770 351 804 361 850 c 1
 475 832 l 1
 467 725 410 622 281 622 c 0
517 183 m 2
 517 148 524 134 547 125 c 1
 503 -17 l 1
 431 -13 382 4 348 55 c 1
 308 -4 247 -22 187 -22 c 0
 79 -22 9 51 9 151 c 0
 9 270 100 336 274 336 c 2
 301 336 l 1
 301 343 l 2
 301 392 286 402 232 402 c 0
 203 402 148 392 94 374 c 1
 47 514 l 1
 115 542 204 557 265 557 c 0
 444 557 517 492 517 355 c 2
 517 183 l 2
257 133 m 0
 275 133 291 143 301 155 c 1
 301 223 l 1
 292 223 l 2
 245 223 224 208 224 173 c 0
 224 150 237 133 257 133 c 0
EndSplineSet
EndChar

StartChar: uni0104
Encoding: 260 260 195
Width: 607
Flags: W
LayerCount: 2
Fore
SplineSet
513 0 m 1
 416 -30 399 -71 399 -91 c 0
 399 -121 419 -134 449 -134 c 0
 467 -134 488 -131 510 -125 c 1
 497 -252 l 1
 475 -257 448 -260 420 -260 c 0
 327 -260 252 -213 252 -128 c 0
 252 -47 309 4 388 38 c 1
 373 126 l 1
 231 126 l 1
 210 0 l 1
 -32 0 l 1
 167 698 l 1
 442 698 l 1
 639 0 l 1
 513 0 l 1
258 286 m 1
 345 286 l 1
 301 538 l 1
 258 286 l 1
EndSplineSet
EndChar

StartChar: uni0105
Encoding: 261 261 196
Width: 554
Flags: W
LayerCount: 2
Fore
SplineSet
503 -17 m 1
 406 -47 389 -88 389 -108 c 0
 389 -138 409 -151 439 -151 c 0
 457 -151 478 -148 500 -142 c 1
 487 -269 l 1
 465 -274 438 -277 410 -277 c 0
 317 -277 242 -230 242 -145 c 0
 242 -63 299 -13 379 21 c 1
 368 30 357 41 348 55 c 1
 309 -4 247 -22 187 -22 c 0
 79 -22 9 51 9 151 c 0
 9 270 100 336 274 336 c 2
 301 336 l 1
 301 343 l 2
 301 392 286 402 232 402 c 0
 203 402 148 392 94 374 c 1
 47 514 l 1
 115 542 204 557 265 557 c 0
 444 557 517 492 517 355 c 2
 517 183 l 2
 517 148 524 134 547 125 c 1
 503 -17 l 1
301 156 m 1
 301 223 l 1
 292 223 l 2
 245 223 224 208 224 173 c 0
 224 150 237 133 257 133 c 0
 275 133 291 143 301 156 c 1
EndSplineSet
EndChar

StartChar: uni0106
Encoding: 262 262 197
Width: 590
Flags: W
LayerCount: 2
Fore
SplineSet
443 1000 m 1
 520 841 l 1
 257 747 l 1
 201 858 l 1
 443 1000 l 1
354 719 m 0
 448 719 524 688 586 634 c 1
 480 510 l 1
 446 535 409 555 365 555 c 0
 291 555 252 486 252 351 c 0
 252 215 292 151 369 151 c 0
 414 151 451 173 494 207 c 1
 594 80 l 1
 541 27 456 -22 357 -22 c 0
 145 -22 12 108 12 351 c 0
 12 583 151 719 354 719 c 0
EndSplineSet
EndChar

StartChar: uni0107
Encoding: 263 263 198
Width: 480
Flags: W
LayerCount: 2
Fore
SplineSet
359 869 m 1
 441 709 l 1
 181 607 l 1
 122 718 l 1
 359 869 l 1
297 557 m 0
 383 557 447 530 499 483 c 1
 408 355 l 1
 376 381 347 391 317 391 c 0
 266 391 239 364 239 264 c 0
 239 164 272 149 315 149 c 0
 346 149 366 159 403 181 c 1
 498 46 l 1
 448 5 386 -22 302 -22 c 0
 119 -22 9 97 9 264 c 0
 9 433 122 557 297 557 c 0
EndSplineSet
EndChar

StartChar: uni010C
Encoding: 268 268 199
Width: 590
Flags: W
LayerCount: 2
Fore
SplineSet
500 978 m 1
 574 893 l 1
 426 745 l 1
 294 745 l 1
 147 893 l 1
 221 978 l 1
 360 891 l 1
 500 978 l 1
354 719 m 0
 448 719 524 688 586 634 c 1
 480 510 l 1
 446 535 409 555 365 555 c 0
 291 555 252 486 252 351 c 0
 252 215 292 151 369 151 c 0
 414 151 451 173 494 207 c 1
 594 80 l 1
 541 27 456 -22 357 -22 c 0
 145 -22 12 108 12 351 c 0
 12 583 151 719 354 719 c 0
EndSplineSet
EndChar

StartChar: uni010D
Encoding: 269 269 200
Width: 480
Flags: W
LayerCount: 2
Fore
SplineSet
433 840 m 1
 507 756 l 1
 359 597 l 1
 227 597 l 1
 80 756 l 1
 154 840 l 1
 293 742 l 1
 433 840 l 1
297 557 m 0
 383 557 447 530 499 483 c 1
 408 355 l 1
 376 381 347 391 317 391 c 0
 266 391 239 364 239 264 c 0
 239 164 272 149 315 149 c 0
 346 149 366 159 403 181 c 1
 498 46 l 1
 448 5 386 -22 302 -22 c 0
 119 -22 9 97 9 264 c 0
 9 433 122 557 297 557 c 0
EndSplineSet
EndChar

StartChar: uni010E
Encoding: 270 270 201
Width: 660
Flags: W
LayerCount: 2
Fore
SplineSet
429 978 m 1
 503 893 l 1
 355 745 l 1
 223 745 l 1
 76 893 l 1
 150 978 l 1
 289 891 l 1
 429 978 l 1
270 698 m 2
 466 698 648 638 648 352 c 0
 648 75 485 0 281 0 c 2
 31 0 l 1
 31 698 l 1
 270 698 l 2
297 537 m 2
 262 537 l 1
 262 161 l 1
 295 161 l 2
 384 161 410 209 410 352 c 0
 410 493 380 537 297 537 c 2
EndSplineSet
EndChar

StartChar: uni010F
Encoding: 271 271 202
Width: 767
Flags: W
LayerCount: 2
Fore
SplineSet
629 768 m 1
 784 744 l 1
 723 498 l 1
 603 516 l 1
 629 768 l 1
345 521 m 1
 345 767 l 1
 567 745 l 1
 567 0 l 1
 370 0 l 1
 363 52 l 1
 336 16 291 -22 213 -22 c 0
 71 -22 9 94 9 272 c 0
 9 439 101 557 235 557 c 0
 277 557 316 546 345 521 c 1
290 136 m 0
 309 136 329 147 345 173 c 1
 345 379 l 1
 330 393 318 401 300 401 c 0
 265 401 236 371 236 269 c 0
 236 144 263 136 290 136 c 0
EndSplineSet
EndChar

StartChar: uni0110
Encoding: 272 272 203
Width: 676
Flags: W
LayerCount: 2
Fore
SplineSet
286 698 m 2
 482 698 664 638 664 352 c 0
 664 75 501 0 298 0 c 2
 48 0 l 1
 48 289 l 1
 8 289 l 1
 8 417 l 1
 48 417 l 1
 48 698 l 1
 286 698 l 2
311 161 m 2
 400 161 427 209 427 352 c 0
 427 493 396 537 314 537 c 2
 279 537 l 1
 279 417 l 1
 391 417 l 1
 391 289 l 1
 279 289 l 1
 279 161 l 1
 311 161 l 2
EndSplineSet
EndChar

StartChar: uni0111
Encoding: 273 273 204
Width: 614
Flags: W
LayerCount: 2
Fore
SplineSet
567 701 m 1
 620 701 l 1
 620 586 l 1
 567 586 l 1
 567 0 l 1
 370 0 l 1
 363 52 l 1
 336 16 291 -22 213 -22 c 0
 71 -22 9 94 9 272 c 0
 9 439 101 557 235 557 c 0
 277 557 316 546 345 521 c 1
 345 586 l 1
 234 586 l 1
 234 701 l 1
 345 701 l 1
 345 767 l 1
 567 745 l 1
 567 701 l 1
290 136 m 0
 309 136 329 147 345 173 c 1
 345 379 l 1
 330 393 318 401 300 401 c 0
 265 401 236 371 236 269 c 0
 236 144 263 136 290 136 c 0
EndSplineSet
EndChar

StartChar: uni0112
Encoding: 274 274 205
Width: 521
Flags: W
LayerCount: 2
Fore
SplineSet
438 769 m 1
 99 769 l 1
 99 918 l 1
 438 918 l 1
 438 769 l 1
507 698 m 1
 484 539 l 1
 262 539 l 1
 262 431 l 1
 457 431 l 1
 457 276 l 1
 262 276 l 1
 262 160 l 1
 500 160 l 1
 500 0 l 1
 31 0 l 1
 31 698 l 1
 507 698 l 1
EndSplineSet
EndChar

StartChar: uni0113
Encoding: 275 275 206
Width: 564
Flags: W
LayerCount: 2
Fore
SplineSet
455 643 m 1
 116 643 l 1
 116 792 l 1
 455 792 l 1
 455 643 l 1
557 273 m 0
 557 256 554 227 552 206 c 1
 233 206 l 1
 244 142 278 134 330 134 c 0
 365 134 402 149 448 180 c 1
 537 60 l 1
 483 17 405 -22 308 -22 c 0
 102 -22 9 103 9 268 c 0
 9 422 99 557 285 557 c 0
 446 557 557 456 557 273 c 0
338 329 m 1
 338 335 l 2
 337 379 332 420 289 420 c 0
 253 420 236 400 231 329 c 1
 338 329 l 1
EndSplineSet
EndChar

StartChar: uni0116
Encoding: 278 278 207
Width: 521
Flags: W
LayerCount: 2
Fore
SplineSet
269 968 m 0
 341 968 392 917 392 851 c 0
 392 785 341 734 269 734 c 0
 198 734 147 785 147 851 c 0
 147 917 198 968 269 968 c 0
507 698 m 1
 484 539 l 1
 262 539 l 1
 262 431 l 1
 457 431 l 1
 457 276 l 1
 262 276 l 1
 262 160 l 1
 500 160 l 1
 500 0 l 1
 31 0 l 1
 31 698 l 1
 507 698 l 1
EndSplineSet
EndChar

StartChar: uni0117
Encoding: 279 279 208
Width: 564
Flags: W
LayerCount: 2
Fore
SplineSet
286 842 m 0
 358 842 409 791 409 725 c 0
 409 659 358 608 286 608 c 0
 215 608 164 659 164 725 c 0
 164 791 215 842 286 842 c 0
557 273 m 0
 557 256 554 227 552 206 c 1
 233 206 l 1
 244 142 278 134 330 134 c 0
 365 134 402 149 448 180 c 1
 537 60 l 1
 483 17 405 -22 308 -22 c 0
 102 -22 9 103 9 268 c 0
 9 422 99 557 285 557 c 0
 446 557 557 456 557 273 c 0
338 329 m 1
 338 335 l 2
 337 379 332 420 289 420 c 0
 253 420 236 400 231 329 c 1
 338 329 l 1
EndSplineSet
EndChar

StartChar: uni0118
Encoding: 280 280 209
Width: 521
Flags: W
LayerCount: 2
Fore
SplineSet
262 276 m 1
 262 160 l 1
 500 160 l 1
 500 0 l 1
 458 0 l 1
 361 -30 344 -71 344 -91 c 0
 344 -121 364 -134 394 -134 c 0
 412 -134 433 -131 455 -125 c 1
 442 -252 l 1
 420 -257 393 -260 365 -260 c 0
 272 -260 197 -213 197 -128 c 0
 197 -72 223 -31 266 0 c 1
 31 0 l 1
 31 698 l 1
 507 698 l 1
 484 539 l 1
 262 539 l 1
 262 431 l 1
 457 431 l 1
 457 276 l 1
 262 276 l 1
EndSplineSet
EndChar

StartChar: uni0119
Encoding: 281 281 210
Width: 564
Flags: W
LayerCount: 2
Fore
SplineSet
557 273 m 0
 557 256 554 227 552 206 c 1
 233 206 l 1
 244 142 278 134 330 134 c 0
 365 134 402 149 448 180 c 1
 537 60 l 1
 502 32 458 7 405 -9 c 1
 353 -35 343 -63 343 -79 c 0
 343 -109 362 -122 392 -122 c 0
 411 -122 432 -119 454 -113 c 1
 441 -240 l 1
 419 -245 392 -248 364 -248 c 0
 271 -248 196 -201 196 -116 c 0
 196 -73 217 -41 249 -18 c 1
 84 4 9 120 9 268 c 0
 9 422 99 557 285 557 c 0
 446 557 557 456 557 273 c 0
338 329 m 1
 338 335 l 2
 337 379 332 420 289 420 c 0
 253 420 236 400 231 329 c 1
 338 329 l 1
EndSplineSet
EndChar

StartChar: uni011A
Encoding: 282 282 211
Width: 521
Flags: W
LayerCount: 2
Fore
SplineSet
408 978 m 1
 482 893 l 1
 334 745 l 1
 202 745 l 1
 55 893 l 1
 129 978 l 1
 268 891 l 1
 408 978 l 1
507 698 m 1
 484 539 l 1
 262 539 l 1
 262 431 l 1
 457 431 l 1
 457 276 l 1
 262 276 l 1
 262 160 l 1
 500 160 l 1
 500 0 l 1
 31 0 l 1
 31 698 l 1
 507 698 l 1
EndSplineSet
EndChar

StartChar: uni011B
Encoding: 283 283 212
Width: 564
Flags: W
LayerCount: 2
Fore
SplineSet
352 597 m 1
 220 597 l 1
 73 756 l 1
 147 840 l 1
 286 742 l 1
 426 840 l 1
 500 756 l 1
 352 597 l 1
557 273 m 0
 557 256 554 227 552 206 c 1
 233 206 l 1
 244 142 278 134 330 134 c 0
 365 134 402 149 448 180 c 1
 537 60 l 1
 483 17 405 -22 308 -22 c 0
 102 -22 9 103 9 268 c 0
 9 422 99 557 285 557 c 0
 446 557 557 456 557 273 c 0
338 329 m 1
 338 335 l 2
 337 379 332 420 289 420 c 0
 253 420 236 400 231 329 c 1
 338 329 l 1
EndSplineSet
EndChar

StartChar: uni011E
Encoding: 286 286 213
Width: 659
Flags: W
LayerCount: 2
Fore
SplineSet
350 743 m 0
 221 743 164 846 156 943 c 1
 270 962 l 1
 280 925 306 892 350 892 c 0
 395 892 420 925 430 962 c 1
 544 943 l 1
 536 846 479 743 350 743 c 0
374 719 m 0
 486 719 574 675 631 625 c 1
 520 509 l 1
 475 541 440 560 389 560 c 0
 295 560 250 490 250 349 c 0
 250 183 277 140 349 140 c 0
 371 140 389 146 408 154 c 1
 408 262 l 1
 349 262 l 1
 328 416 l 1
 629 416 l 1
 629 63 l 1
 552 9 445 -22 356 -22 c 0
 112 -22 12 113 12 350 c 0
 12 586 164 719 374 719 c 0
EndSplineSet
EndChar

StartChar: uni011F
Encoding: 287 287 214
Width: 581
Flags: W
LayerCount: 2
Fore
SplineSet
291 622 m 0
 162 622 105 725 97 832 c 1
 211 850 l 1
 221 804 247 770 291 770 c 0
 336 770 361 804 371 850 c 1
 485 832 l 1
 477 725 420 622 291 622 c 0
535 648 m 1
 583 496 l 1
 550 480 501 470 430 470 c 1
 502 441 536 405 536 330 c 0
 536 230 442 154 291 154 c 0
 270 154 254 153 236 156 c 0
 231 153 228 149 228 144 c 0
 228 137 229 123 275 123 c 2
 351 123 l 2
 490 123 576 56 576 -40 c 0
 576 -156 469 -231 269 -231 c 0
 39 -231 -12 -152 -12 -48 c 1
 187 -48 l 1
 186 -81 199 -93 276 -93 c 0
 349 -93 353 -71 353 -56 c 0
 353 -43 346 -25 307 -25 c 2
 235 -25 l 2
 97 -25 46 24 46 85 c 0
 46 128 76 171 115 195 c 1
 40 236 14 284 14 352 c 0
 14 484 116 557 275 557 c 1
 381 553 467 599 535 648 c 1
282 415 m 0
 256 415 233 398 233 357 c 0
 233 311 256 294 282 294 c 0
 314 294 331 314 331 361 c 0
 331 402 315 415 282 415 c 0
EndSplineSet
EndChar

StartChar: uni0122
Encoding: 290 290 215
Width: 659
Flags: W
LayerCount: 2
Fore
SplineSet
374 719 m 0
 486 719 574 675 631 625 c 1
 520 509 l 1
 475 541 440 560 389 560 c 0
 295 560 250 490 250 349 c 0
 250 183 277 140 349 140 c 0
 371 140 389 146 408 154 c 1
 408 262 l 1
 349 262 l 1
 328 416 l 1
 629 416 l 1
 629 63 l 1
 552 9 445 -22 356 -22 c 0
 112 -22 12 113 12 350 c 0
 12 586 164 719 374 719 c 0
352 -58 m 0
 410 -58 452 -101 452 -157 c 0
 452 -191 441 -215 424 -249 c 2
 372 -353 l 1
 268 -353 l 1
 292 -239 l 1
 269 -220 251 -194 251 -157 c 0
 251 -104 293 -58 352 -58 c 0
EndSplineSet
EndChar

StartChar: uni0123
Encoding: 291 291 216
Width: 581
Flags: W
LayerCount: 2
Fore
SplineSet
284 570 m 0
 225 570 184 613 184 670 c 0
 184 703 195 727 212 761 c 2
 264 865 l 1
 367 865 l 1
 344 751 l 1
 367 733 384 707 384 670 c 0
 384 616 343 570 284 570 c 0
535 648 m 1
 583 496 l 1
 550 480 501 470 430 470 c 1
 502 441 536 405 536 330 c 0
 536 230 442 154 291 154 c 0
 270 154 254 153 236 156 c 0
 231 153 228 149 228 144 c 0
 228 137 229 123 275 123 c 2
 351 123 l 2
 490 123 576 56 576 -40 c 0
 576 -156 469 -231 269 -231 c 0
 39 -231 -12 -152 -12 -48 c 1
 187 -48 l 1
 186 -81 199 -93 276 -93 c 0
 349 -93 353 -71 353 -56 c 0
 353 -43 346 -25 307 -25 c 2
 235 -25 l 2
 97 -25 46 24 46 85 c 0
 46 128 76 171 115 195 c 1
 40 236 14 284 14 352 c 0
 14 484 116 557 275 557 c 1
 381 553 467 599 535 648 c 1
282 415 m 0
 256 415 233 398 233 357 c 0
 233 311 256 294 282 294 c 0
 314 294 331 314 331 361 c 0
 331 402 315 415 282 415 c 0
EndSplineSet
EndChar

StartChar: uni012A
Encoding: 298 298 217
Width: 293
Flags: W
LayerCount: 2
Fore
SplineSet
316 769 m 1
 -23 769 l 1
 -23 918 l 1
 316 918 l 1
 316 769 l 1
262 698 m 1
 262 0 l 1
 31 0 l 1
 31 698 l 1
 262 698 l 1
EndSplineSet
EndChar

StartChar: uni012B
Encoding: 299 299 218
Width: 284
Flags: W
LayerCount: 2
Fore
SplineSet
311 643 m 1
 -28 643 l 1
 -28 792 l 1
 311 792 l 1
 311 643 l 1
253 536 m 1
 253 0 l 1
 31 0 l 1
 31 536 l 1
 253 536 l 1
EndSplineSet
EndChar

StartChar: uni012E
Encoding: 302 302 219
Width: 293
Flags: W
LayerCount: 2
Fore
SplineSet
31 698 m 1
 262 698 l 1
 262 0 l 1
 208 0 l 1
 111 -30 94 -71 94 -91 c 0
 94 -121 114 -134 144 -134 c 0
 162 -134 183 -131 205 -125 c 1
 192 -252 l 1
 170 -257 143 -260 115 -260 c 0
 22 -260 -53 -213 -53 -128 c 0
 -53 -66 -20 -22 31 11 c 1
 31 698 l 1
EndSplineSet
EndChar

StartChar: uni012F
Encoding: 303 303 220
Width: 284
Flags: W
LayerCount: 2
Fore
SplineSet
142 608 m 0
 71 608 20 659 20 725 c 0
 20 791 71 842 142 842 c 0
 214 842 265 791 265 725 c 0
 265 659 214 608 142 608 c 0
31 12 m 1
 31 536 l 1
 253 536 l 1
 253 0 l 1
 206 0 l 1
 109 -30 92 -71 92 -91 c 0
 92 -121 112 -134 142 -134 c 0
 160 -134 181 -131 203 -125 c 1
 190 -252 l 1
 168 -257 141 -260 113 -260 c 0
 20 -260 -55 -213 -55 -128 c 0
 -55 -65 -21 -21 31 12 c 1
EndSplineSet
EndChar

StartChar: uni0130
Encoding: 304 304 221
Width: 293
Flags: W
LayerCount: 2
Fore
SplineSet
146 968 m 0
 218 968 269 917 269 851 c 0
 269 785 218 734 146 734 c 0
 75 734 24 785 24 851 c 0
 24 917 75 968 146 968 c 0
262 698 m 1
 262 0 l 1
 31 0 l 1
 31 698 l 1
 262 698 l 1
EndSplineSet
EndChar

StartChar: uni0131
Encoding: 305 305 222
Width: 284
Flags: W
LayerCount: 2
Fore
SplineSet
253 536 m 1
 253 0 l 1
 31 0 l 1
 31 536 l 1
 253 536 l 1
EndSplineSet
EndChar

StartChar: uni0136
Encoding: 310 310 223
Width: 678
Flags: W
LayerCount: 2
Fore
SplineSet
262 698 m 1
 262 0 l 1
 31 0 l 1
 31 698 l 1
 262 698 l 1
683 698 m 1
 501 390 l 1
 701 0 l 1
 440 0 l 1
 269 372 l 1
 447 698 l 1
 683 698 l 1
334 -58 m 0
 392 -58 434 -101 434 -157 c 0
 434 -191 423 -215 406 -249 c 2
 354 -353 l 1
 250 -353 l 1
 274 -239 l 1
 251 -220 233 -194 233 -157 c 0
 233 -104 275 -58 334 -58 c 0
EndSplineSet
EndChar

StartChar: uni0137
Encoding: 311 311 224
Width: 591
Flags: W
LayerCount: 2
Fore
SplineSet
253 767 m 1
 253 0 l 1
 31 0 l 1
 31 745 l 1
 253 767 l 1
605 536 m 1
 477 302 l 1
 610 0 l 1
 366 0 l 1
 257 293 l 1
 387 536 l 1
 605 536 l 1
293 -58 m 0
 351 -58 393 -101 393 -157 c 0
 393 -191 382 -215 365 -249 c 2
 313 -353 l 1
 209 -353 l 1
 233 -239 l 1
 210 -220 192 -194 192 -157 c 0
 192 -104 234 -58 293 -58 c 0
EndSplineSet
EndChar

StartChar: uni0139
Encoding: 313 313 225
Width: 529
Flags: W
LayerCount: 2
Fore
SplineSet
229 1000 m 1
 306 841 l 1
 43 747 l 1
 -13 858 l 1
 229 1000 l 1
262 698 m 1
 262 176 l 1
 521 176 l 1
 498 0 l 1
 31 0 l 1
 31 698 l 1
 262 698 l 1
EndSplineSet
EndChar

StartChar: uni013A
Encoding: 314 314 226
Width: 305
Flags: W
LayerCount: 2
Fore
SplineSet
217 1047 m 1
 294 888 l 1
 31 794 l 1
 -25 905 l 1
 217 1047 l 1
205 -22 m 0
 88 -22 24 47 24 165 c 2
 24 745 l 1
 246 767 l 1
 246 174 l 2
 246 159 253 151 267 151 c 0
 275 151 281 153 285 155 c 1
 323 -3 l 1
 296 -13 254 -22 205 -22 c 0
EndSplineSet
EndChar

StartChar: uni013B
Encoding: 315 315 227
Width: 529
Flags: W
LayerCount: 2
Fore
SplineSet
262 698 m 1
 262 176 l 1
 521 176 l 1
 498 0 l 1
 31 0 l 1
 31 698 l 1
 262 698 l 1
264 -58 m 0
 322 -58 364 -101 364 -157 c 0
 364 -191 353 -215 336 -249 c 2
 284 -353 l 1
 180 -353 l 1
 204 -239 l 1
 181 -220 163 -194 163 -157 c 0
 163 -104 205 -58 264 -58 c 0
EndSplineSet
EndChar

StartChar: uni013C
Encoding: 316 316 228
Width: 305
Flags: W
LayerCount: 2
Fore
SplineSet
205 -22 m 0
 88 -22 24 47 24 165 c 2
 24 745 l 1
 246 767 l 1
 246 174 l 2
 246 159 253 151 267 151 c 0
 275 151 281 153 285 155 c 1
 323 -3 l 1
 296 -13 254 -22 205 -22 c 0
186 -58 m 0
 244 -58 286 -101 286 -157 c 0
 286 -191 275 -215 258 -249 c 2
 206 -353 l 1
 102 -353 l 1
 126 -239 l 1
 103 -220 85 -194 85 -157 c 0
 85 -104 127 -58 186 -58 c 0
EndSplineSet
EndChar

StartChar: uni013D
Encoding: 317 317 229
Width: 529
Flags: W
LayerCount: 2
Fore
SplineSet
412 451 m 1
 473 697 l 1
 317 720 l 1
 291 469 l 1
 412 451 l 1
262 698 m 1
 262 176 l 1
 521 176 l 1
 498 0 l 1
 31 0 l 1
 31 698 l 1
 262 698 l 1
EndSplineSet
EndChar

StartChar: uni013E
Encoding: 318 318 230
Width: 437
Flags: W
LayerCount: 2
Fore
SplineSet
399 498 m 1
 460 744 l 1
 304 768 l 1
 278 516 l 1
 399 498 l 1
205 -22 m 0
 88 -22 24 47 24 165 c 2
 24 745 l 1
 246 767 l 1
 246 174 l 2
 246 159 253 151 267 151 c 0
 275 151 281 153 285 155 c 1
 323 -3 l 1
 296 -13 254 -22 205 -22 c 0
EndSplineSet
EndChar

StartChar: uni0141
Encoding: 321 321 231
Width: 591
Flags: W
LayerCount: 2
Fore
SplineSet
324 176 m 1
 583 176 l 1
 560 0 l 1
 93 0 l 1
 93 192 l 1
 64 174 l 1
 -6 288 l 1
 93 349 l 1
 93 698 l 1
 324 698 l 1
 324 492 l 1
 419 551 l 1
 490 438 l 1
 324 335 l 1
 324 176 l 1
EndSplineSet
EndChar

StartChar: uni0142
Encoding: 322 322 232
Width: 401
Flags: W
LayerCount: 2
Fore
SplineSet
315 151 m 0
 324 151 330 153 334 155 c 1
 372 -3 l 1
 344 -13 302 -22 253 -22 c 0
 136 -22 72 47 72 165 c 2
 72 235 l 1
 42 217 l 1
 -28 330 l 1
 72 393 l 1
 72 745 l 1
 294 767 l 1
 294 526 l 1
 340 554 l 1
 410 442 l 1
 294 371 l 1
 294 174 l 2
 294 159 302 151 315 151 c 0
EndSplineSet
EndChar

StartChar: uni0143
Encoding: 323 323 233
Width: 647
Flags: W
LayerCount: 2
Fore
SplineSet
405 1000 m 1
 482 841 l 1
 219 747 l 1
 163 858 l 1
 405 1000 l 1
616 698 m 1
 616 0 l 1
 327 0 l 1
 204 489 l 1
 215 419 235 318 235 188 c 2
 235 0 l 1
 31 0 l 1
 31 698 l 1
 314 698 l 1
 444 206 l 1
 429 297 412 375 412 508 c 2
 412 698 l 1
 616 698 l 1
EndSplineSet
EndChar

StartChar: uni0144
Encoding: 324 324 234
Width: 568
Flags: W
LayerCount: 2
Fore
SplineSet
438 709 m 1
 178 607 l 1
 119 718 l 1
 356 869 l 1
 438 709 l 1
401 557 m 0
 489 557 544 500 544 398 c 2
 544 0 l 1
 322 0 l 1
 322 357 l 2
 322 391 314 397 304 397 c 0
 292 397 273 385 253 353 c 1
 253 0 l 1
 31 0 l 1
 31 536 l 1
 225 536 l 1
 240 486 l 1
 292 537 338 557 401 557 c 0
EndSplineSet
EndChar

StartChar: uni0145
Encoding: 325 325 235
Width: 647
Flags: W
LayerCount: 2
Fore
SplineSet
616 698 m 1
 616 0 l 1
 327 0 l 1
 204 489 l 1
 215 419 235 318 235 188 c 2
 235 0 l 1
 31 0 l 1
 31 698 l 1
 314 698 l 1
 444 206 l 1
 429 297 412 375 412 508 c 2
 412 698 l 1
 616 698 l 1
324 -58 m 0
 382 -58 424 -101 424 -157 c 0
 424 -191 413 -215 396 -249 c 2
 344 -353 l 1
 240 -353 l 1
 264 -239 l 1
 241 -220 223 -194 223 -157 c 0
 223 -104 265 -58 324 -58 c 0
EndSplineSet
EndChar

StartChar: uni0146
Encoding: 326 326 236
Width: 568
Flags: W
LayerCount: 2
Fore
SplineSet
401 557 m 0
 489 557 544 500 544 398 c 2
 544 0 l 1
 322 0 l 1
 322 357 l 2
 322 391 314 397 304 397 c 0
 292 397 273 385 253 353 c 1
 253 0 l 1
 31 0 l 1
 31 536 l 1
 225 536 l 1
 240 486 l 1
 292 537 338 557 401 557 c 0
286 -58 m 0
 344 -58 386 -101 386 -157 c 0
 386 -191 375 -215 358 -249 c 2
 306 -353 l 1
 202 -353 l 1
 226 -239 l 1
 203 -220 185 -194 185 -157 c 0
 185 -104 227 -58 286 -58 c 0
EndSplineSet
EndChar

StartChar: uni0147
Encoding: 327 327 237
Width: 647
Flags: W
LayerCount: 2
Fore
SplineSet
462 978 m 1
 536 893 l 1
 388 745 l 1
 256 745 l 1
 109 893 l 1
 183 978 l 1
 322 891 l 1
 462 978 l 1
616 698 m 1
 616 0 l 1
 327 0 l 1
 204 489 l 1
 215 419 235 318 235 188 c 2
 235 0 l 1
 31 0 l 1
 31 698 l 1
 314 698 l 1
 444 206 l 1
 429 297 412 375 412 508 c 2
 412 698 l 1
 616 698 l 1
EndSplineSet
EndChar

StartChar: uni0148
Encoding: 328 328 238
Width: 568
Flags: W
LayerCount: 2
Fore
SplineSet
356 597 m 1
 224 597 l 1
 77 756 l 1
 151 840 l 1
 290 742 l 1
 430 840 l 1
 504 756 l 1
 356 597 l 1
401 557 m 0
 489 557 544 500 544 398 c 2
 544 0 l 1
 322 0 l 1
 322 357 l 2
 322 391 314 397 304 397 c 0
 292 397 273 385 253 353 c 1
 253 0 l 1
 31 0 l 1
 31 536 l 1
 225 536 l 1
 240 486 l 1
 292 537 338 557 401 557 c 0
EndSplineSet
EndChar

StartChar: uni014C
Encoding: 332 332 239
Width: 690
Flags: W
LayerCount: 2
Fore
SplineSet
514 769 m 1
 175 769 l 1
 175 918 l 1
 514 918 l 1
 514 769 l 1
345 719 m 0
 561 719 678 581 678 350 c 0
 678 124 561 -22 345 -22 c 0
 128 -22 12 119 12 350 c 0
 12 576 128 719 345 719 c 0
345 557 m 0
 276 557 252 503 252 350 c 0
 252 197 275 140 345 140 c 0
 416 140 438 197 438 350 c 0
 438 503 414 557 345 557 c 0
EndSplineSet
EndChar

StartChar: uni014D
Encoding: 333 333 240
Width: 586
Flags: W
LayerCount: 2
Fore
SplineSet
462 643 m 1
 123 643 l 1
 123 792 l 1
 462 792 l 1
 462 643 l 1
293 557 m 0
 466 557 577 455 577 267 c 0
 577 91 468 -22 293 -22 c 0
 120 -22 9 80 9 269 c 0
 9 445 117 557 293 557 c 0
293 400 m 0
 251 400 236 362 236 269 c 0
 236 170 252 136 293 136 c 0
 334 136 350 174 350 267 c 0
 350 365 334 400 293 400 c 0
EndSplineSet
EndChar

StartChar: uni0150
Encoding: 336 336 241
Width: 690
Flags: W
LayerCount: 2
Fore
SplineSet
280 988 m 1
 415 918 l 1
 285 747 l 1
 191 796 l 1
 280 988 l 1
471 979 m 1
 602 902 l 1
 463 738 l 1
 372 791 l 1
 471 979 l 1
345 719 m 0
 561 719 678 581 678 350 c 0
 678 124 561 -22 345 -22 c 0
 128 -22 12 119 12 350 c 0
 12 576 128 719 345 719 c 0
345 557 m 0
 276 557 252 503 252 350 c 0
 252 197 275 140 345 140 c 0
 416 140 438 197 438 350 c 0
 438 503 414 557 345 557 c 0
EndSplineSet
EndChar

StartChar: uni0151
Encoding: 337 337 242
Width: 586
Flags: W
LayerCount: 2
Fore
SplineSet
245 856 m 1
 380 786 l 1
 250 605 l 1
 156 653 l 1
 245 856 l 1
436 847 m 1
 567 769 l 1
 428 595 l 1
 337 649 l 1
 436 847 l 1
293 557 m 0
 466 557 577 455 577 267 c 0
 577 91 468 -22 293 -22 c 0
 120 -22 9 80 9 269 c 0
 9 445 117 557 293 557 c 0
293 400 m 0
 251 400 236 362 236 269 c 0
 236 170 252 136 293 136 c 0
 334 136 350 174 350 267 c 0
 350 365 334 400 293 400 c 0
EndSplineSet
EndChar

StartChar: uni0152
Encoding: 338 338 243
Width: 916
Flags: W
LayerCount: 2
Fore
SplineSet
651 276 m 1
 644 235 629 195 608 160 c 1
 895 160 l 1
 895 0 l 1
 441 0 l 1
 408 -15 369 -22 326 -22 c 0
 128 -22 12 119 12 350 c 0
 12 576 128 719 326 719 c 0
 370 719 410 712 443 698 c 1
 903 698 l 1
 879 539 l 1
 609 539 l 1
 629 505 642 469 650 431 c 1
 853 431 l 1
 853 276 l 1
 651 276 l 1
335 140 m 0
 396 140 418 197 418 350 c 0
 418 503 394 557 335 557 c 0
 276 557 252 503 252 350 c 0
 252 197 275 140 335 140 c 0
EndSplineSet
EndChar

StartChar: uni0153
Encoding: 339 339 244
Width: 903
Flags: W
LayerCount: 2
Fore
SplineSet
895 273 m 0
 895 256 893 227 891 206 c 1
 572 206 l 1
 583 142 617 134 669 134 c 0
 704 134 740 149 786 180 c 1
 875 60 l 1
 822 17 744 -22 647 -22 c 0
 567 -22 508 2 464 42 c 1
 419 0 362 -22 292 -22 c 0
 118 -22 9 80 9 269 c 0
 9 442 117 557 292 557 c 0
 358 557 415 534 460 494 c 1
 502 533 555 557 623 557 c 0
 785 557 895 456 895 273 c 0
677 329 m 1
 677 335 l 2
 676 379 671 420 627 420 c 0
 592 420 575 400 570 329 c 1
 677 329 l 1
292 136 m 0
 332 136 348 171 348 269 c 0
 348 362 332 400 292 400 c 0
 251 400 236 362 236 269 c 0
 236 170 252 136 292 136 c 0
EndSplineSet
EndChar

StartChar: uni0154
Encoding: 340 340 245
Width: 630
Flags: W
LayerCount: 2
Fore
SplineSet
463 841 m 1
 200 747 l 1
 144 858 l 1
 386 1000 l 1
 463 841 l 1
404 0 m 1
 283 238 l 1
 262 238 l 1
 262 0 l 1
 31 0 l 1
 31 698 l 1
 302 698 l 2
 507 698 610 629 610 471 c 0
 610 386 575 334 493 281 c 1
 659 0 l 1
 404 0 l 1
262 541 m 1
 262 391 l 1
 306 391 l 2
 353 391 375 417 375 471 c 0
 375 519 345 541 296 541 c 2
 262 541 l 1
EndSplineSet
EndChar

StartChar: uni0155
Encoding: 341 341 246
Width: 416
Flags: W
LayerCount: 2
Fore
SplineSet
379 709 m 1
 119 607 l 1
 60 718 l 1
 297 869 l 1
 379 709 l 1
376 554 m 0
 397 554 411 551 430 544 c 1
 396 330 l 1
 379 335 363 339 347 339 c 0
 285 339 266 292 253 231 c 1
 253 0 l 1
 31 0 l 1
 31 536 l 1
 225 536 l 1
 244 440 l 1
 264 506 319 554 376 554 c 0
EndSplineSet
EndChar

StartChar: uni0156
Encoding: 342 342 247
Width: 630
Flags: W
LayerCount: 2
Fore
SplineSet
262 238 m 1
 262 0 l 1
 31 0 l 1
 31 698 l 1
 302 698 l 2
 507 698 610 629 610 471 c 0
 610 386 575 334 493 281 c 1
 659 0 l 1
 404 0 l 1
 283 238 l 1
 262 238 l 1
296 541 m 2
 262 541 l 1
 262 391 l 1
 306 391 l 2
 353 391 375 417 375 471 c 0
 375 519 345 541 296 541 c 2
313 -58 m 0
 371 -58 413 -101 413 -157 c 0
 413 -191 402 -215 385 -249 c 2
 333 -353 l 1
 229 -353 l 1
 253 -239 l 1
 230 -220 212 -194 212 -157 c 0
 212 -104 254 -58 313 -58 c 0
EndSplineSet
EndChar

StartChar: uni0157
Encoding: 343 343 248
Width: 416
Flags: W
LayerCount: 2
Fore
SplineSet
376 554 m 0
 397 554 411 551 430 544 c 1
 396 330 l 1
 379 335 363 339 347 339 c 0
 285 339 266 292 253 231 c 1
 253 0 l 1
 31 0 l 1
 31 536 l 1
 225 536 l 1
 244 440 l 1
 264 506 319 554 376 554 c 0
142 -58 m 0
 200 -58 242 -101 242 -157 c 0
 242 -191 231 -215 214 -249 c 2
 162 -353 l 1
 58 -353 l 1
 82 -239 l 1
 59 -220 41 -194 41 -157 c 0
 41 -104 83 -58 142 -58 c 0
EndSplineSet
EndChar

StartChar: uni0158
Encoding: 344 344 249
Width: 630
Flags: W
LayerCount: 2
Fore
SplineSet
369 745 m 1
 237 745 l 1
 90 893 l 1
 164 978 l 1
 303 891 l 1
 443 978 l 1
 517 893 l 1
 369 745 l 1
404 0 m 1
 283 238 l 1
 262 238 l 1
 262 0 l 1
 31 0 l 1
 31 698 l 1
 302 698 l 2
 507 698 610 629 610 471 c 0
 610 386 575 334 493 281 c 1
 659 0 l 1
 404 0 l 1
262 541 m 1
 262 391 l 1
 306 391 l 2
 353 391 375 417 375 471 c 0
 375 519 345 541 296 541 c 2
 262 541 l 1
EndSplineSet
EndChar

StartChar: uni0159
Encoding: 345 345 250
Width: 416
Flags: W
LayerCount: 2
Fore
SplineSet
296 597 m 1
 164 597 l 1
 17 756 l 1
 91 840 l 1
 230 742 l 1
 370 840 l 1
 444 756 l 1
 296 597 l 1
244 440 m 1
 264 506 319 554 376 554 c 0
 397 554 411 551 430 544 c 1
 396 330 l 1
 379 335 363 339 347 339 c 0
 285 339 266 292 253 231 c 1
 253 0 l 1
 31 0 l 1
 31 536 l 1
 225 536 l 1
 244 440 l 1
EndSplineSet
EndChar

StartChar: uni015A
Encoding: 346 346 251
Width: 597
Flags: W
LayerCount: 2
Fore
SplineSet
396 1000 m 1
 473 841 l 1
 210 747 l 1
 154 858 l 1
 396 1000 l 1
305 719 m 0
 421 719 507 684 572 621 c 1
 471 502 l 1
 426 538 378 557 324 557 c 0
 280 557 261 542 261 518 c 0
 261 488 285 481 380 450 c 0
 527 402 588 337 588 212 c 0
 588 75 474 -22 284 -22 c 0
 144 -22 51 31 -6 87 c 1
 106 210 l 1
 156 167 212 143 275 143 c 0
 329 143 348 166 348 192 c 0
 348 226 329 241 243 268 c 0
 70 323 23 398 23 499 c 0
 23 637 145 719 305 719 c 0
EndSplineSet
EndChar

StartChar: uni015B
Encoding: 347 347 252
Width: 493
Flags: W
LayerCount: 2
Fore
SplineSet
320 869 m 1
 402 709 l 1
 142 607 l 1
 83 718 l 1
 320 869 l 1
260 557 m 0
 341 557 423 529 472 487 c 1
 394 368 l 1
 358 390 311 405 269 405 c 0
 242 405 236 399 236 392 c 0
 236 380 238 374 340 342 c 0
 439 311 495 266 495 168 c 0
 495 56 387 -22 231 -22 c 0
 136 -22 45 12 -12 67 c 1
 93 182 l 1
 129 153 179 129 225 129 c 0
 253 129 269 136 269 151 c 0
 269 171 261 172 172 200 c 0
 74 230 17 290 17 378 c 0
 17 477 101 557 260 557 c 0
EndSplineSet
EndChar

StartChar: uni015E
Encoding: 350 350 253
Width: 597
Flags: W
LayerCount: 2
Fore
SplineSet
588 212 m 0
 588 92 501 3 352 -18 c 1
 352 -39 l 1
 427 -49 466 -87 466 -153 c 0
 466 -224 405 -283 292 -283 c 0
 237 -283 189 -266 159 -247 c 1
 206 -152 l 1
 227 -164 247 -171 271 -171 c 0
 298 -171 314 -166 314 -151 c 0
 314 -130 285 -124 219 -124 c 1
 232 -19 l 1
 121 -8 44 38 -6 87 c 1
 106 210 l 1
 156 167 212 143 275 143 c 0
 329 143 348 166 348 192 c 0
 348 226 329 241 243 268 c 0
 70 323 23 398 23 499 c 0
 23 637 145 719 305 719 c 0
 421 719 507 684 572 621 c 1
 471 502 l 1
 426 538 378 557 324 557 c 0
 280 557 261 542 261 518 c 0
 261 488 285 481 380 450 c 0
 527 402 588 337 588 212 c 0
EndSplineSet
EndChar

StartChar: uni015F
Encoding: 351 351 254
Width: 493
Flags: W
LayerCount: 2
Fore
SplineSet
495 168 m 0
 495 76 423 8 311 -15 c 1
 311 -39 l 1
 386 -49 425 -87 425 -153 c 0
 425 -224 364 -283 251 -283 c 0
 196 -283 148 -266 118 -247 c 1
 165 -152 l 1
 186 -164 206 -171 230 -171 c 0
 257 -171 273 -166 273 -151 c 0
 273 -130 244 -124 178 -124 c 1
 191 -20 l 1
 111 -12 37 20 -12 67 c 1
 93 182 l 1
 129 153 179 129 225 129 c 0
 253 129 269 136 269 151 c 0
 269 171 261 172 172 200 c 0
 74 230 17 290 17 378 c 0
 17 477 101 557 260 557 c 0
 341 557 423 529 472 487 c 1
 394 368 l 1
 358 390 311 405 269 405 c 0
 242 405 236 399 236 392 c 0
 236 380 238 374 340 342 c 0
 439 311 495 266 495 168 c 0
EndSplineSet
EndChar

StartChar: uni0160
Encoding: 352 352 255
Width: 597
Flags: W
LayerCount: 2
Fore
SplineSet
453 978 m 1
 527 893 l 1
 379 745 l 1
 247 745 l 1
 100 893 l 1
 174 978 l 1
 313 891 l 1
 453 978 l 1
305 719 m 0
 421 719 507 684 572 621 c 1
 471 502 l 1
 426 538 378 557 324 557 c 0
 280 557 261 542 261 518 c 0
 261 488 285 481 380 450 c 0
 527 402 588 337 588 212 c 0
 588 75 474 -22 284 -22 c 0
 144 -22 51 31 -6 87 c 1
 106 210 l 1
 156 167 212 143 275 143 c 0
 329 143 348 166 348 192 c 0
 348 226 329 241 243 268 c 0
 70 323 23 398 23 499 c 0
 23 637 145 719 305 719 c 0
EndSplineSet
EndChar

StartChar: uni0161
Encoding: 353 353 256
Width: 493
Flags: W
LayerCount: 2
Fore
SplineSet
393 840 m 1
 467 756 l 1
 319 597 l 1
 187 597 l 1
 40 756 l 1
 114 840 l 1
 253 742 l 1
 393 840 l 1
260 557 m 0
 341 557 423 529 472 487 c 1
 394 368 l 1
 358 390 311 405 269 405 c 0
 242 405 236 399 236 392 c 0
 236 380 238 374 340 342 c 0
 439 311 495 266 495 168 c 0
 495 56 387 -22 231 -22 c 0
 136 -22 45 12 -12 67 c 1
 93 182 l 1
 129 153 179 129 225 129 c 0
 253 129 269 136 269 151 c 0
 269 171 261 172 172 200 c 0
 74 230 17 290 17 378 c 0
 17 477 101 557 260 557 c 0
EndSplineSet
EndChar

StartChar: uni0162
Encoding: 354 354 257
Width: 564
Flags: W
LayerCount: 2
Fore
SplineSet
548 527 m 1
 397 527 l 1
 397 16 l 1
 398 16 l 1
 398 -39 l 1
 472 -49 511 -87 511 -153 c 0
 511 -224 450 -283 337 -283 c 0
 282 -283 233 -265 204 -247 c 1
 251 -152 l 1
 272 -164 292 -171 314 -171 c 0
 344 -171 359 -166 359 -149 c 0
 359 -130 330 -124 264 -124 c 1
 280 0 l 1
 166 0 l 1
 166 527 l 1
 3 527 l 1
 3 698 l 1
 572 698 l 1
 548 527 l 1
EndSplineSet
EndChar

StartChar: uni0163
Encoding: 355 355 258
Width: 411
Flags: W
LayerCount: 2
Fore
SplineSet
298 -39 m 1
 373 -49 412 -87 412 -153 c 0
 412 -224 351 -283 238 -283 c 0
 183 -283 135 -266 105 -247 c 1
 152 -152 l 1
 173 -164 193 -171 217 -171 c 0
 244 -171 260 -166 260 -151 c 0
 260 -130 231 -124 165 -124 c 1
 180 -10 l 1
 93 17 54 91 54 209 c 2
 54 387 l 1
 -5 387 l 1
 -5 536 l 1
 54 536 l 1
 54 646 l 1
 276 671 l 1
 276 536 l 1
 394 536 l 1
 372 387 l 1
 276 387 l 1
 276 211 l 2
 276 163 292 151 312 151 c 0
 325 151 341 155 357 164 c 1
 428 27 l 1
 393 2 342 -14 298 -19 c 1
 298 -39 l 1
EndSplineSet
EndChar

StartChar: uni0164
Encoding: 356 356 259
Width: 564
Flags: W
LayerCount: 2
Fore
SplineSet
421 978 m 1
 495 893 l 1
 347 745 l 1
 215 745 l 1
 68 893 l 1
 142 978 l 1
 281 891 l 1
 421 978 l 1
572 698 m 1
 548 527 l 1
 397 527 l 1
 397 0 l 1
 166 0 l 1
 166 527 l 1
 3 527 l 1
 3 698 l 1
 572 698 l 1
EndSplineSet
EndChar

StartChar: uni0165
Encoding: 357 357 260
Width: 411
Flags: W
LayerCount: 2
Fore
SplineSet
470 808 m 1
 409 562 l 1
 289 580 l 1
 315 831 l 1
 470 808 l 1
312 151 m 0
 325 151 341 155 357 164 c 1
 428 27 l 1
 382 -6 311 -22 260 -22 c 0
 116 -20 54 60 54 209 c 2
 54 387 l 1
 -5 387 l 1
 -5 536 l 1
 54 536 l 1
 54 646 l 1
 276 671 l 1
 276 536 l 1
 394 536 l 1
 372 387 l 1
 276 387 l 1
 276 211 l 2
 276 163 292 151 312 151 c 0
EndSplineSet
EndChar

StartChar: uni016A
Encoding: 362 362 261
Width: 642
Flags: W
LayerCount: 2
Fore
SplineSet
490 769 m 1
 151 769 l 1
 151 918 l 1
 490 918 l 1
 490 769 l 1
621 698 m 1
 621 240 l 2
 621 96 525 -22 321 -22 c 0
 117 -22 21 84 21 240 c 2
 21 698 l 1
 252 698 l 1
 252 246 l 2
 252 175 270 143 321 143 c 0
 372 143 390 175 390 246 c 2
 390 698 l 1
 621 698 l 1
EndSplineSet
EndChar

StartChar: uni016B
Encoding: 363 363 262
Width: 562
Flags: W
LayerCount: 2
Fore
SplineSet
447 643 m 1
 108 643 l 1
 108 792 l 1
 447 792 l 1
 447 643 l 1
531 536 m 1
 531 0 l 1
 337 0 l 1
 329 52 l 1
 292 2 238 -22 173 -22 c 0
 67 -22 24 48 24 150 c 2
 24 536 l 1
 246 536 l 1
 246 180 l 2
 246 145 257 139 267 139 c 0
 276 139 294 146 309 172 c 1
 309 536 l 1
 531 536 l 1
EndSplineSet
EndChar

StartChar: uni016E
Encoding: 366 366 263
Width: 642
Flags: W
LayerCount: 2
Fore
SplineSet
321 1023 m 0
 425 1023 485 950 485 868 c 0
 485 786 425 712 321 712 c 0
 218 712 158 786 158 868 c 0
 158 950 218 1023 321 1023 c 0
321 912 m 0
 301 912 284 900 284 868 c 0
 284 837 301 824 321 824 c 0
 342 824 359 837 359 868 c 0
 359 900 342 912 321 912 c 0
621 698 m 1
 621 240 l 2
 621 96 525 -22 321 -22 c 0
 117 -22 21 84 21 240 c 2
 21 698 l 1
 252 698 l 1
 252 246 l 2
 252 175 270 143 321 143 c 0
 372 143 390 175 390 246 c 2
 390 698 l 1
 621 698 l 1
EndSplineSet
EndChar

StartChar: uni016F
Encoding: 367 367 264
Width: 562
Flags: W
LayerCount: 2
Fore
SplineSet
277 897 m 0
 381 897 441 824 441 742 c 0
 441 660 381 586 277 586 c 0
 174 586 114 660 114 742 c 0
 114 824 174 897 277 897 c 0
277 786 m 0
 257 786 240 774 240 742 c 0
 240 711 257 698 277 698 c 0
 298 698 315 711 315 742 c 0
 315 774 298 786 277 786 c 0
531 536 m 1
 531 0 l 1
 337 0 l 1
 329 52 l 1
 292 2 238 -22 173 -22 c 0
 67 -22 24 48 24 150 c 2
 24 536 l 1
 246 536 l 1
 246 180 l 2
 246 145 257 139 267 139 c 0
 276 139 294 146 309 172 c 1
 309 536 l 1
 531 536 l 1
EndSplineSet
EndChar

StartChar: uni0170
Encoding: 368 368 265
Width: 642
Flags: W
LayerCount: 2
Fore
SplineSet
256 988 m 1
 391 918 l 1
 261 747 l 1
 167 796 l 1
 256 988 l 1
447 979 m 1
 578 902 l 1
 439 738 l 1
 348 791 l 1
 447 979 l 1
621 698 m 1
 621 240 l 2
 621 96 525 -22 321 -22 c 0
 117 -22 21 84 21 240 c 2
 21 698 l 1
 252 698 l 1
 252 246 l 2
 252 175 270 143 321 143 c 0
 372 143 390 175 390 246 c 2
 390 698 l 1
 621 698 l 1
EndSplineSet
EndChar

StartChar: uni0171
Encoding: 369 369 266
Width: 562
Flags: W
LayerCount: 2
Fore
SplineSet
230 856 m 1
 365 786 l 1
 235 605 l 1
 141 653 l 1
 230 856 l 1
421 847 m 1
 552 769 l 1
 413 595 l 1
 322 649 l 1
 421 847 l 1
531 536 m 1
 531 0 l 1
 337 0 l 1
 329 52 l 1
 292 2 238 -22 173 -22 c 0
 67 -22 24 48 24 150 c 2
 24 536 l 1
 246 536 l 1
 246 180 l 2
 246 145 257 139 267 139 c 0
 276 139 294 146 309 172 c 1
 309 536 l 1
 531 536 l 1
EndSplineSet
EndChar

StartChar: uni0172
Encoding: 370 370 267
Width: 642
Flags: W
LayerCount: 2
Fore
SplineSet
390 698 m 1
 621 698 l 1
 621 240 l 2
 621 127 562 29 437 -7 c 1
 358 -36 343 -72 343 -91 c 0
 343 -121 362 -134 392 -134 c 0
 411 -134 432 -131 454 -125 c 1
 441 -252 l 1
 419 -257 392 -260 364 -260 c 0
 271 -260 196 -213 196 -128 c 0
 196 -78 224 -43 266 -19 c 1
 100 -2 21 99 21 240 c 2
 21 698 l 1
 252 698 l 1
 252 246 l 2
 252 175 270 143 321 143 c 0
 372 143 390 175 390 246 c 2
 390 698 l 1
EndSplineSet
EndChar

StartChar: uni0173
Encoding: 371 371 268
Width: 562
Flags: W
LayerCount: 2
Fore
SplineSet
531 0 m 1
 434 -30 417 -71 417 -91 c 0
 417 -121 437 -134 467 -134 c 0
 485 -134 506 -131 528 -125 c 1
 515 -252 l 1
 493 -257 466 -260 438 -260 c 0
 345 -260 270 -213 270 -128 c 0
 270 -72 296 -31 339 0 c 1
 337 0 l 1
 329 52 l 1
 292 2 238 -22 173 -22 c 0
 67 -22 24 48 24 150 c 2
 24 536 l 1
 246 536 l 1
 246 180 l 2
 246 145 257 139 267 139 c 0
 276 139 294 146 309 172 c 1
 309 536 l 1
 531 536 l 1
 531 0 l 1
EndSplineSet
EndChar

StartChar: uni0178
Encoding: 376 376 269
Width: 637
Flags: W
LayerCount: 2
Fore
SplineSet
188 957 m 0
 247 957 293 912 293 856 c 0
 293 799 247 754 188 754 c 0
 131 754 84 799 84 856 c 0
 84 912 131 957 188 957 c 0
443 957 m 0
 502 957 547 912 547 856 c 0
 547 799 502 754 443 754 c 0
 386 754 338 799 338 856 c 0
 338 912 386 957 443 957 c 0
656 698 m 1
 434 255 l 1
 434 0 l 1
 203 0 l 1
 203 254 l 1
 -20 698 l 1
 232 698 l 1
 321 427 l 1
 412 698 l 1
 656 698 l 1
EndSplineSet
EndChar

StartChar: uni0179
Encoding: 377 377 270
Width: 564
Flags: W
LayerCount: 2
Fore
SplineSet
364 1000 m 1
 441 841 l 1
 178 747 l 1
 122 858 l 1
 364 1000 l 1
544 698 m 1
 544 527 l 1
 282 179 l 1
 556 179 l 1
 534 0 l 1
 6 0 l 1
 6 168 l 1
 278 524 l 1
 32 524 l 1
 32 698 l 1
 544 698 l 1
EndSplineSet
EndChar

StartChar: uni017A
Encoding: 378 378 271
Width: 475
Flags: W
LayerCount: 2
Fore
SplineSet
312 869 m 1
 394 709 l 1
 134 607 l 1
 75 718 l 1
 312 869 l 1
466 536 m 1
 466 383 l 1
 260 162 l 1
 475 162 l 1
 456 0 l 1
 1 0 l 1
 1 154 l 1
 211 376 l 1
 20 376 l 1
 20 536 l 1
 466 536 l 1
EndSplineSet
EndChar

StartChar: uni017B
Encoding: 379 379 272
Width: 564
Flags: W
LayerCount: 2
Fore
SplineSet
281 968 m 0
 353 968 404 917 404 851 c 0
 404 785 353 734 281 734 c 0
 210 734 159 785 159 851 c 0
 159 917 210 968 281 968 c 0
544 698 m 1
 544 527 l 1
 282 179 l 1
 556 179 l 1
 534 0 l 1
 6 0 l 1
 6 168 l 1
 278 524 l 1
 32 524 l 1
 32 698 l 1
 544 698 l 1
EndSplineSet
EndChar

StartChar: uni017C
Encoding: 380 380 273
Width: 475
Flags: W
LayerCount: 2
Fore
SplineSet
245 842 m 0
 317 842 368 791 368 725 c 0
 368 659 317 608 245 608 c 0
 174 608 123 659 123 725 c 0
 123 791 174 842 245 842 c 0
466 536 m 1
 466 383 l 1
 260 162 l 1
 475 162 l 1
 456 0 l 1
 1 0 l 1
 1 154 l 1
 211 376 l 1
 20 376 l 1
 20 536 l 1
 466 536 l 1
EndSplineSet
EndChar

StartChar: uni017D
Encoding: 381 381 274
Width: 564
Flags: W
LayerCount: 2
Fore
SplineSet
421 978 m 1
 495 893 l 1
 347 745 l 1
 215 745 l 1
 68 893 l 1
 142 978 l 1
 281 891 l 1
 421 978 l 1
544 698 m 1
 544 527 l 1
 282 179 l 1
 556 179 l 1
 534 0 l 1
 6 0 l 1
 6 168 l 1
 278 524 l 1
 32 524 l 1
 32 698 l 1
 544 698 l 1
EndSplineSet
EndChar

StartChar: uni017E
Encoding: 382 382 275
Width: 475
Flags: W
LayerCount: 2
Fore
SplineSet
385 840 m 1
 459 756 l 1
 311 597 l 1
 179 597 l 1
 32 756 l 1
 106 840 l 1
 245 742 l 1
 385 840 l 1
466 536 m 1
 466 383 l 1
 260 162 l 1
 475 162 l 1
 456 0 l 1
 1 0 l 1
 1 154 l 1
 211 376 l 1
 20 376 l 1
 20 536 l 1
 466 536 l 1
EndSplineSet
EndChar

StartChar: uni0192
Encoding: 402 402 276
Width: 401
Flags: W
LayerCount: 2
Fore
SplineSet
351 610 m 0
 300 610 290 594 290 546 c 2
 290 536 l 1
 412 536 l 1
 387 387 l 1
 290 387 l 1
 290 85 l 2
 289 -110 169 -188 31 -231 c 1
 -46 -70 l 1
 21 -39 68 -9 68 73 c 2
 68 387 l 1
 -11 387 l 1
 -11 536 l 1
 68 536 l 1
 68 557 l 2
 68 672 144 767 308 767 c 0
 380 767 446 749 490 729 c 1
 433 590 l 1
 399 605 375 610 351 610 c 0
EndSplineSet
EndChar

StartChar: uni0218
Encoding: 536 536 277
Width: 597
Flags: W
LayerCount: 2
Fore
SplineSet
305 719 m 0
 421 719 507 684 572 621 c 1
 471 502 l 1
 426 538 378 557 324 557 c 0
 280 557 261 542 261 518 c 0
 261 488 285 481 380 450 c 0
 527 402 588 337 588 212 c 0
 588 75 474 -22 284 -22 c 0
 144 -22 51 31 -6 87 c 1
 106 210 l 1
 156 167 212 143 275 143 c 0
 329 143 348 166 348 192 c 0
 348 226 329 241 243 268 c 0
 70 323 23 398 23 499 c 0
 23 637 145 719 305 719 c 0
298 -58 m 0
 356 -58 398 -101 398 -157 c 0
 398 -191 387 -215 370 -249 c 2
 318 -353 l 1
 214 -353 l 1
 238 -239 l 1
 215 -220 197 -194 197 -157 c 0
 197 -104 239 -58 298 -58 c 0
EndSplineSet
EndChar

StartChar: uni0219
Encoding: 537 537 278
Width: 493
Flags: W
LayerCount: 2
Fore
SplineSet
260 557 m 0
 341 557 423 529 472 487 c 1
 394 368 l 1
 358 390 311 405 269 405 c 0
 242 405 236 399 236 392 c 0
 236 380 238 374 340 342 c 0
 439 311 495 266 495 168 c 0
 495 56 387 -22 231 -22 c 0
 136 -22 45 12 -12 67 c 1
 93 182 l 1
 129 153 179 129 225 129 c 0
 253 129 269 136 269 151 c 0
 269 171 261 172 172 200 c 0
 74 230 17 290 17 378 c 0
 17 477 101 557 260 557 c 0
249 -58 m 0
 307 -58 349 -101 349 -157 c 0
 349 -191 338 -215 321 -249 c 2
 269 -353 l 1
 165 -353 l 1
 189 -239 l 1
 166 -220 148 -194 148 -157 c 0
 148 -104 190 -58 249 -58 c 0
EndSplineSet
EndChar

StartChar: uni021A
Encoding: 538 538 279
Width: 564
Flags: W
LayerCount: 2
Fore
SplineSet
572 698 m 1
 548 527 l 1
 397 527 l 1
 397 0 l 1
 166 0 l 1
 166 527 l 1
 3 527 l 1
 3 698 l 1
 572 698 l 1
282 -58 m 0
 340 -58 382 -101 382 -157 c 0
 382 -191 371 -215 354 -249 c 2
 302 -353 l 1
 198 -353 l 1
 222 -239 l 1
 199 -220 181 -194 181 -157 c 0
 181 -104 223 -58 282 -58 c 0
EndSplineSet
EndChar

StartChar: uni021B
Encoding: 539 539 280
Width: 411
Flags: W
LayerCount: 2
Fore
SplineSet
428 27 m 1
 382 -6 311 -22 260 -22 c 0
 116 -20 54 60 54 209 c 2
 54 387 l 1
 -5 387 l 1
 -5 536 l 1
 54 536 l 1
 54 646 l 1
 276 671 l 1
 276 536 l 1
 394 536 l 1
 372 387 l 1
 276 387 l 1
 276 211 l 2
 276 163 292 151 312 151 c 0
 325 151 341 155 357 164 c 1
 428 27 l 1
235 -58 m 0
 293 -58 335 -101 335 -157 c 0
 335 -191 324 -215 307 -249 c 2
 255 -353 l 1
 151 -353 l 1
 175 -239 l 1
 152 -220 134 -194 134 -157 c 0
 134 -104 176 -58 235 -58 c 0
EndSplineSet
EndChar

StartChar: uni0237
Encoding: 567 567 281
Width: 284
Flags: W
LayerCount: 2
Fore
SplineSet
253 536 m 1
 253 87 l 2
 253 -109 132 -188 -6 -231 c 1
 -83 -70 l 1
 -17 -39 31 -9 31 73 c 2
 31 536 l 1
 253 536 l 1
EndSplineSet
EndChar

StartChar: uni0300
Encoding: 768 768 282
Width: 0
Flags: W
LayerCount: 2
Fore
SplineSet
-267 869 m 1
 -30 718 l 1
 -89 607 l 1
 -349 709 l 1
 -267 869 l 1
EndSplineSet
EndChar

StartChar: uni0301
Encoding: 769 769 283
Width: 0
Flags: W
LayerCount: 2
Fore
SplineSet
-112 869 m 1
 -30 709 l 1
 -290 607 l 1
 -349 718 l 1
 -112 869 l 1
EndSplineSet
EndChar

StartChar: uni0302
Encoding: 770 770 284
Width: 0
Flags: W
LayerCount: 2
Fore
SplineSet
-383 607 m 1
 -457 692 l 1
 -309 850 l 1
 -178 850 l 1
 -30 692 l 1
 -104 607 l 1
 -243 705 l 1
 -383 607 l 1
EndSplineSet
EndChar

StartChar: uni0303
Encoding: 771 771 285
Width: 0
Flags: W
LayerCount: 2
Fore
SplineSet
-182 614 m 0
 -210 614 -226 619 -247 635 c 0
 -268 649 -277 657 -294 657 c 0
 -319 657 -331 642 -346 614 c 1
 -449 663 l 1
 -422 742 -370 810 -300 810 c 0
 -267 810 -250 803 -229 789 c 0
 -209 775 -198 768 -184 768 c 0
 -159 768 -148 783 -133 811 c 1
 -30 762 l 1
 -56 685 -108 614 -182 614 c 0
EndSplineSet
EndChar

StartChar: uni0304
Encoding: 772 772 286
Width: 0
Flags: W
LayerCount: 2
Fore
SplineSet
-30 643 m 1
 -369 643 l 1
 -369 792 l 1
 -30 792 l 1
 -30 643 l 1
EndSplineSet
EndChar

StartChar: uni0305
Encoding: 773 773 287
Width: 0
Flags: W
LayerCount: 2
Fore
SplineSet
-30 646 m 1
 -522 646 l 1
 -522 749 l 1
 -30 749 l 1
 -30 646 l 1
EndSplineSet
EndChar

StartChar: uni0306
Encoding: 774 774 288
Width: 0
Flags: W
LayerCount: 2
Fore
SplineSet
-224 622 m 0
 -353 622 -410 725 -418 832 c 1
 -304 850 l 1
 -294 804 -268 770 -224 770 c 0
 -179 770 -154 804 -144 850 c 1
 -30 832 l 1
 -38 725 -95 622 -224 622 c 0
EndSplineSet
EndChar

StartChar: uni0307
Encoding: 775 775 289
Width: 0
Flags: W
LayerCount: 2
Fore
SplineSet
-153 842 m 0
 -81 842 -30 791 -30 725 c 0
 -30 659 -81 608 -153 608 c 0
 -224 608 -275 659 -275 725 c 0
 -275 791 -224 842 -153 842 c 0
EndSplineSet
EndChar

StartChar: uni0308
Encoding: 776 776 290
Width: 0
Flags: W
LayerCount: 2
Fore
SplineSet
-389 831 m 0
 -330 831 -284 786 -284 730 c 0
 -284 673 -330 628 -389 628 c 0
 -446 628 -493 673 -493 730 c 0
 -493 786 -446 831 -389 831 c 0
-134 831 m 0
 -75 831 -30 786 -30 730 c 0
 -30 673 -75 628 -134 628 c 0
 -191 628 -239 673 -239 730 c 0
 -239 786 -191 831 -134 831 c 0
EndSplineSet
EndChar

StartChar: uni0309
Encoding: 777 777 291
Width: 0
Flags: W
LayerCount: 2
Fore
SplineSet
-225 598 m 1
 -225 705 l 1
 -172 705 -154 715 -154 738 c 0
 -154 754 -168 764 -189 764 c 0
 -214 764 -230 759 -252 751 c 1
 -283 831 l 1
 -252 850 -213 860 -159 860 c 0
 -66 860 -18 812 -18 747 c 0
 -18 693 -48 658 -106 646 c 1
 -106 598 l 1
 -225 598 l 1
EndSplineSet
EndChar

StartChar: uni030A
Encoding: 778 778 292
Width: 0
Flags: W
LayerCount: 2
Fore
SplineSet
-194 897 m 0
 -90 897 -30 824 -30 742 c 0
 -30 660 -90 586 -194 586 c 0
 -297 586 -357 660 -357 742 c 0
 -357 824 -297 897 -194 897 c 0
-194 786 m 0
 -214 786 -231 774 -231 742 c 0
 -231 711 -214 698 -194 698 c 0
 -173 698 -156 711 -156 742 c 0
 -156 774 -173 786 -194 786 c 0
EndSplineSet
EndChar

StartChar: uni030B
Encoding: 779 779 293
Width: 0
Flags: W
LayerCount: 2
Fore
SplineSet
-352 856 m 1
 -217 786 l 1
 -347 605 l 1
 -441 653 l 1
 -352 856 l 1
-161 847 m 1
 -30 769 l 1
 -169 595 l 1
 -260 649 l 1
 -161 847 l 1
EndSplineSet
EndChar

StartChar: uni030C
Encoding: 780 780 294
Width: 0
Flags: W
LayerCount: 2
Fore
SplineSet
-104 840 m 1
 -30 756 l 1
 -178 597 l 1
 -310 597 l 1
 -457 756 l 1
 -383 840 l 1
 -244 742 l 1
 -104 840 l 1
EndSplineSet
EndChar

StartChar: uni030D
Encoding: 781 781 295
Width: 0
Flags: W
LayerCount: 2
Fore
SplineSet
-219 613 m 1
 -219 904 l 1
 -30 904 l 1
 -30 613 l 1
 -219 613 l 1
EndSplineSet
EndChar

StartChar: uni030F
Encoding: 783 783 296
Width: 0
Flags: W
LayerCount: 2
Fore
SplineSet
-330 888 m 1
 -222 667 l 1
 -328 616 l 1
 -465 822 l 1
 -330 888 l 1
-130 888 m 1
 -30 663 l 1
 -138 620 l 1
 -267 828 l 1
 -130 888 l 1
EndSplineSet
EndChar

StartChar: uni0311
Encoding: 785 785 297
Width: 0
Flags: W
LayerCount: 2
Fore
SplineSet
-224 818 m 0
 -95 818 -38 715 -30 607 c 1
 -144 589 l 1
 -154 636 -179 669 -224 669 c 0
 -268 669 -294 636 -304 589 c 1
 -418 607 l 1
 -410 715 -353 818 -224 818 c 0
EndSplineSet
EndChar

StartChar: uni0312
Encoding: 786 786 298
Width: 0
Flags: W
LayerCount: 2
Fore
SplineSet
-129 570 m 0
 -188 570 -229 613 -229 670 c 0
 -229 703 -218 727 -201 761 c 2
 -149 865 l 1
 -46 865 l 1
 -69 751 l 1
 -46 733 -29 707 -29 670 c 0
 -29 616 -70 570 -129 570 c 0
EndSplineSet
EndChar

StartChar: uni0313
Encoding: 787 787 299
Width: 0
Flags: W
LayerCount: 2
Fore
SplineSet
-130 877 m 0
 -72 877 -30 834 -30 777 c 0
 -30 744 -41 720 -58 686 c 2
 -110 582 l 1
 -214 582 l 1
 -190 696 l 1
 -213 715 -231 741 -231 777 c 0
 -231 831 -189 877 -130 877 c 0
EndSplineSet
EndChar

StartChar: uni0316
Encoding: 790 790 300
Width: 0
Flags: W
LayerCount: 2
Fore
SplineSet
-270 -33 m 1
 -30 -176 l 1
 -86 -286 l 1
 -349 -192 l 1
 -270 -33 l 1
EndSplineSet
EndChar

StartChar: uni0317
Encoding: 791 791 301
Width: 0
Flags: W
LayerCount: 2
Fore
SplineSet
-107 -33 m 1
 -30 -192 l 1
 -293 -286 l 1
 -349 -176 l 1
 -107 -33 l 1
EndSplineSet
EndChar

StartChar: uni0318
Encoding: 792 792 302
Width: 0
Flags: W
LayerCount: 2
Fore
SplineSet
-156 -53 m 1
 -30 -53 l 1
 -30 -357 l 1
 -156 -357 l 1
 -156 -262 l 1
 -261 -262 l 1
 -261 -149 l 1
 -156 -149 l 1
 -156 -53 l 1
EndSplineSet
EndChar

StartChar: uni0319
Encoding: 793 793 303
Width: 0
Flags: W
LayerCount: 2
Fore
SplineSet
-135 -53 m 1
 -135 -149 l 1
 -30 -149 l 1
 -30 -262 l 1
 -135 -262 l 1
 -135 -357 l 1
 -261 -357 l 1
 -261 -53 l 1
 -135 -53 l 1
EndSplineSet
EndChar

StartChar: uni031A
Encoding: 794 794 304
Width: 0
Flags: W
LayerCount: 2
Fore
SplineSet
-267 824 m 1
 -30 824 l 1
 -30 597 l 1
 -154 597 l 1
 -154 714 l 1
 -267 714 l 1
 -267 824 l 1
EndSplineSet
EndChar

StartChar: uni031B
Encoding: 795 795 305
Width: 0
Flags: W
LayerCount: 2
Fore
SplineSet
-204 373 m 1
 -214 472 l 1
 -180 474 -170 493 -170 533 c 0
 -170 559 -174 576 -181 596 c 1
 -49 612 l 1
 -40 593 -30 566 -30 518 c 0
 -30 419 -98 372 -204 373 c 1
EndSplineSet
EndChar

StartChar: uni031C
Encoding: 796 796 306
Width: 0
Flags: W
LayerCount: 2
Fore
SplineSet
-30 -351 m 1
 -30 -239 l 1
 -50 -239 -67 -226 -67 -195 c 0
 -67 -164 -54 -151 -30 -151 c 1
 -30 -40 l 1
 -133 -40 -193 -113 -193 -195 c 0
 -193 -277 -133 -351 -30 -351 c 1
EndSplineSet
EndChar

StartChar: uni031D
Encoding: 797 797 307
Width: 0
Flags: W
LayerCount: 2
Fore
SplineSet
-30 -220 m 1
 -30 -335 l 1
 -380 -335 l 1
 -380 -220 l 1
 -274 -220 l 1
 -274 -82 l 1
 -137 -82 l 1
 -137 -220 l 1
 -30 -220 l 1
EndSplineSet
EndChar

StartChar: uni031E
Encoding: 798 798 308
Width: 0
Flags: W
LayerCount: 2
Fore
SplineSet
-30 -197 m 1
 -137 -197 l 1
 -137 -335 l 1
 -274 -335 l 1
 -274 -197 l 1
 -380 -197 l 1
 -380 -82 l 1
 -30 -82 l 1
 -30 -197 l 1
EndSplineSet
EndChar

StartChar: uni031F
Encoding: 799 799 309
Width: 0
Flags: W
LayerCount: 2
Fore
SplineSet
-121 -75 m 1
 -121 -160 l 1
 -30 -160 l 1
 -30 -270 l 1
 -121 -270 l 1
 -121 -355 l 1
 -253 -355 l 1
 -253 -270 l 1
 -345 -270 l 1
 -345 -160 l 1
 -253 -160 l 1
 -253 -75 l 1
 -121 -75 l 1
EndSplineSet
EndChar

StartChar: uni0320
Encoding: 800 800 310
Width: 0
Flags: W
LayerCount: 2
Fore
SplineSet
-345 -270 m 1
 -345 -160 l 1
 -30 -160 l 1
 -30 -270 l 1
 -345 -270 l 1
EndSplineSet
EndChar

StartChar: uni0321
Encoding: 801 801 311
Width: 0
Flags: W
LayerCount: 2
Fore
SplineSet
-271 -231 m 0
 -349 -231 -401 -211 -439 -184 c 1
 -368 -58 l 1
 -344 -69 -328 -75 -302 -75 c 0
 -270 -75 -252 -58 -252 -27 c 2
 -252 1 l 1
 -30 1 l 1
 -30 -7 l 2
 -30 -156 -128 -231 -271 -231 c 0
EndSplineSet
EndChar

StartChar: uni0323
Encoding: 803 803 312
Width: 0
Flags: W
LayerCount: 2
Fore
SplineSet
-153 -280 m 0
 -224 -280 -275 -229 -275 -163 c 0
 -275 -97 -224 -46 -153 -46 c 0
 -81 -46 -30 -97 -30 -163 c 0
 -30 -229 -81 -280 -153 -280 c 0
EndSplineSet
EndChar

StartChar: uni0324
Encoding: 804 804 313
Width: 0
Flags: W
LayerCount: 2
Fore
SplineSet
-389 -60 m 0
 -330 -60 -284 -105 -284 -161 c 0
 -284 -218 -330 -263 -389 -263 c 0
 -446 -263 -493 -218 -493 -161 c 0
 -493 -105 -446 -60 -389 -60 c 0
-134 -60 m 0
 -75 -60 -30 -105 -30 -161 c 0
 -30 -218 -75 -263 -134 -263 c 0
 -191 -263 -239 -218 -239 -161 c 0
 -239 -105 -191 -60 -134 -60 c 0
EndSplineSet
EndChar

StartChar: uni0325
Encoding: 805 805 314
Width: 0
Flags: W
LayerCount: 2
Fore
SplineSet
-194 -40 m 0
 -90 -40 -30 -113 -30 -195 c 0
 -30 -277 -90 -351 -194 -351 c 0
 -297 -351 -357 -277 -357 -195 c 0
 -357 -113 -297 -40 -194 -40 c 0
-194 -151 m 0
 -214 -151 -231 -164 -231 -195 c 0
 -231 -226 -214 -239 -194 -239 c 0
 -173 -239 -156 -226 -156 -195 c 0
 -156 -164 -173 -151 -194 -151 c 0
EndSplineSet
EndChar

StartChar: uni0326
Encoding: 806 806 315
Width: 0
Flags: W
LayerCount: 2
Fore
SplineSet
-130 -58 m 0
 -72 -58 -30 -101 -30 -157 c 0
 -30 -191 -41 -215 -58 -249 c 2
 -110 -353 l 1
 -214 -353 l 1
 -190 -239 l 1
 -213 -220 -231 -194 -231 -157 c 0
 -231 -104 -189 -58 -130 -58 c 0
EndSplineSet
EndChar

StartChar: uni0327
Encoding: 807 807 316
Width: 0
Flags: W
LayerCount: 2
Fore
SplineSet
-144 16 m 1
 -144 -39 l 1
 -69 -49 -30 -87 -30 -153 c 0
 -30 -224 -91 -283 -204 -283 c 0
 -259 -283 -307 -266 -337 -247 c 1
 -290 -152 l 1
 -269 -164 -249 -171 -225 -171 c 0
 -198 -171 -182 -166 -182 -151 c 0
 -182 -130 -211 -124 -277 -124 c 1
 -259 16 l 1
 -144 16 l 1
EndSplineSet
EndChar

StartChar: uni0328
Encoding: 808 808 317
Width: 0
Flags: W
LayerCount: 2
Fore
SplineSet
-64 67 m 1
 -30 0 l 1
 -127 -30 -144 -71 -144 -91 c 0
 -144 -121 -124 -134 -94 -134 c 0
 -76 -134 -55 -131 -33 -125 c 1
 -46 -252 l 1
 -68 -257 -95 -260 -123 -260 c 0
 -216 -260 -291 -213 -291 -128 c 0
 -291 -18 -187 36 -64 67 c 1
EndSplineSet
EndChar

StartChar: uni0329
Encoding: 809 809 318
Width: 0
Flags: W
LayerCount: 2
Fore
SplineSet
-218 -353 m 1
 -218 -62 l 1
 -29 -62 l 1
 -29 -353 l 1
 -218 -353 l 1
EndSplineSet
EndChar

StartChar: uni032A
Encoding: 810 810 319
Width: 0
Flags: W
LayerCount: 2
Fore
SplineSet
-359 -264 m 1
 -359 -83 l 1
 -30 -83 l 1
 -30 -264 l 1
 -154 -264 l 1
 -154 -186 l 1
 -234 -186 l 1
 -234 -264 l 1
 -359 -264 l 1
EndSplineSet
EndChar

StartChar: uni032B
Encoding: 811 811 320
Width: 0
Flags: W
LayerCount: 2
Fore
SplineSet
-116 -49 m 1
 -30 -60 l 1
 -35 -164 -74 -255 -159 -255 c 0
 -208 -255 -242 -225 -263 -178 c 1
 -283 -225 -317 -255 -366 -255 c 0
 -452 -255 -490 -164 -495 -60 c 1
 -409 -49 l 1
 -401 -97 -390 -119 -360 -119 c 0
 -330 -119 -320 -97 -311 -49 c 1
 -214 -49 l 1
 -206 -97 -195 -119 -165 -119 c 0
 -135 -119 -125 -97 -116 -49 c 1
EndSplineSet
EndChar

StartChar: uni032C
Encoding: 812 812 321
Width: 0
Flags: W
LayerCount: 2
Fore
SplineSet
-104 -52 m 1
 -30 -137 l 1
 -178 -285 l 1
 -310 -285 l 1
 -457 -137 l 1
 -383 -52 l 1
 -244 -139 l 1
 -104 -52 l 1
EndSplineSet
EndChar

StartChar: uni032D
Encoding: 813 813 322
Width: 0
Flags: W
LayerCount: 2
Fore
SplineSet
-383 -302 m 1
 -457 -217 l 1
 -309 -58 l 1
 -178 -58 l 1
 -30 -217 l 1
 -104 -302 l 1
 -243 -204 l 1
 -383 -302 l 1
EndSplineSet
EndChar

StartChar: uni032F
Encoding: 815 815 323
Width: 0
Flags: W
LayerCount: 2
Fore
SplineSet
-224 -41 m 0
 -95 -41 -38 -144 -30 -251 c 1
 -144 -270 l 1
 -154 -223 -179 -190 -224 -190 c 0
 -268 -190 -294 -223 -304 -270 c 1
 -418 -251 l 1
 -410 -144 -353 -41 -224 -41 c 0
EndSplineSet
EndChar

StartChar: uni0330
Encoding: 816 816 324
Width: 0
Flags: W
LayerCount: 2
Fore
SplineSet
-182 -238 m 0
 -210 -238 -226 -233 -247 -218 c 0
 -268 -204 -277 -196 -294 -196 c 0
 -319 -196 -331 -211 -346 -239 c 1
 -449 -190 l 1
 -422 -111 -370 -42 -300 -42 c 0
 -267 -42 -250 -49 -229 -63 c 0
 -209 -78 -198 -85 -184 -85 c 0
 -159 -85 -148 -69 -133 -42 c 1
 -30 -91 l 1
 -56 -168 -108 -238 -182 -238 c 0
EndSplineSet
EndChar

StartChar: uni0331
Encoding: 817 817 325
Width: 0
Flags: W
LayerCount: 2
Fore
SplineSet
-30 -209 m 1
 -369 -209 l 1
 -369 -60 l 1
 -30 -60 l 1
 -30 -209 l 1
EndSplineSet
EndChar

StartChar: uni0332
Encoding: 818 818 326
Width: 0
Flags: W
LayerCount: 2
Fore
SplineSet
-31 -209 m 1
 -539 -209 l 1
 -539 -60 l 1
 -31 -60 l 1
 -31 -209 l 1
EndSplineSet
EndChar

StartChar: uni0334
Encoding: 820 820 327
Width: 0
Flags: W
LayerCount: 2
Fore
SplineSet
-216 214 m 0
 -318 214 -342 274 -397 274 c 0
 -434 274 -445 250 -464 224 c 1
 -575 279 l 1
 -537 359 -485 435 -389 435 c 0
 -287 435 -263 375 -208 375 c 0
 -170 375 -160 400 -139 424 c 1
 -30 371 l 1
 -68 291 -120 214 -216 214 c 0
EndSplineSet
EndChar

StartChar: uni0335
Encoding: 821 821 328
Width: 0
Flags: W
LayerCount: 2
Fore
SplineSet
-383 230 m 1
 -383 396 l 1
 -30 396 l 1
 -30 230 l 1
 -383 230 l 1
EndSplineSet
EndChar

StartChar: uni0336
Encoding: 822 822 329
Width: 0
Flags: W
LayerCount: 2
Fore
SplineSet
-811 229 m 1
 -811 396 l 1
 -30 396 l 1
 -30 229 l 1
 -811 229 l 1
EndSplineSet
EndChar

StartChar: uni0339
Encoding: 825 825 330
Width: 0
Flags: W
LayerCount: 2
Fore
SplineSet
-193 -350 m 1
 -89 -350 -30 -276 -30 -194 c 0
 -30 -112 -89 -39 -193 -39 c 1
 -193 -150 l 1
 -169 -150 -156 -163 -156 -194 c 0
 -156 -225 -172 -238 -193 -238 c 1
 -193 -350 l 1
EndSplineSet
EndChar

StartChar: uni033A
Encoding: 826 826 331
Width: 0
Flags: W
LayerCount: 2
Fore
SplineSet
-359 -82 m 1
 -234 -82 l 1
 -234 -160 l 1
 -154 -160 l 1
 -154 -82 l 1
 -30 -82 l 1
 -30 -263 l 1
 -359 -263 l 1
 -359 -82 l 1
EndSplineSet
EndChar

StartChar: uni033B
Encoding: 827 827 332
Width: 0
Flags: W
LayerCount: 2
Fore
SplineSet
-360 -263 m 1
 -360 -55 l 1
 -30 -55 l 1
 -30 -263 l 1
 -360 -263 l 1
-268 -189 m 1
 -122 -189 l 1
 -122 -129 l 1
 -268 -129 l 1
 -268 -189 l 1
EndSplineSet
EndChar

StartChar: uni033C
Encoding: 828 828 333
Width: 0
Flags: W
LayerCount: 2
Fore
SplineSet
-159 -51 m 0
 -74 -51 -35 -142 -30 -246 c 1
 -116 -257 l 1
 -125 -209 -135 -187 -165 -187 c 0
 -195 -187 -206 -209 -214 -257 c 1
 -311 -257 l 1
 -320 -209 -330 -187 -360 -187 c 0
 -390 -187 -401 -209 -409 -257 c 1
 -495 -246 l 1
 -490 -142 -452 -51 -366 -51 c 0
 -317 -51 -283 -81 -263 -128 c 1
 -242 -81 -208 -51 -159 -51 c 0
EndSplineSet
EndChar

StartChar: uni033D
Encoding: 829 829 334
Width: 0
Flags: W
LayerCount: 2
Fore
SplineSet
-122 728 m 1
 -29 600 l 1
 -126 600 l 1
 -177 685 l 1
 -228 600 l 1
 -321 600 l 1
 -228 726 l 1
 -311 839 l 1
 -215 839 l 1
 -174 767 l 1
 -133 839 l 1
 -43 839 l 1
 -122 728 l 1
EndSplineSet
EndChar

StartChar: uni0342
Encoding: 834 834 335
Width: 0
Flags: W
LayerCount: 2
Fore
SplineSet
-182 614 m 0
 -210 614 -226 619 -247 635 c 0
 -268 649 -277 657 -294 657 c 0
 -319 657 -331 642 -346 614 c 1
 -449 663 l 1
 -422 742 -370 810 -300 810 c 0
 -267 810 -250 803 -229 789 c 0
 -209 775 -198 768 -184 768 c 0
 -159 768 -148 783 -133 811 c 1
 -30 762 l 1
 -56 685 -108 614 -182 614 c 0
EndSplineSet
EndChar

StartChar: uni0345
Encoding: 837 837 336
Width: 0
Flags: W
LayerCount: 2
Fore
SplineSet
-156 -218 m 0
 -257 -218 -309 -154 -309 -68 c 2
 -309 -44 l 1
 -162 -44 l 1
 -162 -64 l 2
 -162 -88 -151 -103 -125 -103 c 0
 -109 -103 -95 -98 -78 -90 c 1
 -30 -178 l 1
 -60 -202 -98 -218 -156 -218 c 0
EndSplineSet
EndChar

StartChar: uni035C
Encoding: 860 860 337
Width: 0
Flags: W
LayerCount: 2
Fore
SplineSet
346 -115 m 1
 264 -177 161 -237 -1 -237 c 0
 -164 -237 -267 -177 -349 -115 c 1
 -288 -25 l 1
 -222 -50 -122 -80 -1 -80 c 0
 118 -80 218 -50 284 -25 c 1
 346 -115 l 1
EndSplineSet
EndChar

StartChar: uni0361
Encoding: 865 865 338
Width: 0
Flags: W
LayerCount: 2
Fore
SplineSet
346 709 m 1
 284 619 l 1
 218 644 118 674 -1 674 c 0
 -122 674 -222 644 -288 619 c 1
 -349 709 l 1
 -267 770 -164 830 -1 830 c 0
 161 830 264 770 346 709 c 1
EndSplineSet
EndChar

StartChar: uni037E
Encoding: 894 894 339
Width: 245
Flags: W
LayerCount: 2
Fore
SplineSet
122 525 m 0
 184 525 234 474 234 413 c 0
 234 352 184 301 122 301 c 0
 61 301 10 352 10 413 c 0
 10 474 61 525 122 525 c 0
122 203 m 0
 186 203 234 155 234 91 c 0
 234 52 220 19 190 -49 c 2
 127 -189 l 1
 16 -189 l 1
 60 -1 l 1
 28 20 10 53 10 92 c 0
 10 155 58 203 122 203 c 0
EndSplineSet
EndChar

StartChar: uni0384
Encoding: 900 900 340
Width: 268
Flags: W
LayerCount: 2
Fore
SplineSet
30 866 m 1
 238 851 l 1
 181 596 l 1
 45 596 l 1
 30 866 l 1
EndSplineSet
EndChar

StartChar: uni0385
Encoding: 901 901 341
Width: 582
Flags: W
LayerCount: 2
Fore
SplineSet
217 986 m 1
 396 972 l 1
 347 753 l 1
 230 753 l 1
 217 986 l 1
134 782 m 0
 191 782 239 737 239 681 c 0
 239 624 191 579 134 579 c 0
 75 579 30 624 30 681 c 0
 30 737 75 782 134 782 c 0
448 782 m 0
 504 782 552 737 552 681 c 0
 552 624 504 579 448 579 c 0
 388 579 343 624 343 681 c 0
 343 737 388 782 448 782 c 0
EndSplineSet
EndChar

StartChar: uni0386
Encoding: 902 902 342
Width: 778
Flags: W
LayerCount: 2
Fore
SplineSet
81 713 m 1
 289 698 l 1
 232 443 l 1
 97 443 l 1
 81 713 l 1
566 0 m 1
 544 126 l 1
 402 126 l 1
 381 0 l 1
 139 0 l 1
 338 698 l 1
 613 698 l 1
 810 0 l 1
 566 0 l 1
429 286 m 1
 516 286 l 1
 472 538 l 1
 429 286 l 1
EndSplineSet
EndChar

StartChar: uni0387
Encoding: 903 903 343
Width: 245
Flags: W
LayerCount: 2
Fore
SplineSet
122 416 m 0
 184 416 234 365 234 304 c 0
 234 243 184 192 122 192 c 0
 61 192 10 243 10 304 c 0
 10 365 61 416 122 416 c 0
EndSplineSet
EndChar

StartChar: uni0388
Encoding: 904 904 344
Width: 809
Flags: W
LayerCount: 2
Fore
SplineSet
87 713 m 1
 295 698 l 1
 238 443 l 1
 103 443 l 1
 87 713 l 1
796 698 m 1
 772 539 l 1
 551 539 l 1
 551 431 l 1
 746 431 l 1
 746 276 l 1
 551 276 l 1
 551 160 l 1
 789 160 l 1
 789 0 l 1
 320 0 l 1
 320 698 l 1
 796 698 l 1
EndSplineSet
EndChar

StartChar: uni0389
Encoding: 905 905 345
Width: 943
Flags: W
LayerCount: 2
Fore
SplineSet
87 713 m 1
 295 698 l 1
 238 443 l 1
 103 443 l 1
 87 713 l 1
681 0 m 1
 681 272 l 1
 551 272 l 1
 551 0 l 1
 320 0 l 1
 320 698 l 1
 551 698 l 1
 551 448 l 1
 681 448 l 1
 681 698 l 1
 912 698 l 1
 912 0 l 1
 681 0 l 1
EndSplineSet
EndChar

StartChar: uni038A
Encoding: 906 906 346
Width: 582
Flags: W
LayerCount: 2
Fore
SplineSet
87 713 m 1
 295 698 l 1
 238 443 l 1
 103 443 l 1
 87 713 l 1
551 698 m 1
 551 0 l 1
 320 0 l 1
 320 698 l 1
 551 698 l 1
EndSplineSet
EndChar

StartChar: uni038C
Encoding: 908 908 347
Width: 911
Flags: W
LayerCount: 2
Fore
SplineSet
566 719 m 0
 783 719 899 581 899 350 c 0
 899 124 782 -22 566 -22 c 0
 350 -22 234 119 234 350 c 0
 234 576 350 719 566 719 c 0
76 713 m 1
 284 698 l 1
 227 443 l 1
 92 443 l 1
 76 713 l 1
566 557 m 0
 497 557 473 503 473 350 c 0
 473 197 497 140 566 140 c 0
 637 140 659 197 659 350 c 0
 659 503 635 557 566 557 c 0
EndSplineSet
EndChar

StartChar: uni038E
Encoding: 910 910 348
Width: 962
Flags: W
LayerCount: 2
Fore
SplineSet
88 713 m 1
 295 698 l 1
 239 443 l 1
 103 443 l 1
 88 713 l 1
981 698 m 1
 759 255 l 1
 759 0 l 1
 528 0 l 1
 528 254 l 1
 305 698 l 1
 557 698 l 1
 646 427 l 1
 737 698 l 1
 981 698 l 1
EndSplineSet
EndChar

StartChar: uni038F
Encoding: 911 911 349
Width: 946
Flags: W
LayerCount: 2
Fore
SplineSet
601 719 m 0
 817 719 934 565 934 400 c 0
 934 292 881 206 799 157 c 1
 913 157 l 1
 913 0 l 1
 624 0 l 1
 624 145 l 1
 701 186 694 257 694 400 c 0
 694 497 670 557 601 557 c 0
 532 557 508 497 508 400 c 0
 508 258 501 188 579 145 c 1
 579 0 l 1
 289 0 l 1
 289 157 l 1
 404 157 l 1
 321 206 268 292 268 400 c 0
 268 566 384 719 601 719 c 0
76 713 m 1
 284 698 l 1
 227 443 l 1
 92 443 l 1
 76 713 l 1
EndSplineSet
EndChar

StartChar: uni0390
Encoding: 912 912 350
Width: 281
Flags: W
LayerCount: 2
Fore
SplineSet
60 986 m 1
 239 972 l 1
 190 753 l 1
 73 753 l 1
 60 986 l 1
-23 782 m 0
 34 782 82 737 82 681 c 0
 82 624 34 579 -23 579 c 0
 -82 579 -127 624 -127 681 c 0
 -127 737 -82 782 -23 782 c 0
291 782 m 0
 347 782 395 737 395 681 c 0
 395 624 347 579 291 579 c 0
 231 579 186 624 186 681 c 0
 186 737 231 782 291 782 c 0
246 536 m 1
 246 215 l 2
 246 172 255 152 286 135 c 1
 223 -22 l 1
 101 -7 24 53 24 186 c 2
 24 536 l 1
 246 536 l 1
EndSplineSet
EndChar

StartChar: uni0391
Encoding: 913 913 351
Width: 607
Flags: W
LayerCount: 2
Fore
SplineSet
395 0 m 1
 373 126 l 1
 231 126 l 1
 210 0 l 1
 -32 0 l 1
 167 698 l 1
 442 698 l 1
 639 0 l 1
 395 0 l 1
258 286 m 1
 345 286 l 1
 301 538 l 1
 258 286 l 1
EndSplineSet
EndChar

StartChar: uni0392
Encoding: 914 914 352
Width: 626
Flags: W
LayerCount: 2
Fore
SplineSet
463 370 m 1
 538 353 618 316 618 209 c 0
 618 38 474 0 285 0 c 2
 31 0 l 1
 31 698 l 1
 259 698 l 2
 461 698 589 656 589 516 c 0
 589 426 524 387 463 370 c 1
280 541 m 2
 262 541 l 1
 262 434 l 1
 280 434 l 2
 340 434 355 449 355 492 c 0
 355 524 338 541 280 541 c 2
288 161 m 2
 342 161 380 170 380 225 c 0
 380 270 353 290 294 290 c 2
 262 290 l 1
 262 161 l 1
 288 161 l 2
EndSplineSet
EndChar

StartChar: uni0393
Encoding: 915 915 353
Width: 512
Flags: W
LayerCount: 2
Fore
SplineSet
519 698 m 1
 497 522 l 1
 262 522 l 1
 262 0 l 1
 31 0 l 1
 31 698 l 1
 519 698 l 1
EndSplineSet
EndChar

StartChar: uni0394
Encoding: 916 916 354
Width: 615
Flags: W
LayerCount: 2
Fore
SplineSet
445 698 m 1
 647 0 l 1
 -32 0 l 1
 170 698 l 1
 445 698 l 1
306 534 m 1
 242 162 l 1
 369 162 l 1
 306 534 l 1
EndSplineSet
EndChar

StartChar: uni0395
Encoding: 917 917 355
Width: 521
Flags: W
LayerCount: 2
Fore
SplineSet
507 698 m 1
 484 539 l 1
 262 539 l 1
 262 431 l 1
 457 431 l 1
 457 276 l 1
 262 276 l 1
 262 160 l 1
 500 160 l 1
 500 0 l 1
 31 0 l 1
 31 698 l 1
 507 698 l 1
EndSplineSet
EndChar

StartChar: uni0396
Encoding: 918 918 356
Width: 564
Flags: W
LayerCount: 2
Fore
SplineSet
544 698 m 1
 544 527 l 1
 282 179 l 1
 556 179 l 1
 534 0 l 1
 6 0 l 1
 6 168 l 1
 278 524 l 1
 32 524 l 1
 32 698 l 1
 544 698 l 1
EndSplineSet
EndChar

StartChar: uni0397
Encoding: 919 919 357
Width: 654
Flags: W
LayerCount: 2
Fore
SplineSet
392 0 m 1
 392 272 l 1
 262 272 l 1
 262 0 l 1
 31 0 l 1
 31 698 l 1
 262 698 l 1
 262 448 l 1
 392 448 l 1
 392 698 l 1
 623 698 l 1
 623 0 l 1
 392 0 l 1
EndSplineSet
EndChar

StartChar: uni0398
Encoding: 920 920 358
Width: 690
Flags: W
LayerCount: 2
Fore
SplineSet
345 719 m 0
 561 719 678 581 678 350 c 0
 678 124 561 -22 345 -22 c 0
 128 -22 12 119 12 350 c 0
 12 576 128 719 345 719 c 0
345 557 m 0
 264 557 235 503 235 350 c 0
 235 197 263 140 345 140 c 0
 428 140 454 197 454 350 c 0
 454 503 426 557 345 557 c 0
428 410 m 1
 428 294 l 1
 262 294 l 1
 262 410 l 1
 428 410 l 1
EndSplineSet
EndChar

StartChar: uni0399
Encoding: 921 921 359
Width: 293
Flags: W
LayerCount: 2
Fore
SplineSet
262 698 m 1
 262 0 l 1
 31 0 l 1
 31 698 l 1
 262 698 l 1
EndSplineSet
EndChar

StartChar: uni039A
Encoding: 922 922 360
Width: 678
Flags: W
LayerCount: 2
Fore
SplineSet
262 698 m 1
 262 0 l 1
 31 0 l 1
 31 698 l 1
 262 698 l 1
683 698 m 1
 501 390 l 1
 701 0 l 1
 440 0 l 1
 269 372 l 1
 447 698 l 1
 683 698 l 1
EndSplineSet
EndChar

StartChar: uni039B
Encoding: 923 923 361
Width: 607
Flags: W
LayerCount: 2
Fore
SplineSet
442 698 m 1
 639 0 l 1
 395 0 l 1
 302 538 l 1
 210 0 l 1
 -32 0 l 1
 167 698 l 1
 442 698 l 1
EndSplineSet
EndChar

StartChar: uni039C
Encoding: 924 924 362
Width: 794
Flags: W
LayerCount: 2
Fore
SplineSet
741 698 m 1
 789 0 l 1
 561 0 l 1
 561 233 l 2
 560 319 562 403 573 515 c 1
 507 68 l 1
 288 68 l 1
 215 515 l 1
 229 392 235 326 234 234 c 2
 234 0 l 1
 5 0 l 1
 53 698 l 1
 336 698 l 1
 401 260 l 1
 457 698 l 1
 741 698 l 1
EndSplineSet
EndChar

StartChar: uni039D
Encoding: 925 925 363
Width: 647
Flags: W
LayerCount: 2
Fore
SplineSet
616 698 m 1
 616 0 l 1
 327 0 l 1
 204 489 l 1
 215 419 235 318 235 188 c 2
 235 0 l 1
 31 0 l 1
 31 698 l 1
 314 698 l 1
 444 206 l 1
 429 297 412 375 412 508 c 2
 412 698 l 1
 616 698 l 1
EndSplineSet
EndChar

StartChar: uni039E
Encoding: 926 926 364
Width: 538
Flags: W
LayerCount: 2
Fore
SplineSet
531 698 m 1
 505 511 l 1
 15 511 l 1
 15 698 l 1
 531 698 l 1
457 439 m 1
 457 268 l 1
 82 268 l 1
 82 439 l 1
 457 439 l 1
523 194 m 1
 523 0 l 1
 15 0 l 1
 15 194 l 1
 523 194 l 1
EndSplineSet
EndChar

StartChar: uni039F
Encoding: 927 927 365
Width: 690
Flags: W
LayerCount: 2
Fore
SplineSet
345 719 m 0
 561 719 678 581 678 350 c 0
 678 124 561 -22 345 -22 c 0
 128 -22 12 119 12 350 c 0
 12 576 128 719 345 719 c 0
345 557 m 0
 276 557 252 503 252 350 c 0
 252 197 275 140 345 140 c 0
 416 140 438 197 438 350 c 0
 438 503 414 557 345 557 c 0
EndSplineSet
EndChar

StartChar: uni03A0
Encoding: 928 928 366
Width: 655
Flags: W
LayerCount: 2
Fore
SplineSet
624 698 m 1
 624 0 l 1
 393 0 l 1
 393 527 l 1
 262 527 l 1
 262 0 l 1
 31 0 l 1
 31 698 l 1
 624 698 l 1
EndSplineSet
EndChar

StartChar: uni03A1
Encoding: 929 929 367
Width: 618
Flags: W
LayerCount: 2
Fore
SplineSet
298 698 m 2
 489 698 608 617 608 459 c 0
 608 294 493 209 325 209 c 2
 262 209 l 1
 262 0 l 1
 31 0 l 1
 31 698 l 1
 298 698 l 2
302 370 m 2
 350 370 373 401 373 459 c 0
 373 506 354 539 294 539 c 2
 262 539 l 1
 262 370 l 1
 302 370 l 2
EndSplineSet
EndChar

StartChar: uni03A3
Encoding: 931 931 368
Width: 504
Flags: W
LayerCount: 2
Fore
SplineSet
501 698 m 1
 501 537 l 1
 256 537 l 1
 393 379 l 1
 393 306 l 1
 253 164 l 1
 501 164 l 1
 501 0 l 1
 4 0 l 1
 4 161 l 1
 168 340 l 1
 4 537 l 1
 4 698 l 1
 501 698 l 1
EndSplineSet
EndChar

StartChar: uni03A4
Encoding: 932 932 369
Width: 564
Flags: W
LayerCount: 2
Fore
SplineSet
572 698 m 1
 548 527 l 1
 397 527 l 1
 397 0 l 1
 166 0 l 1
 166 527 l 1
 3 527 l 1
 3 698 l 1
 572 698 l 1
EndSplineSet
EndChar

StartChar: uni03A5
Encoding: 933 933 370
Width: 637
Flags: W
LayerCount: 2
Fore
SplineSet
656 698 m 1
 434 255 l 1
 434 0 l 1
 203 0 l 1
 203 254 l 1
 -20 698 l 1
 232 698 l 1
 321 427 l 1
 412 698 l 1
 656 698 l 1
EndSplineSet
EndChar

StartChar: uni03A6
Encoding: 934 934 371
Width: 875
Flags: W
LayerCount: 2
Fore
SplineSet
877 352 m 0
 877 181 739 93 549 82 c 1
 549 0 l 1
 325 0 l 1
 325 82 l 1
 142 93 -1 172 -1 345 c 0
 -1 515 136 604 325 615 c 1
 325 698 l 1
 549 698 l 1
 549 615 l 1
 734 605 877 525 877 352 c 0
538 209 m 1
 620 220 643 286 643 352 c 0
 643 423 615 478 538 489 c 1
 538 209 l 1
232 345 m 0
 232 274 260 219 336 208 c 1
 336 488 l 1
 255 477 232 415 232 345 c 0
EndSplineSet
EndChar

StartChar: uni03A7
Encoding: 935 935 372
Width: 622
Flags: W
LayerCount: 2
Fore
SplineSet
445 376 m 1
 635 0 l 1
 387 0 l 1
 305 224 l 1
 231 0 l 1
 -13 0 l 1
 168 369 l 1
 -2 698 l 1
 245 698 l 1
 308 511 l 1
 380 698 l 1
 623 698 l 1
 445 376 l 1
EndSplineSet
EndChar

StartChar: uni03A8
Encoding: 936 936 373
Width: 761
Flags: W
LayerCount: 2
Fore
SplineSet
537 698 m 1
 756 698 l 1
 756 432 l 2
 756 303 673 202 496 173 c 1
 496 0 l 1
 265 0 l 1
 265 172 l 1
 89 200 5 294 5 432 c 2
 5 698 l 1
 224 698 l 1
 224 420 l 2
 224 374 235 342 277 324 c 1
 277 698 l 1
 485 698 l 1
 485 326 l 1
 525 344 537 377 537 420 c 2
 537 698 l 1
EndSplineSet
EndChar

StartChar: uni03A9
Encoding: 937 937 374
Width: 690
Flags: W
LayerCount: 2
Fore
SplineSet
345 719 m 0
 561 719 678 565 678 400 c 0
 678 292 625 206 543 157 c 1
 657 157 l 1
 657 0 l 1
 367 0 l 1
 367 145 l 1
 445 186 438 257 438 400 c 0
 438 497 414 557 345 557 c 0
 276 557 252 497 252 400 c 0
 252 258 244 188 322 145 c 1
 322 0 l 1
 33 0 l 1
 33 157 l 1
 148 157 l 1
 65 206 12 292 12 400 c 0
 12 566 128 719 345 719 c 0
EndSplineSet
EndChar

StartChar: uni03AA
Encoding: 938 938 375
Width: 293
Flags: W
LayerCount: 2
Fore
SplineSet
16 957 m 0
 75 957 121 912 121 856 c 0
 121 799 75 754 16 754 c 0
 -41 754 -88 799 -88 856 c 0
 -88 912 -41 957 16 957 c 0
271 957 m 0
 330 957 375 912 375 856 c 0
 375 799 330 754 271 754 c 0
 214 754 166 799 166 856 c 0
 166 912 214 957 271 957 c 0
262 698 m 1
 262 0 l 1
 31 0 l 1
 31 698 l 1
 262 698 l 1
EndSplineSet
EndChar

StartChar: uni03AB
Encoding: 939 939 376
Width: 637
Flags: W
LayerCount: 2
Fore
SplineSet
188 957 m 0
 247 957 293 912 293 856 c 0
 293 799 247 754 188 754 c 0
 131 754 84 799 84 856 c 0
 84 912 131 957 188 957 c 0
443 957 m 0
 502 957 547 912 547 856 c 0
 547 799 502 754 443 754 c 0
 386 754 338 799 338 856 c 0
 338 912 386 957 443 957 c 0
656 698 m 1
 434 255 l 1
 434 0 l 1
 203 0 l 1
 203 254 l 1
 -20 698 l 1
 232 698 l 1
 321 427 l 1
 412 698 l 1
 656 698 l 1
EndSplineSet
EndChar

StartChar: uni03AC
Encoding: 940 940 377
Width: 600
Flags: W
LayerCount: 2
Fore
SplineSet
201 866 m 1
 409 851 l 1
 352 596 l 1
 216 596 l 1
 201 866 l 1
245 557 m 0
 333 557 381 504 396 445 c 1
 402 536 l 1
 587 536 l 1
 506 267 l 1
 532 193 l 2
 544 154 566 140 598 138 c 1
 528 -21 l 1
 450 -13 405 15 389 74 c 1
 385 85 l 1
 347 7 296 -22 222 -22 c 0
 97 -22 9 79 9 263 c 0
 9 434 99 557 245 557 c 0
280 401 m 0
 254 401 229 364 229 263 c 0
 229 162 257 135 278 135 c 0
 313 135 328 169 344 276 c 1
 326 368 314 401 280 401 c 0
EndSplineSet
EndChar

StartChar: uni03AD
Encoding: 941 941 378
Width: 492
Flags: W
LayerCount: 2
Fore
SplineSet
181 866 m 1
 389 851 l 1
 332 596 l 1
 196 596 l 1
 181 866 l 1
263 557 m 0
 346 557 422 537 488 487 c 1
 403 379 l 1
 364 399 333 411 295 411 c 0
 271 411 250 400 250 378 c 0
 250 355 262 338 296 338 c 2
 368 338 l 1
 348 206 l 1
 287 206 l 2
 248 206 235 188 235 169 c 0
 235 143 251 129 297 129 c 0
 328 129 361 138 413 164 c 1
 501 44 l 1
 444 2 361 -22 259 -22 c 0
 117 -22 8 34 8 148 c 0
 8 224 54 273 159 285 c 1
 66 304 27 349 27 408 c 0
 27 501 124 557 263 557 c 0
EndSplineSet
EndChar

StartChar: uni03AE
Encoding: 942 942 379
Width: 567
Flags: W
LayerCount: 2
Fore
SplineSet
356 596 m 1
 220 596 l 1
 205 866 l 1
 413 851 l 1
 356 596 l 1
400 557 m 0
 488 557 543 500 543 394 c 2
 543 -231 l 1
 321 -209 l 1
 321 357 l 2
 321 391 313 397 303 397 c 0
 292 397 275 387 256 360 c 1
 257 353 l 1
 257 0 l 1
 35 0 l 1
 35 404 l 2
 35 444 30 487 17 524 c 1
 222 551 l 1
 232 538 237 520 244 491 c 1
 293 539 339 557 400 557 c 0
EndSplineSet
EndChar

StartChar: uni03AF
Encoding: 943 943 380
Width: 281
Flags: W
LayerCount: 2
Fore
SplineSet
52 866 m 1
 260 851 l 1
 203 596 l 1
 67 596 l 1
 52 866 l 1
246 536 m 1
 246 215 l 2
 246 172 255 152 286 135 c 1
 223 -22 l 1
 101 -7 24 53 24 186 c 2
 24 536 l 1
 246 536 l 1
EndSplineSet
EndChar

StartChar: uni03B0
Encoding: 944 944 381
Width: 558
Flags: W
LayerCount: 2
Fore
SplineSet
196 986 m 1
 375 972 l 1
 326 753 l 1
 209 753 l 1
 196 986 l 1
113 782 m 0
 170 782 218 737 218 681 c 0
 218 624 170 579 113 579 c 0
 54 579 9 624 9 681 c 0
 9 737 54 782 113 782 c 0
427 782 m 0
 483 782 531 737 531 681 c 0
 531 624 483 579 427 579 c 0
 367 579 322 624 322 681 c 0
 322 737 367 782 427 782 c 0
511 536 m 1
 526 459 543 359 543 241 c 0
 543 51 398 -22 256 -22 c 0
 133 -22 24 38 24 197 c 2
 24 536 l 1
 246 536 l 1
 246 195 l 2
 246 147 257 136 275 136 c 0
 302 136 321 170 321 258 c 0
 321 346 309 446 294 536 c 1
 511 536 l 1
EndSplineSet
EndChar

StartChar: uni03B1
Encoding: 945 945 382
Width: 600
Flags: W
LayerCount: 2
Fore
SplineSet
245 557 m 0
 333 557 381 504 396 445 c 1
 402 536 l 1
 587 536 l 1
 506 267 l 1
 532 193 l 2
 544 154 566 140 598 138 c 1
 528 -21 l 1
 450 -13 405 15 389 74 c 1
 385 85 l 1
 347 7 296 -22 222 -22 c 0
 97 -22 9 79 9 263 c 0
 9 434 99 557 245 557 c 0
280 401 m 0
 254 401 229 364 229 263 c 0
 229 162 257 135 278 135 c 0
 313 135 328 169 344 276 c 1
 326 368 314 401 280 401 c 0
EndSplineSet
EndChar

StartChar: uni03B2
Encoding: 946 946 383
Width: 614
Flags: W
LayerCount: 2
Fore
SplineSet
419 407 m 1
 493 398 606 367 606 212 c 0
 606 76 514 -22 375 -22 c 0
 320 -22 278 -8 242 14 c 1
 242 -200 l 1
 31 -231 l 1
 31 550 l 2
 31 690 146 767 293 767 c 0
 460 767 547 680 547 573 c 0
 547 495 511 433 419 407 c 1
304 145 m 0
 350 145 383 167 383 235 c 0
 383 316 337 326 301 326 c 2
 272 326 l 1
 282 469 l 1
 284 469 l 2
 321 469 331 501 332 550 c 0
 332 596 318 618 288 618 c 0
 261 618 242 597 242 553 c 2
 242 153 l 1
 258 148 277 145 304 145 c 0
EndSplineSet
EndChar

StartChar: uni03B3
Encoding: 947 947 384
Width: 533
Flags: W
LayerCount: 2
Fore
SplineSet
168 558 m 1
 214 507 251 406 268 213 c 1
 335 557 l 1
 554 508 l 1
 374 33 l 2
 341 -52 335 -103 353 -212 c 1
 176 -230 l 1
 133 -146 131 -86 165 13 c 1
 118 224 31 409 -30 491 c 1
 168 558 l 1
EndSplineSet
EndChar

StartChar: uni03B4
Encoding: 948 948 385
Width: 577
Flags: W
LayerCount: 2
Fore
SplineSet
349 535 m 0
 503 475 568 400 568 253 c 0
 568 75 455 -22 289 -22 c 0
 112 -22 9 78 9 243 c 0
 9 330 54 404 162 454 c 1
 73 506 61 547 61 600 c 0
 61 691 131 767 312 767 c 0
 402 767 476 735 517 700 c 1
 420 589 l 1
 393 607 361 620 324 620 c 0
 284 620 269 610 269 593 c 0
 269 574 273 565 349 535 c 0
287 136 m 0
 324 136 341 167 341 254 c 0
 341 338 336 363 268 400 c 1
 230 354 233 309 233 254 c 0
 233 168 248 136 287 136 c 0
EndSplineSet
EndChar

StartChar: uni03B5
Encoding: 949 949 386
Width: 492
Flags: W
LayerCount: 2
Fore
SplineSet
263 557 m 0
 346 557 422 537 488 487 c 1
 403 379 l 1
 364 399 333 411 295 411 c 0
 271 411 250 400 250 378 c 0
 250 355 262 338 296 338 c 2
 368 338 l 1
 348 206 l 1
 287 206 l 2
 248 206 235 188 235 169 c 0
 235 143 251 129 297 129 c 0
 328 129 361 138 413 164 c 1
 501 44 l 1
 444 2 361 -22 259 -22 c 0
 117 -22 8 34 8 148 c 0
 8 224 54 273 159 285 c 1
 66 304 27 349 27 408 c 0
 27 501 124 557 263 557 c 0
EndSplineSet
EndChar

StartChar: uni03B6
Encoding: 950 950 387
Width: 449
Flags: W
LayerCount: 2
Fore
SplineSet
439 745 m 1
 468 638 l 1
 259 462 231 350 231 267 c 0
 231 211 256 182 339 144 c 0
 416 110 462 72 462 -15 c 0
 462 -108 394 -173 256 -230 c 1
 177 -105 l 1
 214 -79 237 -63 237 -37 c 0
 237 -16 231 -5 179 21 c 0
 48 84 4 130 4 257 c 0
 4 370 84 493 281 617 c 1
 253 605 198 592 156 592 c 2
 26 592 l 1
 49 745 l 1
 439 745 l 1
EndSplineSet
EndChar

StartChar: uni03B7
Encoding: 951 951 388
Width: 567
Flags: W
LayerCount: 2
Fore
SplineSet
400 557 m 0
 488 557 543 500 543 394 c 2
 543 -231 l 1
 321 -209 l 1
 321 357 l 2
 321 391 313 397 303 397 c 0
 292 397 275 387 256 360 c 1
 257 353 l 1
 257 0 l 1
 35 0 l 1
 35 404 l 2
 35 444 30 487 17 524 c 1
 222 551 l 1
 232 538 237 520 244 491 c 1
 293 539 339 557 400 557 c 0
EndSplineSet
EndChar

StartChar: uni03B8
Encoding: 952 952 389
Width: 554
Flags: W
LayerCount: 2
Fore
SplineSet
277 767 m 0
 449 767 546 641 546 373 c 0
 546 104 449 -22 277 -22 c 0
 105 -22 9 104 9 374 c 0
 9 640 105 767 277 767 c 0
277 614 m 0
 236 614 214 595 210 433 c 1
 342 433 l 1
 338 595 318 614 277 614 c 0
277 131 m 0
 314 131 338 154 342 317 c 1
 210 317 l 1
 215 154 239 131 277 131 c 0
EndSplineSet
EndChar

StartChar: uni03B9
Encoding: 953 953 390
Width: 281
Flags: W
LayerCount: 2
Fore
SplineSet
246 536 m 1
 246 215 l 2
 246 172 255 152 286 135 c 1
 223 -22 l 1
 101 -7 24 53 24 186 c 2
 24 536 l 1
 246 536 l 1
EndSplineSet
EndChar

StartChar: uni03BA
Encoding: 954 954 391
Width: 579
Flags: W
LayerCount: 2
Fore
SplineSet
591 479 m 1
 489 287 l 1
 564 171 l 2
 573 157 581 150 598 145 c 1
 521 -22 l 1
 447 -16 388 7 347 90 c 2
 260 282 l 1
 397 555 l 1
 591 479 l 1
222 551 m 1
 244 511 257 461 257 350 c 2
 257 0 l 1
 35 0 l 1
 35 404 l 2
 35 444 25 497 17 524 c 1
 222 551 l 1
EndSplineSet
EndChar

StartChar: uni03BB
Encoding: 955 955 392
Width: 567
Flags: W
LayerCount: 2
Fore
SplineSet
79 765 m 1
 274 741 388 701 437 492 c 0
 492 265 517 149 589 45 c 1
 372 -22 l 1
 313 89 295 189 273 365 c 1
 216 -22 l 1
 -5 27 l 1
 150 536 l 1
 220 536 l 1
 187 595 156 607 55 619 c 1
 79 765 l 1
EndSplineSet
EndChar

StartChar: uni03BC
Encoding: 956 956 393
Width: 578
Flags: W
LayerCount: 2
Fore
SplineSet
561 0 m 1
 359 -22 l 1
 348 0 344 17 337 50 c 1
 311 8 284 -5 258 -5 c 0
 232 -5 204 -1 177 29 c 1
 211 -17 238 -53 238 -130 c 2
 238 -209 l 1
 31 -229 l 1
 31 536 l 1
 253 536 l 1
 253 177 l 2
 253 151 263 145 275 145 c 0
 287 145 303 154 317 177 c 1
 317 536 l 1
 539 536 l 1
 539 185 l 2
 539 102 550 40 561 0 c 1
EndSplineSet
EndChar

StartChar: uni03BD
Encoding: 957 957 394
Width: 533
Flags: W
LayerCount: 2
Fore
SplineSet
168 558 m 1
 214 507 255 372 265 174 c 1
 340 557 l 1
 554 508 l 1
 390 0 l 1
 134 0 l 1
 98 216 44 419 -30 491 c 1
 168 558 l 1
EndSplineSet
EndChar

StartChar: uni03BE
Encoding: 958 958 395
Width: 464
Flags: W
LayerCount: 2
Fore
SplineSet
284 767 m 0
 374 767 436 746 492 702 c 1
 400 588 l 1
 374 605 351 618 318 618 c 0
 292 618 271 599 271 562 c 0
 271 523 291 500 331 500 c 2
 387 500 l 1
 368 363 l 1
 332 363 l 2
 276 363 235 332 235 277 c 0
 235 212 271 187 372 143 c 0
 446 109 493 72 493 -15 c 0
 493 -108 426 -173 287 -230 c 1
 209 -105 l 1
 245 -79 268 -63 268 -37 c 0
 268 -16 262 -5 211 20 c 0
 94 74 8 115 8 255 c 0
 8 365 72 421 175 445 c 1
 93 469 48 518 48 597 c 0
 48 699 154 767 284 767 c 0
EndSplineSet
EndChar

StartChar: uni03BF
Encoding: 959 959 396
Width: 586
Flags: W
LayerCount: 2
Fore
SplineSet
293 557 m 0
 466 557 577 455 577 267 c 0
 577 91 468 -22 293 -22 c 0
 120 -22 9 80 9 269 c 0
 9 445 117 557 293 557 c 0
293 400 m 0
 251 400 236 362 236 269 c 0
 236 170 252 136 293 136 c 0
 334 136 350 174 350 267 c 0
 350 365 334 400 293 400 c 0
EndSplineSet
EndChar

StartChar: uni03C0
Encoding: 960 960 397
Width: 628
Flags: W
LayerCount: 2
Fore
SplineSet
615 376 m 1
 571 376 l 1
 571 216 l 2
 571 172 581 152 611 135 c 1
 549 -22 l 1
 426 -7 349 53 349 186 c 2
 349 376 l 1
 293 376 l 1
 293 0 l 1
 76 0 l 1
 76 375 l 1
 54 374 42 371 23 365 c 1
 -16 505 l 1
 23 524 67 536 170 536 c 2
 615 536 l 1
 615 376 l 1
EndSplineSet
EndChar

StartChar: uni03C1
Encoding: 961 961 398
Width: 590
Flags: W
LayerCount: 2
Fore
SplineSet
294 557 m 0
 473 557 576 462 576 270 c 0
 576 103 489 -22 361 -22 c 0
 316 -22 277 -8 241 36 c 1
 241 -209 l 1
 19 -231 l 1
 19 276 l 2
 19 454 106 557 294 557 c 0
291 135 m 0
 323 135 349 165 349 266 c 0
 349 387 322 401 294 401 c 0
 255 401 241 367 241 261 c 2
 241 170 l 1
 257 142 270 135 291 135 c 0
EndSplineSet
EndChar

StartChar: uni03C2
Encoding: 962 962 399
Width: 488
Flags: W
LayerCount: 2
Fore
SplineSet
297 557 m 0
 383 557 447 530 499 483 c 1
 408 355 l 1
 376 381 347 391 317 391 c 0
 272 391 239 368 239 279 c 0
 239 216 259 185 346 145 c 0
 424 110 468 72 468 -15 c 0
 468 -108 401 -173 262 -230 c 1
 183 -105 l 1
 220 -79 243 -63 243 -37 c 0
 243 -16 237 -5 184 22 c 0
 80 71 9 126 9 279 c 0
 9 435 128 557 297 557 c 0
EndSplineSet
EndChar

StartChar: uni03C3
Encoding: 963 963 400
Width: 619
Flags: W
LayerCount: 2
Fore
SplineSet
626 536 m 1
 626 379 l 1
 535 385 l 1
 564 354 577 316 577 255 c 0
 577 91 468 -22 293 -22 c 0
 120 -22 9 80 9 269 c 0
 9 440 105 546 312 546 c 0
 422 546 524 541 626 536 c 1
293 136 m 0
 334 136 350 174 350 255 c 0
 350 333 346 369 337 391 c 1
 261 390 236 381 236 268 c 0
 236 170 252 136 293 136 c 0
EndSplineSet
EndChar

StartChar: uni03C4
Encoding: 964 964 401
Width: 503
Flags: W
LayerCount: 2
Fore
SplineSet
505 376 m 1
 368 376 l 1
 368 215 l 2
 368 172 377 152 408 135 c 1
 345 -22 l 1
 223 -7 146 53 146 186 c 2
 146 376 l 1
 119 376 l 2
 69 376 55 374 27 365 c 1
 -12 505 l 1
 28 524 71 536 163 536 c 2
 505 536 l 1
 505 376 l 1
EndSplineSet
EndChar

StartChar: uni03C5
Encoding: 965 965 402
Width: 558
Flags: W
LayerCount: 2
Fore
SplineSet
511 536 m 1
 526 459 543 359 543 241 c 0
 543 51 398 -22 256 -22 c 0
 133 -22 24 38 24 197 c 2
 24 536 l 1
 246 536 l 1
 246 195 l 2
 246 147 257 136 275 136 c 0
 302 136 321 170 321 258 c 0
 321 346 309 446 294 536 c 1
 511 536 l 1
EndSplineSet
EndChar

StartChar: uni03C6
Encoding: 966 966 403
Width: 775
Flags: W
LayerCount: 2
Fore
SplineSet
761 272 m 0
 761 93 675 3 491 -20 c 1
 491 -209 l 1
 286 -231 l 1
 286 -20 l 1
 98 3 10 102 10 241 c 0
 10 356 40 457 72 536 c 1
 280 536 l 1
 248 435 223 350 223 258 c 0
 223 185 233 141 286 126 c 1
 286 312 l 2
 286 460 361 557 516 557 c 0
 686 557 761 450 761 272 c 0
491 127 m 1
 541 138 550 175 550 270 c 0
 550 399 540 416 518 416 c 0
 496 416 491 401 491 324 c 2
 491 127 l 1
EndSplineSet
EndChar

StartChar: uni03C7
Encoding: 967 967 404
Width: 521
Flags: W
LayerCount: 2
Fore
SplineSet
372 185 m 1
 553 -194 l 1
 332 -231 l 1
 257 12 l 1
 196 -231 l 1
 -32 -209 l 1
 148 179 l 1
 76 326 30 420 -38 490 c 1
 180 552 l 1
 217 482 229 456 262 321 c 1
 300 551 l 1
 528 529 l 1
 372 185 l 1
EndSplineSet
EndChar

StartChar: uni03C8
Encoding: 968 968 405
Width: 804
Flags: W
LayerCount: 2
Fore
SplineSet
788 238 m 0
 788 88 676 0 510 -18 c 1
 510 -209 l 1
 299 -231 l 1
 299 -20 l 1
 116 0 25 91 25 206 c 2
 25 536 l 1
 241 536 l 1
 241 217 l 2
 241 175 254 144 299 132 c 1
 299 536 l 1
 510 536 l 1
 510 133 l 1
 553 148 573 184 573 244 c 0
 573 334 560 447 545 536 c 1
 757 536 l 1
 774 460 788 359 788 238 c 0
EndSplineSet
EndChar

StartChar: uni03C9
Encoding: 969 969 406
Width: 772
Flags: W
LayerCount: 2
Fore
SplineSet
696 536 m 1
 735 456 761 359 761 245 c 0
 761 65 677 -22 551 -22 c 0
 458 -22 408 11 384 97 c 1
 359 10 312 -22 223 -22 c 0
 92 -22 10 64 10 245 c 0
 10 359 37 457 75 536 c 1
 270 536 l 1
 250 452 225 358 225 259 c 0
 225 170 238 136 261 136 c 0
 276 136 284 142 284 192 c 2
 284 355 l 1
 488 382 l 1
 488 192 l 2
 488 141 499 136 515 136 c 0
 540 136 546 172 546 259 c 0
 546 357 522 452 501 536 c 1
 696 536 l 1
EndSplineSet
EndChar

StartChar: uni03CA
Encoding: 970 970 407
Width: 281
Flags: W
LayerCount: 2
Fore
SplineSet
7 831 m 0
 66 831 112 786 112 730 c 0
 112 673 66 628 7 628 c 0
 -50 628 -97 673 -97 730 c 0
 -97 786 -50 831 7 831 c 0
262 831 m 0
 321 831 366 786 366 730 c 0
 366 673 321 628 262 628 c 0
 205 628 157 673 157 730 c 0
 157 786 205 831 262 831 c 0
246 536 m 1
 246 215 l 2
 246 172 255 152 286 135 c 1
 223 -22 l 1
 101 -7 24 53 24 186 c 2
 24 536 l 1
 246 536 l 1
EndSplineSet
EndChar

StartChar: uni03CB
Encoding: 971 971 408
Width: 558
Flags: W
LayerCount: 2
Fore
SplineSet
142 831 m 0
 201 831 247 786 247 730 c 0
 247 673 201 628 142 628 c 0
 85 628 38 673 38 730 c 0
 38 786 85 831 142 831 c 0
397 831 m 0
 456 831 501 786 501 730 c 0
 501 673 456 628 397 628 c 0
 340 628 292 673 292 730 c 0
 292 786 340 831 397 831 c 0
511 536 m 1
 526 459 543 359 543 241 c 0
 543 51 398 -22 256 -22 c 0
 133 -22 24 38 24 197 c 2
 24 536 l 1
 246 536 l 1
 246 195 l 2
 246 147 257 136 275 136 c 0
 302 136 321 170 321 258 c 0
 321 346 309 446 294 536 c 1
 511 536 l 1
EndSplineSet
EndChar

StartChar: uni03CC
Encoding: 972 972 409
Width: 586
Flags: W
LayerCount: 2
Fore
SplineSet
210 866 m 1
 418 851 l 1
 361 596 l 1
 225 596 l 1
 210 866 l 1
293 557 m 0
 466 557 577 455 577 267 c 0
 577 91 468 -22 293 -22 c 0
 120 -22 9 80 9 269 c 0
 9 445 117 557 293 557 c 0
293 400 m 0
 251 400 236 362 236 269 c 0
 236 170 252 136 293 136 c 0
 334 136 350 174 350 267 c 0
 350 365 334 400 293 400 c 0
EndSplineSet
EndChar

StartChar: uni03CD
Encoding: 973 973 410
Width: 558
Flags: W
LayerCount: 2
Fore
SplineSet
187 866 m 1
 395 851 l 1
 338 596 l 1
 202 596 l 1
 187 866 l 1
511 536 m 1
 526 459 543 359 543 241 c 0
 543 51 398 -22 256 -22 c 0
 133 -22 24 38 24 197 c 2
 24 536 l 1
 246 536 l 1
 246 195 l 2
 246 147 257 136 275 136 c 0
 302 136 321 170 321 258 c 0
 321 346 309 446 294 536 c 1
 511 536 l 1
EndSplineSet
EndChar

StartChar: uni03CE
Encoding: 974 974 411
Width: 772
Flags: W
LayerCount: 2
Fore
SplineSet
302 866 m 1
 510 851 l 1
 453 596 l 1
 317 596 l 1
 302 866 l 1
696 536 m 1
 735 456 761 359 761 245 c 0
 761 65 677 -22 551 -22 c 0
 458 -22 408 11 384 97 c 1
 359 10 312 -22 223 -22 c 0
 92 -22 10 64 10 245 c 0
 10 359 37 457 75 536 c 1
 270 536 l 1
 250 452 225 358 225 259 c 0
 225 170 238 136 261 136 c 0
 276 136 284 142 284 192 c 2
 284 355 l 1
 488 382 l 1
 488 192 l 2
 488 141 499 136 515 136 c 0
 540 136 546 172 546 259 c 0
 546 357 522 452 501 536 c 1
 696 536 l 1
EndSplineSet
EndChar

StartChar: uni03D0
Encoding: 976 976 412
Width: 563
Flags: W
LayerCount: 2
Fore
SplineSet
409 426 m 0
 484 426 559 367 559 237 c 0
 559 75 443 -22 279 -22 c 0
 90 -22 8 122 8 342 c 0
 8 598 128 767 310 767 c 0
 443 767 507 692 507 604 c 0
 507 523 466 462 343 418 c 1
 369 424 383 426 409 426 c 0
291 616 m 0
 265 616 237 582 228 455 c 1
 247 461 l 2
 301 476 318 531 318 582 c 0
 318 605 306 616 291 616 c 0
280 134 m 0
 312 134 332 156 332 230 c 0
 332 302 305 333 276 333 c 0
 268 333 253 331 239 327 c 2
 227 323 l 1
 231 157 257 134 280 134 c 0
EndSplineSet
EndChar

StartChar: uni03D1
Encoding: 977 977 413
Width: 559
Flags: W
LayerCount: 2
Fore
SplineSet
551 537 m 1
 551 400 l 1
 519 400 l 1
 519 114 457 -22 244 -22 c 0
 116 -22 23 38 23 197 c 2
 23 357 l 1
 233 357 l 1
 233 172 l 2
 233 141 240 132 256 132 c 0
 290 131 299 182 299 398 c 1
 236 398 l 2
 80 398 15 464 15 570 c 0
 15 674 103 767 243 767 c 0
 391 767 478 688 507 537 c 1
 551 537 l 1
204 576 m 0
 204 554 216 538 244 538 c 2
 292 538 l 1
 283 603 265 614 242 614 c 0
 217 614 204 600 204 576 c 0
EndSplineSet
EndChar

StartChar: uni03D2
Encoding: 978 978 414
Width: 680
Flags: W
LayerCount: 2
Fore
SplineSet
203 0 m 1
 203 254 l 1
 -20 698 l 1
 232 698 l 1
 321 428 l 1
 353 545 l 1
 392 672 452 719 569 719 c 0
 627 719 669 705 705 685 c 1
 650 552 l 1
 638 556 622 561 604 561 c 0
 574 561 559 550 546 518 c 2
 434 255 l 1
 434 0 l 1
 203 0 l 1
EndSplineSet
EndChar

StartChar: uni03D5
Encoding: 981 981 415
Width: 695
Flags: W
LayerCount: 2
Fore
SplineSet
687 271 m 0
 687 94 576 23 457 7 c 1
 456 -209 l 1
 234 -231 l 1
 235 7 l 1
 123 21 7 83 7 264 c 0
 7 441 116 512 234 529 c 1
 234 745 l 1
 456 768 l 1
 456 529 l 1
 570 516 687 454 687 271 c 0
433 137 m 1
 463 144 478 181 478 271 c 0
 478 368 459 392 433 399 c 1
 433 137 l 1
258 396 m 1
 231 389 217 356 217 264 c 0
 217 184 234 150 258 139 c 1
 258 396 l 1
EndSplineSet
EndChar

StartChar: uni03D6
Encoding: 982 982 416
Width: 775
Flags: W
LayerCount: 2
Fore
SplineSet
777 536 m 1
 777 387 l 1
 705 387 l 1
 736 340 757 286 757 225 c 0
 757 71 678 -22 557 -22 c 0
 462 -22 413 11 389 97 c 1
 363 10 317 -22 226 -22 c 0
 100 -22 23 70 23 225 c 0
 23 286 44 339 75 387 c 1
 56 385 44 382 26 376 c 1
 -13 505 l 1
 26 524 69 536 167 536 c 2
 777 536 l 1
542 251 m 0
 542 299 536 344 524 387 c 1
 256 388 l 1
 244 345 237 299 237 251 c 0
 237 170 245 136 268 136 c 0
 280 136 288 142 288 192 c 2
 288 279 l 1
 492 306 l 1
 492 192 l 2
 492 141 503 136 514 136 c 0
 541 136 542 172 542 251 c 0
EndSplineSet
EndChar

StartChar: uni03D7
Encoding: 983 983 417
Width: 545
Flags: W
LayerCount: 2
Fore
SplineSet
509 216 m 2
 509 164 515 143 551 123 c 1
 551 -17 l 2
 551 -167 463 -241 316 -241 c 0
 242 -241 181 -222 142 -194 c 1
 213 -66 l 1
 240 -78 263 -86 301 -86 c 0
 341 -86 364 -68 364 -35 c 2
 366 34 l 1
 332 57 311 93 311 147 c 0
 311 213 358 304 394 384 c 1
 181 -14 l 1
 35 33 l 1
 35 319 l 2
 35 359 30 381 -5 398 c 1
 57 557 l 1
 157 539 233 491 233 388 c 0
 233 322 186 231 150 151 c 1
 363 548 l 1
 509 501 l 1
 509 216 l 2
EndSplineSet
EndChar

StartChar: uni03F0
Encoding: 1008 1008 418
Width: 544
Flags: W
LayerCount: 2
Fore
SplineSet
509 216 m 2
 509 176 514 154 549 137 c 1
 487 -22 l 1
 387 -4 311 44 311 147 c 0
 311 213 358 304 394 384 c 1
 181 -14 l 1
 35 33 l 1
 35 319 l 2
 35 359 30 381 -5 398 c 1
 57 557 l 1
 157 539 233 491 233 388 c 0
 233 322 186 231 150 151 c 1
 363 548 l 1
 509 501 l 1
 509 216 l 2
EndSplineSet
EndChar

StartChar: uni03F1
Encoding: 1009 1009 419
Width: 590
Flags: W
LayerCount: 2
Fore
SplineSet
359 -52 m 0
 457 -67 507 -104 528 -195 c 1
 341 -230 l 1
 330 -197 310 -191 222 -180 c 0
 90 -163 19 -95 19 59 c 2
 19 276 l 2
 19 454 106 557 294 557 c 0
 473 557 576 462 576 290 c 0
 576 144 489 19 361 19 c 0
 316 19 277 33 241 77 c 1
 241 18 l 2
 241 -24 272 -38 359 -52 c 0
296 401 m 0
 255 401 241 367 241 261 c 2
 241 211 l 1
 257 183 270 176 291 176 c 0
 323 176 349 206 349 286 c 0
 349 387 322 401 296 401 c 0
EndSplineSet
EndChar

StartChar: uni03F2
Encoding: 1010 1010 420
Width: 515
Flags: W
LayerCount: 2
Fore
SplineSet
313 557 m 0
 413 557 472 531 533 483 c 1
 442 355 l 1
 403 381 374 391 335 391 c 0
 276 391 239 359 239 264 c 0
 239 170 282 149 332 149 c 0
 376 149 400 159 438 179 c 1
 533 46 l 1
 476 7 414 -22 315 -22 c 0
 129 -22 9 86 9 264 c 0
 9 433 135 557 313 557 c 0
EndSplineSet
EndChar

StartChar: uni03F4
Encoding: 1012 1012 421
Width: 690
Flags: W
LayerCount: 2
Fore
SplineSet
345 719 m 0
 561 719 678 581 678 350 c 0
 678 124 561 -22 345 -22 c 0
 128 -22 12 119 12 350 c 0
 12 576 128 719 345 719 c 0
345 557 m 0
 264 557 235 503 235 350 c 0
 235 197 263 140 345 140 c 0
 428 140 454 197 454 350 c 0
 454 503 426 557 345 557 c 0
428 410 m 1
 428 294 l 1
 262 294 l 1
 262 410 l 1
 428 410 l 1
EndSplineSet
EndChar

StartChar: uni03F5
Encoding: 1013 1013 422
Width: 491
Flags: W
LayerCount: 2
Fore
SplineSet
314 134 m 0
 347 134 374 144 406 170 c 1
 498 46 l 1
 445 6 386 -22 306 -22 c 0
 119 -22 9 97 9 263 c 0
 9 432 121 557 296 557 c 0
 383 557 446 530 498 483 c 1
 407 366 l 1
 376 391 345 402 311 402 c 0
 262 402 233 383 230 328 c 1
 394 328 l 1
 394 215 l 1
 229 215 l 1
 233 151 271 134 314 134 c 0
EndSplineSet
EndChar

StartChar: uni03F6
Encoding: 1014 1014 423
Width: 489
Flags: W
LayerCount: 2
Fore
SplineSet
210 557 m 0
 372 557 480 461 480 274 c 0
 480 96 375 -22 187 -22 c 0
 109 -22 50 0 -7 40 c 1
 84 162 l 1
 123 140 148 134 177 134 c 0
 214 134 251 149 258 214 c 1
 94 214 l 1
 94 328 l 1
 258 328 l 1
 253 386 225 402 190 402 c 0
 158 402 130 394 96 372 c 1
 5 489 l 1
 58 533 125 557 210 557 c 0
EndSplineSet
EndChar

StartChar: uni0400
Encoding: 1024 1024 424
Width: 521
Flags: W
LayerCount: 2
Fore
SplineSet
189 1000 m 1
 429 858 l 1
 373 747 l 1
 110 841 l 1
 189 1000 l 1
507 698 m 1
 484 539 l 1
 262 539 l 1
 262 431 l 1
 457 431 l 1
 457 276 l 1
 262 276 l 1
 262 160 l 1
 500 160 l 1
 500 0 l 1
 31 0 l 1
 31 698 l 1
 507 698 l 1
EndSplineSet
EndChar

StartChar: uni0401
Encoding: 1025 1025 425
Width: 521
Flags: W
LayerCount: 2
Fore
SplineSet
139 957 m 0
 198 957 244 912 244 856 c 0
 244 799 198 754 139 754 c 0
 82 754 35 799 35 856 c 0
 35 912 82 957 139 957 c 0
394 957 m 0
 453 957 498 912 498 856 c 0
 498 799 453 754 394 754 c 0
 337 754 289 799 289 856 c 0
 289 912 337 957 394 957 c 0
507 698 m 1
 484 539 l 1
 262 539 l 1
 262 431 l 1
 457 431 l 1
 457 276 l 1
 262 276 l 1
 262 160 l 1
 500 160 l 1
 500 0 l 1
 31 0 l 1
 31 698 l 1
 507 698 l 1
EndSplineSet
EndChar

StartChar: uni0402
Encoding: 1026 1026 426
Width: 782
Flags: W
LayerCount: 2
Fore
SplineSet
534 488 m 0
 685 488 766 387 766 223 c 2
 766 114 l 2
 766 -92 624 -161 501 -201 c 1
 440 -39 l 1
 528 -6 535 48 535 122 c 2
 535 223 l 2
 535 297 516 327 467 327 c 0
 435 327 414 319 397 308 c 1
 397 0 l 1
 166 0 l 1
 166 531 l 1
 3 531 l 1
 3 698 l 1
 572 698 l 1
 548 531 l 1
 397 531 l 1
 397 446 l 1
 436 474 480 488 534 488 c 0
EndSplineSet
EndChar

StartChar: uni0403
Encoding: 1027 1027 427
Width: 512
Flags: W
LayerCount: 2
Fore
SplineSet
439 841 m 1
 176 747 l 1
 120 858 l 1
 362 1000 l 1
 439 841 l 1
519 698 m 1
 497 522 l 1
 262 522 l 1
 262 0 l 1
 31 0 l 1
 31 698 l 1
 519 698 l 1
EndSplineSet
EndChar

StartChar: uni0404
Encoding: 1028 1028 428
Width: 590
Flags: W
LayerCount: 2
Fore
SplineSet
499 204 m 1
 594 81 l 1
 540 27 454 -22 343 -22 c 0
 143 -22 12 108 12 351 c 0
 12 583 150 719 349 719 c 0
 446 719 524 687 586 633 c 1
 479 509 l 1
 441 541 403 558 359 558 c 0
 298 558 255 511 244 431 c 1
 459 431 l 1
 459 279 l 1
 245 279 l 1
 252 194 300 144 362 144 c 0
 416 144 458 171 499 204 c 1
EndSplineSet
EndChar

StartChar: uni0405
Encoding: 1029 1029 429
Width: 597
Flags: W
LayerCount: 2
Fore
SplineSet
305 719 m 0
 421 719 507 684 572 621 c 1
 471 502 l 1
 426 538 378 557 324 557 c 0
 280 557 261 542 261 518 c 0
 261 488 285 481 380 450 c 0
 527 402 588 337 588 212 c 0
 588 75 474 -22 284 -22 c 0
 144 -22 51 31 -6 87 c 1
 106 210 l 1
 156 167 212 143 275 143 c 0
 329 143 348 166 348 192 c 0
 348 226 329 241 243 268 c 0
 70 323 23 398 23 499 c 0
 23 637 145 719 305 719 c 0
EndSplineSet
EndChar

StartChar: uni0406
Encoding: 1030 1030 430
Width: 293
Flags: W
LayerCount: 2
Fore
SplineSet
262 698 m 1
 262 0 l 1
 31 0 l 1
 31 698 l 1
 262 698 l 1
EndSplineSet
EndChar

StartChar: uni0407
Encoding: 1031 1031 431
Width: 293
Flags: W
LayerCount: 2
Fore
SplineSet
16 957 m 0
 75 957 121 912 121 856 c 0
 121 799 75 754 16 754 c 0
 -41 754 -88 799 -88 856 c 0
 -88 912 -41 957 16 957 c 0
271 957 m 0
 330 957 375 912 375 856 c 0
 375 799 330 754 271 754 c 0
 214 754 166 799 166 856 c 0
 166 912 214 957 271 957 c 0
262 698 m 1
 262 0 l 1
 31 0 l 1
 31 698 l 1
 262 698 l 1
EndSplineSet
EndChar

StartChar: uni0408
Encoding: 1032 1032 432
Width: 330
Flags: W
LayerCount: 2
Fore
SplineSet
301 698 m 1
 301 114 l 2
 301 -92 159 -161 36 -201 c 1
 -26 -39 l 1
 63 -6 70 48 70 122 c 2
 70 698 l 1
 301 698 l 1
EndSplineSet
EndChar

StartChar: uni0409
Encoding: 1033 1033 433
Width: 963
Flags: W
LayerCount: 2
Fore
SplineSet
668 477 m 2
 853 477 957 402 957 247 c 0
 957 83 839 0 678 0 c 2
 390 0 l 1
 390 529 l 1
 318 529 l 1
 298 356 l 2
 274 147 227 9 43 -22 c 1
 -11 134 l 1
 61 164 69 226 87 376 c 2
 126 698 l 1
 622 698 l 1
 622 477 l 1
 668 477 l 2
645 161 m 2
 698 161 717 197 717 244 c 0
 717 290 701 324 641 324 c 2
 622 324 l 1
 622 161 l 1
 645 161 l 2
EndSplineSet
EndChar

StartChar: uni040A
Encoding: 1034 1034 434
Width: 960
Flags: W
LayerCount: 2
Fore
SplineSet
646 469 m 2
 840 469 954 393 954 241 c 0
 954 79 839 0 656 0 c 2
 387 0 l 1
 387 310 l 1
 262 310 l 1
 262 0 l 1
 31 0 l 1
 31 698 l 1
 262 698 l 1
 262 469 l 1
 387 469 l 1
 387 698 l 1
 618 698 l 1
 618 469 l 1
 646 469 l 2
640 162 m 2
 697 162 714 196 714 240 c 0
 714 286 699 310 628 310 c 2
 618 310 l 1
 618 162 l 1
 640 162 l 2
EndSplineSet
EndChar

StartChar: uni040B
Encoding: 1035 1035 435
Width: 782
Flags: W
LayerCount: 2
Fore
SplineSet
534 488 m 0
 685 488 766 386 766 223 c 2
 766 0 l 1
 535 0 l 1
 535 223 l 2
 535 297 516 327 467 327 c 0
 435 327 414 319 397 308 c 1
 397 0 l 1
 166 0 l 1
 166 531 l 1
 3 531 l 1
 3 698 l 1
 572 698 l 1
 548 531 l 1
 397 531 l 1
 397 446 l 1
 436 474 480 488 534 488 c 0
EndSplineSet
EndChar

StartChar: uni040C
Encoding: 1036 1036 436
Width: 658
Flags: W
LayerCount: 2
Fore
SplineSet
409 1000 m 1
 486 841 l 1
 223 747 l 1
 167 858 l 1
 409 1000 l 1
660 698 m 1
 508 391 l 1
 678 0 l 1
 431 0 l 1
 314 280 l 1
 262 280 l 1
 262 0 l 1
 31 0 l 1
 31 698 l 1
 262 698 l 1
 262 441 l 1
 320 441 l 1
 439 698 l 1
 660 698 l 1
EndSplineSet
EndChar

StartChar: uni040D
Encoding: 1037 1037 437
Width: 647
Flags: W
LayerCount: 2
Fore
SplineSet
244 1000 m 1
 484 858 l 1
 428 747 l 1
 165 841 l 1
 244 1000 l 1
616 698 m 1
 616 0 l 1
 390 0 l 1
 390 187 l 2
 390 320 407 410 424 481 c 2
 304 0 l 1
 31 0 l 1
 31 698 l 1
 256 698 l 1
 256 502 l 2
 256 371 238 297 222 223 c 2
 348 698 l 1
 616 698 l 1
EndSplineSet
EndChar

StartChar: uni040E
Encoding: 1038 1038 438
Width: 613
Flags: W
LayerCount: 2
Fore
SplineSet
306 743 m 0
 177 743 120 826 112 933 c 1
 226 951 l 1
 236 909 262 892 306 892 c 0
 351 892 376 909 386 951 c 1
 500 933 l 1
 492 826 435 743 306 743 c 0
642 698 m 1
 471 224 l 2
 403 37 303 -13 117 -22 c 1
 89 129 l 1
 172 132 217 146 249 178 c 1
 180 178 l 1
 -25 698 l 1
 212 698 l 1
 317 303 l 1
 408 698 l 1
 642 698 l 1
EndSplineSet
EndChar

StartChar: uni040F
Encoding: 1039 1039 439
Width: 650
Flags: W
LayerCount: 2
Fore
SplineSet
619 698 m 1
 619 0 l 1
 413 0 l 1
 413 -180 l 1
 261 -180 l 1
 240 0 l 1
 31 0 l 1
 31 698 l 1
 262 698 l 1
 262 176 l 1
 388 176 l 1
 388 698 l 1
 619 698 l 1
EndSplineSet
EndChar

StartChar: uni0410
Encoding: 1040 1040 440
Width: 607
Flags: W
LayerCount: 2
Fore
SplineSet
395 0 m 1
 373 126 l 1
 231 126 l 1
 210 0 l 1
 -32 0 l 1
 167 698 l 1
 442 698 l 1
 639 0 l 1
 395 0 l 1
258 286 m 1
 345 286 l 1
 301 538 l 1
 258 286 l 1
EndSplineSet
EndChar

StartChar: uni0411
Encoding: 1041 1041 441
Width: 612
Flags: W
LayerCount: 2
Fore
SplineSet
319 462 m 2
 503 462 608 387 608 238 c 0
 608 83 490 0 329 0 c 2
 31 0 l 1
 31 698 l 1
 520 698 l 1
 498 527 l 1
 262 527 l 1
 262 462 l 1
 319 462 l 2
295 161 m 2
 349 161 368 197 368 236 c 0
 368 275 352 309 291 309 c 2
 262 309 l 1
 262 161 l 1
 295 161 l 2
EndSplineSet
EndChar

StartChar: uni0412
Encoding: 1042 1042 442
Width: 626
Flags: W
LayerCount: 2
Fore
SplineSet
463 370 m 1
 538 353 618 316 618 209 c 0
 618 38 474 0 285 0 c 2
 31 0 l 1
 31 698 l 1
 259 698 l 2
 461 698 589 656 589 516 c 0
 589 426 524 387 463 370 c 1
280 541 m 2
 262 541 l 1
 262 434 l 1
 280 434 l 2
 340 434 355 449 355 492 c 0
 355 524 338 541 280 541 c 2
288 161 m 2
 342 161 380 170 380 225 c 0
 380 270 353 290 294 290 c 2
 262 290 l 1
 262 161 l 1
 288 161 l 2
EndSplineSet
EndChar

StartChar: uni0413
Encoding: 1043 1043 443
Width: 512
Flags: W
LayerCount: 2
Fore
SplineSet
519 698 m 1
 497 522 l 1
 262 522 l 1
 262 0 l 1
 31 0 l 1
 31 698 l 1
 519 698 l 1
EndSplineSet
EndChar

StartChar: uni0414
Encoding: 1044 1044 444
Width: 649
Flags: W
LayerCount: 2
Fore
SplineSet
599 172 m 1
 665 172 l 1
 665 -180 l 1
 513 -180 l 1
 492 0 l 1
 157 0 l 1
 136 -180 l 1
 -16 -180 l 1
 -16 172 l 1
 38 172 l 1
 68 215 91 290 114 471 c 2
 142 698 l 1
 599 698 l 1
 599 172 l 1
377 172 m 1
 377 535 l 1
 334 535 l 1
 333 501 l 1
 316 314 278 223 216 172 c 1
 377 172 l 1
EndSplineSet
EndChar

StartChar: uni0415
Encoding: 1045 1045 445
Width: 521
Flags: W
LayerCount: 2
Fore
SplineSet
507 698 m 1
 484 539 l 1
 262 539 l 1
 262 431 l 1
 457 431 l 1
 457 276 l 1
 262 276 l 1
 262 160 l 1
 500 160 l 1
 500 0 l 1
 31 0 l 1
 31 698 l 1
 507 698 l 1
EndSplineSet
EndChar

StartChar: uni0416
Encoding: 1046 1046 446
Width: 987
Flags: W
LayerCount: 2
Fore
SplineSet
988 698 m 1
 825 391 l 1
 1007 0 l 1
 759 0 l 1
 639 283 l 1
 598 283 l 1
 598 0 l 1
 390 0 l 1
 390 283 l 1
 346 283 l 1
 223 0 l 1
 -19 0 l 1
 162 391 l 1
 -1 698 l 1
 219 698 l 1
 353 437 l 1
 390 437 l 1
 390 698 l 1
 598 698 l 1
 598 437 l 1
 634 437 l 1
 770 698 l 1
 988 698 l 1
EndSplineSet
EndChar

StartChar: uni0417
Encoding: 1047 1047 447
Width: 559
Flags: W
LayerCount: 2
Fore
SplineSet
245 -22 m 0
 120 -22 44 17 -15 80 c 1
 104 196 l 1
 148 158 182 140 226 140 c 0
 278 140 311 162 311 211 c 0
 311 258 281 287 215 287 c 2
 135 287 l 1
 161 444 l 1
 220 444 l 2
 272 444 296 466 296 503 c 0
 296 535 280 560 231 560 c 0
 195 560 155 545 110 511 c 1
 8 621 l 1
 75 686 162 719 267 719 c 0
 425 719 531 642 531 531 c 0
 531 458 484 392 359 367 c 1
 487 353 551 294 551 196 c 0
 551 61 428 -22 245 -22 c 0
EndSplineSet
EndChar

StartChar: uni0418
Encoding: 1048 1048 448
Width: 647
Flags: W
LayerCount: 2
Fore
SplineSet
616 698 m 1
 616 0 l 1
 390 0 l 1
 390 187 l 2
 390 320 407 410 424 481 c 2
 304 0 l 1
 31 0 l 1
 31 698 l 1
 256 698 l 1
 256 502 l 2
 256 371 238 297 222 223 c 2
 348 698 l 1
 616 698 l 1
EndSplineSet
EndChar

StartChar: uni0419
Encoding: 1049 1049 449
Width: 647
Flags: W
LayerCount: 2
Fore
SplineSet
324 743 m 0
 195 743 138 826 130 933 c 1
 244 951 l 1
 254 909 280 892 324 892 c 0
 369 892 394 909 404 951 c 1
 518 933 l 1
 510 826 453 743 324 743 c 0
616 698 m 1
 616 0 l 1
 390 0 l 1
 390 187 l 2
 390 320 407 410 424 481 c 2
 304 0 l 1
 31 0 l 1
 31 698 l 1
 256 698 l 1
 256 502 l 2
 256 371 238 297 222 223 c 2
 348 698 l 1
 616 698 l 1
EndSplineSet
EndChar

StartChar: uni041A
Encoding: 1050 1050 450
Width: 658
Flags: W
LayerCount: 2
Fore
SplineSet
660 698 m 1
 508 391 l 1
 678 0 l 1
 431 0 l 1
 314 280 l 1
 262 280 l 1
 262 0 l 1
 31 0 l 1
 31 698 l 1
 262 698 l 1
 262 441 l 1
 320 441 l 1
 439 698 l 1
 660 698 l 1
EndSplineSet
EndChar

StartChar: uni041B
Encoding: 1051 1051 451
Width: 654
Flags: W
LayerCount: 2
Fore
SplineSet
126 698 m 1
 622 698 l 1
 622 0 l 1
 391 0 l 1
 391 529 l 1
 318 529 l 1
 298 356 l 2
 274 147 227 9 43 -22 c 1
 -11 134 l 1
 61 164 69 226 87 376 c 2
 126 698 l 1
EndSplineSet
EndChar

StartChar: uni041C
Encoding: 1052 1052 452
Width: 794
Flags: W
LayerCount: 2
Fore
SplineSet
741 698 m 1
 789 0 l 1
 561 0 l 1
 561 233 l 2
 560 319 562 403 573 515 c 1
 507 68 l 1
 288 68 l 1
 215 515 l 1
 229 392 235 326 234 234 c 2
 234 0 l 1
 5 0 l 1
 53 698 l 1
 336 698 l 1
 401 260 l 1
 457 698 l 1
 741 698 l 1
EndSplineSet
EndChar

StartChar: uni041D
Encoding: 1053 1053 453
Width: 654
Flags: W
LayerCount: 2
Fore
SplineSet
392 0 m 1
 392 272 l 1
 262 272 l 1
 262 0 l 1
 31 0 l 1
 31 698 l 1
 262 698 l 1
 262 448 l 1
 392 448 l 1
 392 698 l 1
 623 698 l 1
 623 0 l 1
 392 0 l 1
EndSplineSet
EndChar

StartChar: uni041E
Encoding: 1054 1054 454
Width: 690
Flags: W
LayerCount: 2
Fore
SplineSet
345 719 m 0
 561 719 678 581 678 350 c 0
 678 124 561 -22 345 -22 c 0
 128 -22 12 119 12 350 c 0
 12 576 128 719 345 719 c 0
345 557 m 0
 276 557 252 503 252 350 c 0
 252 197 275 140 345 140 c 0
 416 140 438 197 438 350 c 0
 438 503 414 557 345 557 c 0
EndSplineSet
EndChar

StartChar: uni041F
Encoding: 1055 1055 455
Width: 655
Flags: W
LayerCount: 2
Fore
SplineSet
624 698 m 1
 624 0 l 1
 393 0 l 1
 393 527 l 1
 262 527 l 1
 262 0 l 1
 31 0 l 1
 31 698 l 1
 624 698 l 1
EndSplineSet
EndChar

StartChar: uni0420
Encoding: 1056 1056 456
Width: 618
Flags: W
LayerCount: 2
Fore
SplineSet
298 698 m 2
 489 698 608 617 608 459 c 0
 608 294 493 209 325 209 c 2
 262 209 l 1
 262 0 l 1
 31 0 l 1
 31 698 l 1
 298 698 l 2
302 370 m 2
 350 370 373 401 373 459 c 0
 373 506 354 539 294 539 c 2
 262 539 l 1
 262 370 l 1
 302 370 l 2
EndSplineSet
EndChar

StartChar: uni0421
Encoding: 1057 1057 457
Width: 590
Flags: W
LayerCount: 2
Fore
SplineSet
354 719 m 0
 448 719 524 688 586 634 c 1
 480 510 l 1
 446 535 409 555 365 555 c 0
 291 555 252 486 252 351 c 0
 252 215 292 151 369 151 c 0
 414 151 451 173 494 207 c 1
 594 80 l 1
 541 27 456 -22 357 -22 c 0
 145 -22 12 108 12 351 c 0
 12 583 151 719 354 719 c 0
EndSplineSet
EndChar

StartChar: uni0422
Encoding: 1058 1058 458
Width: 564
Flags: W
LayerCount: 2
Fore
SplineSet
572 698 m 1
 548 527 l 1
 397 527 l 1
 397 0 l 1
 166 0 l 1
 166 527 l 1
 3 527 l 1
 3 698 l 1
 572 698 l 1
EndSplineSet
EndChar

StartChar: uni0423
Encoding: 1059 1059 459
Width: 613
Flags: W
LayerCount: 2
Fore
SplineSet
642 698 m 1
 471 224 l 2
 403 37 303 -13 117 -22 c 1
 89 129 l 1
 172 132 217 146 249 178 c 1
 180 178 l 1
 -25 698 l 1
 212 698 l 1
 317 303 l 1
 408 698 l 1
 642 698 l 1
EndSplineSet
EndChar

StartChar: uni0424
Encoding: 1060 1060 460
Width: 885
Flags: W
LayerCount: 2
Fore
SplineSet
882 351 m 0
 882 140 744 52 554 40 c 1
 554 -47 l 1
 330 -47 l 1
 330 40 l 1
 147 51 4 132 4 345 c 0
 4 556 140 644 330 656 c 1
 330 739 l 1
 554 739 l 1
 554 656 l 1
 739 645 882 565 882 351 c 0
543 173 m 1
 625 184 648 246 648 351 c 0
 648 457 620 512 543 524 c 1
 543 173 l 1
237 345 m 0
 237 239 265 183 341 172 c 1
 341 522 l 1
 260 512 237 450 237 345 c 0
EndSplineSet
EndChar

StartChar: uni0425
Encoding: 1061 1061 461
Width: 622
Flags: W
LayerCount: 2
Fore
SplineSet
445 376 m 1
 635 0 l 1
 387 0 l 1
 305 224 l 1
 231 0 l 1
 -13 0 l 1
 168 369 l 1
 -2 698 l 1
 245 698 l 1
 308 511 l 1
 380 698 l 1
 623 698 l 1
 445 376 l 1
EndSplineSet
EndChar

StartChar: uni0426
Encoding: 1062 1062 462
Width: 706
Flags: W
LayerCount: 2
Fore
SplineSet
619 172 m 1
 701 172 l 1
 701 -180 l 1
 548 -180 l 1
 527 0 l 1
 31 0 l 1
 31 698 l 1
 262 698 l 1
 262 176 l 1
 388 176 l 1
 388 698 l 1
 619 698 l 1
 619 172 l 1
EndSplineSet
EndChar

StartChar: uni0427
Encoding: 1063 1063 463
Width: 628
Flags: W
LayerCount: 2
Fore
SplineSet
365 698 m 1
 596 698 l 1
 596 0 l 1
 365 0 l 1
 365 235 l 1
 328 205 285 190 230 190 c 0
 83 190 4 292 4 457 c 2
 4 698 l 1
 230 698 l 1
 230 456 l 2
 230 382 246 352 300 352 c 0
 331 352 349 358 365 371 c 1
 365 698 l 1
EndSplineSet
EndChar

StartChar: uni0428
Encoding: 1064 1064 464
Width: 897
Flags: W
LayerCount: 2
Fore
SplineSet
866 698 m 1
 866 0 l 1
 31 0 l 1
 31 698 l 1
 258 698 l 1
 258 176 l 1
 341 176 l 1
 341 698 l 1
 556 698 l 1
 556 176 l 1
 640 176 l 1
 640 698 l 1
 866 698 l 1
EndSplineSet
EndChar

StartChar: uni0429
Encoding: 1065 1065 465
Width: 953
Flags: W
LayerCount: 2
Fore
SplineSet
866 172 m 1
 948 172 l 1
 948 -180 l 1
 795 -180 l 1
 774 0 l 1
 31 0 l 1
 31 698 l 1
 258 698 l 1
 258 176 l 1
 341 176 l 1
 341 698 l 1
 556 698 l 1
 556 176 l 1
 640 176 l 1
 640 698 l 1
 866 698 l 1
 866 172 l 1
EndSplineSet
EndChar

StartChar: uni042A
Encoding: 1066 1066 466
Width: 749
Flags: W
LayerCount: 2
Fore
SplineSet
454 477 m 2
 639 477 743 401 743 246 c 0
 743 83 625 0 464 0 c 2
 166 0 l 1
 166 531 l 1
 3 531 l 1
 3 698 l 1
 397 698 l 1
 397 477 l 1
 454 477 l 2
430 161 m 2
 484 161 503 197 503 244 c 0
 503 289 487 324 426 324 c 2
 397 324 l 1
 397 161 l 1
 430 161 l 2
EndSplineSet
EndChar

StartChar: uni042B
Encoding: 1067 1067 467
Width: 881
Flags: W
LayerCount: 2
Fore
SplineSet
309 477 m 2
 493 477 598 401 598 246 c 0
 598 83 480 0 319 0 c 2
 31 0 l 1
 31 698 l 1
 262 698 l 1
 262 477 l 1
 309 477 l 2
619 698 m 1
 850 698 l 1
 850 0 l 1
 619 0 l 1
 619 698 l 1
285 161 m 2
 339 161 358 197 358 244 c 0
 358 289 342 324 281 324 c 2
 262 324 l 1
 262 161 l 1
 285 161 l 2
EndSplineSet
EndChar

StartChar: uni042C
Encoding: 1068 1068 468
Width: 614
Flags: W
LayerCount: 2
Fore
SplineSet
319 477 m 2
 503 477 608 401 608 246 c 0
 608 83 490 0 329 0 c 2
 31 0 l 1
 31 698 l 1
 262 698 l 1
 262 477 l 1
 319 477 l 2
295 161 m 2
 349 161 368 197 368 244 c 0
 368 289 352 324 291 324 c 2
 262 324 l 1
 262 161 l 1
 295 161 l 2
EndSplineSet
EndChar

StartChar: uni042D
Encoding: 1069 1069 469
Width: 547
Flags: W
LayerCount: 2
Fore
SplineSet
235 719 m 0
 428 719 535 589 535 363 c 0
 535 108 413 -22 223 -22 c 0
 122 -22 53 9 -4 64 c 1
 95 187 l 1
 131 157 161 144 203 144 c 0
 265 144 298 189 302 279 c 1
 100 279 l 1
 100 431 l 1
 303 431 l 1
 295 519 269 558 213 558 c 0
 170 558 142 541 108 509 c 1
 1 634 l 1
 62 687 124 719 235 719 c 0
EndSplineSet
EndChar

StartChar: uni042E
Encoding: 1070 1070 470
Width: 963
Flags: W
LayerCount: 2
Fore
SplineSet
628 719 m 0
 839 719 951 581 951 350 c 0
 951 124 839 -22 628 -22 c 0
 438 -22 343 91 321 273 c 1
 262 273 l 1
 262 0 l 1
 31 0 l 1
 31 698 l 1
 262 698 l 1
 262 449 l 1
 325 449 l 1
 359 620 451 719 628 719 c 0
628 140 m 0
 692 140 711 197 711 350 c 0
 711 503 690 557 628 557 c 0
 567 557 545 503 545 350 c 0
 545 197 566 140 628 140 c 0
EndSplineSet
EndChar

StartChar: uni042F
Encoding: 1071 1071 471
Width: 611
Flags: W
LayerCount: 2
Fore
SplineSet
314 698 m 2
 580 698 l 1
 580 0 l 1
 349 0 l 1
 349 229 l 1
 323 229 l 1
 226 0 l 1
 -25 0 l 1
 124 270 l 1
 50 304 10 361 10 465 c 0
 10 627 113 698 314 698 c 2
323 382 m 2
 349 382 l 1
 349 541 l 1
 326 541 l 2
 280 541 250 510 250 458 c 0
 250 408 282 382 323 382 c 2
EndSplineSet
EndChar

StartChar: uni0430
Encoding: 1072 1072 472
Width: 554
Flags: W
LayerCount: 2
Fore
SplineSet
517 183 m 2
 517 148 524 134 547 125 c 1
 503 -17 l 1
 430 -13 382 5 348 55 c 1
 309 -4 247 -22 187 -22 c 0
 79 -22 9 51 9 151 c 0
 9 270 100 336 274 336 c 2
 301 336 l 1
 301 343 l 2
 301 392 286 402 232 402 c 0
 203 402 148 392 94 374 c 1
 47 514 l 1
 115 542 204 557 265 557 c 0
 444 557 517 492 517 355 c 2
 517 183 l 2
257 133 m 0
 275 133 291 143 301 156 c 1
 301 223 l 1
 292 223 l 2
 245 223 224 208 224 173 c 0
 224 150 237 133 257 133 c 0
EndSplineSet
EndChar

StartChar: uni0431
Encoding: 1073 1073 473
Width: 570
Flags: W
LayerCount: 2
Fore
SplineSet
362 496 m 0
 465 496 563 410 563 245 c 0
 563 88 456 -22 288 -22 c 0
 120 -22 10 75 10 305 c 0
 10 532 65 638 248 691 c 0
 337 717 367 733 433 768 c 1
 508 635 l 1
 452 598 407 583 329 560 c 0
 254 538 226 506 215 428 c 1
 253 475 293 496 362 496 c 0
286 136 m 0
 319 136 336 160 336 239 c 0
 336 326 320 338 290 338 c 0
 271 338 251 329 237 305 c 1
 237 230 l 2
 237 155 258 136 286 136 c 0
EndSplineSet
EndChar

StartChar: uni0432
Encoding: 1074 1074 474
Width: 552
Flags: W
LayerCount: 2
Fore
SplineSet
405 297 m 1
 503 284 543 235 543 162 c 0
 543 50 440 0 290 0 c 2
 31 0 l 1
 31 531 l 1
 127 548 199 557 276 557 c 0
 428 557 523 511 523 411 c 0
 523 353 485 311 405 297 c 1
270 426 m 0
 266 426 263 427 253 427 c 1
 253 333 l 1
 267 333 l 2
 292 333 307 351 307 380 c 0
 307 409 294 426 270 426 c 0
281 136 m 2
 310 136 317 156 317 185 c 0
 317 215 304 234 278 234 c 2
 253 234 l 1
 253 136 l 1
 281 136 l 2
EndSplineSet
EndChar

StartChar: uni0433
Encoding: 1075 1075 475
Width: 438
Flags: W
LayerCount: 2
Fore
SplineSet
253 0 m 1
 31 0 l 1
 31 536 l 1
 452 536 l 1
 426 372 l 1
 253 372 l 1
 253 0 l 1
EndSplineSet
EndChar

StartChar: uni0434
Encoding: 1076 1076 476
Width: 553
Flags: W
LayerCount: 2
Fore
SplineSet
516 158 m 1
 574 158 l 1
 574 -180 l 1
 430 -180 l 1
 409 0 l 1
 164 0 l 1
 143 -180 l 1
 -1 -180 l 1
 -1 158 l 1
 30 158 l 1
 53 176 67 211 82 370 c 2
 98 536 l 1
 516 536 l 1
 516 158 l 1
313 158 m 1
 313 399 l 1
 284 399 l 1
 282 388 l 1
 268 251 242 184 186 158 c 1
 313 158 l 1
EndSplineSet
EndChar

StartChar: uni0435
Encoding: 1077 1077 477
Width: 564
Flags: W
LayerCount: 2
Fore
SplineSet
557 273 m 0
 557 256 554 227 552 206 c 1
 233 206 l 1
 244 142 278 134 330 134 c 0
 365 134 402 149 448 180 c 1
 537 60 l 1
 483 17 405 -22 308 -22 c 0
 102 -22 9 103 9 268 c 0
 9 422 99 557 285 557 c 0
 446 557 557 456 557 273 c 0
338 329 m 1
 338 335 l 2
 337 379 332 420 289 420 c 0
 253 420 236 400 231 329 c 1
 338 329 l 1
EndSplineSet
EndChar

StartChar: uni0436
Encoding: 1078 1078 478
Width: 793
Flags: W
LayerCount: 2
Fore
SplineSet
800 536 m 1
 687 287 l 1
 805 0 l 1
 585 0 l 1
 516 213 l 1
 491 213 l 1
 491 0 l 1
 302 0 l 1
 302 213 l 1
 278 213 l 1
 207 0 l 1
 -12 0 l 1
 106 287 l 1
 -6 536 l 1
 196 536 l 1
 274 334 l 1
 302 334 l 1
 302 536 l 1
 491 536 l 1
 491 334 l 1
 519 334 l 1
 598 536 l 1
 800 536 l 1
EndSplineSet
EndChar

StartChar: uni0437
Encoding: 1079 1079 479
Width: 497
Flags: W
LayerCount: 2
Fore
SplineSet
237 557 m 0
 368 557 464 499 464 405 c 0
 464 345 420 304 339 285 c 1
 438 271 489 231 489 152 c 0
 489 36 382 -22 220 -22 c 0
 128 -22 51 -2 -10 41 c 1
 91 160 l 1
 141 133 173 129 212 129 c 0
 253 129 262 147 262 167 c 0
 262 188 253 205 215 205 c 2
 119 205 l 1
 131 338 l 1
 201 338 l 2
 233 338 242 353 242 377 c 0
 242 399 229 411 203 411 c 0
 167 411 137 401 105 381 c 1
 5 493 l 1
 69 536 144 557 237 557 c 0
EndSplineSet
EndChar

StartChar: uni0438
Encoding: 1080 1080 480
Width: 584
Flags: W
LayerCount: 2
Fore
SplineSet
553 536 m 1
 553 0 l 1
 345 0 l 1
 345 134 l 2
 345 209 359 273 377 335 c 1
 244 0 l 1
 31 0 l 1
 31 536 l 1
 240 536 l 1
 240 395 l 2
 240 320 227 256 208 196 c 2
 339 536 l 1
 553 536 l 1
EndSplineSet
EndChar

StartChar: uni0439
Encoding: 1081 1081 481
Width: 584
Flags: W
LayerCount: 2
Fore
SplineSet
293 622 m 0
 164 622 107 705 99 812 c 1
 213 830 l 1
 223 787 249 770 293 770 c 0
 338 770 363 787 373 830 c 1
 487 812 l 1
 479 705 422 622 293 622 c 0
553 536 m 1
 553 0 l 1
 345 0 l 1
 345 134 l 2
 345 209 359 273 377 335 c 1
 244 0 l 1
 31 0 l 1
 31 536 l 1
 240 536 l 1
 240 395 l 2
 240 320 227 256 208 196 c 2
 339 536 l 1
 553 536 l 1
EndSplineSet
EndChar

StartChar: uni043A
Encoding: 1082 1082 482
Width: 576
Flags: W
LayerCount: 2
Fore
SplineSet
587 536 m 1
 465 287 l 1
 592 0 l 1
 368 0 l 1
 283 213 l 1
 253 213 l 1
 253 0 l 1
 31 0 l 1
 31 536 l 1
 253 536 l 1
 253 333 l 1
 289 333 l 1
 384 536 l 1
 587 536 l 1
EndSplineSet
EndChar

StartChar: uni043B
Encoding: 1083 1083 483
Width: 567
Flags: W
LayerCount: 2
Fore
SplineSet
80 536 m 1
 536 536 l 1
 536 0 l 1
 314 0 l 1
 314 379 l 1
 273 379 l 1
 268 324 l 2
 247 107 229 19 46 -14 c 1
 -8 142 l 1
 50 173 59 179 68 331 c 2
 80 536 l 1
EndSplineSet
EndChar

StartChar: uni043C
Encoding: 1084 1084 484
Width: 674
Flags: W
LayerCount: 2
Fore
SplineSet
629 536 m 1
 674 0 l 1
 466 0 l 1
 466 129 l 2
 463 206 466 269 477 348 c 2
 426 49 l 1
 250 49 l 1
 197 348 l 2
 209 270 209 209 207 129 c 2
 207 0 l 1
 0 0 l 1
 43 536 l 1
 296 536 l 1
 338 227 l 1
 374 536 l 1
 629 536 l 1
EndSplineSet
EndChar

StartChar: uni043D
Encoding: 1085 1085 485
Width: 581
Flags: W
LayerCount: 2
Fore
SplineSet
328 0 m 1
 328 191 l 1
 253 191 l 1
 253 0 l 1
 31 0 l 1
 31 536 l 1
 253 536 l 1
 253 349 l 1
 328 349 l 1
 328 536 l 1
 550 536 l 1
 550 0 l 1
 328 0 l 1
EndSplineSet
EndChar

StartChar: uni043E
Encoding: 1086 1086 486
Width: 586
Flags: W
LayerCount: 2
Fore
SplineSet
293 557 m 0
 466 557 577 455 577 267 c 0
 577 91 468 -22 293 -22 c 0
 120 -22 9 80 9 269 c 0
 9 445 117 557 293 557 c 0
293 400 m 0
 251 400 236 362 236 269 c 0
 236 170 252 136 293 136 c 0
 334 136 350 174 350 267 c 0
 350 365 334 400 293 400 c 0
EndSplineSet
EndChar

StartChar: uni043F
Encoding: 1087 1087 487
Width: 577
Flags: W
LayerCount: 2
Fore
SplineSet
324 0 m 1
 324 377 l 1
 253 377 l 1
 253 0 l 1
 31 0 l 1
 31 536 l 1
 546 536 l 1
 546 0 l 1
 324 0 l 1
EndSplineSet
EndChar

StartChar: uni0440
Encoding: 1088 1088 488
Width: 597
Flags: W
LayerCount: 2
Fore
SplineSet
387 557 m 0
 522 557 588 447 588 270 c 0
 588 104 500 -22 373 -22 c 0
 326 -22 285 -6 253 29 c 1
 253 -209 l 1
 31 -231 l 1
 31 536 l 1
 229 536 l 1
 237 488 l 1
 284 544 342 557 387 557 c 0
299 135 m 0
 334 135 361 165 361 266 c 0
 361 392 336 399 310 399 c 0
 291 399 271 389 253 358 c 1
 253 164 l 1
 268 142 281 135 299 135 c 0
EndSplineSet
EndChar

StartChar: uni0441
Encoding: 1089 1089 489
Width: 480
Flags: W
LayerCount: 2
Fore
SplineSet
297 557 m 0
 383 557 447 530 499 483 c 1
 408 355 l 1
 376 381 347 391 317 391 c 0
 266 391 239 364 239 264 c 0
 239 164 272 149 315 149 c 0
 346 149 366 159 403 181 c 1
 498 46 l 1
 448 5 386 -22 302 -22 c 0
 119 -22 9 97 9 264 c 0
 9 433 122 557 297 557 c 0
EndSplineSet
EndChar

StartChar: uni0442
Encoding: 1090 1090 490
Width: 494
Flags: W
LayerCount: 2
Fore
SplineSet
506 536 m 1
 478 377 l 1
 358 377 l 1
 358 0 l 1
 136 0 l 1
 136 377 l 1
 -1 377 l 1
 -1 536 l 1
 506 536 l 1
EndSplineSet
EndChar

StartChar: uni0443
Encoding: 1091 1091 491
Width: 545
Flags: W
LayerCount: 2
Fore
SplineSet
565 536 m 1
 404 2 l 2
 358 -153 239 -230 52 -232 c 1
 28 -82 l 1
 130 -74 176 -55 203 0 c 1
 126 0 l 1
 -20 536 l 1
 215 536 l 1
 266 134 l 1
 337 536 l 1
 565 536 l 1
EndSplineSet
EndChar

StartChar: uni0444
Encoding: 1092 1092 492
Width: 850
Flags: W
LayerCount: 2
Fore
SplineSet
653 557 m 0
 779 557 841 450 841 266 c 0
 841 86 760 -22 646 -22 c 0
 599 -22 559 -4 528 28 c 1
 528 -209 l 1
 321 -231 l 1
 321 27 l 1
 290 -5 252 -22 205 -22 c 0
 90 -22 9 86 9 266 c 0
 9 450 83 557 208 557 c 0
 250 557 286 545 321 511 c 1
 321 767 l 1
 528 745 l 1
 528 509 l 1
 565 545 607 557 653 557 c 0
279 133 m 0
 296 133 306 140 321 157 c 1
 321 376 l 1
 308 393 296 403 279 403 c 0
 246 403 230 379 230 266 c 0
 230 158 249 133 279 133 c 0
572 133 m 0
 602 133 620 158 620 266 c 0
 620 379 608 403 576 403 c 0
 558 403 545 392 528 374 c 1
 528 159 l 1
 543 140 553 133 572 133 c 0
EndSplineSet
EndChar

StartChar: uni0445
Encoding: 1093 1093 493
Width: 539
Flags: W
LayerCount: 2
Fore
SplineSet
403 287 m 1
 565 0 l 1
 318 0 l 1
 262 174 l 1
 213 0 l 1
 -25 0 l 1
 134 280 l 1
 -13 536 l 1
 232 536 l 1
 271 388 l 1
 304 536 l 1
 535 536 l 1
 403 287 l 1
EndSplineSet
EndChar

StartChar: uni0446
Encoding: 1094 1094 494
Width: 604
Flags: W
LayerCount: 2
Fore
SplineSet
540 158 m 1
 621 158 l 1
 621 -180 l 1
 477 -180 l 1
 456 0 l 1
 31 0 l 1
 31 536 l 1
 253 536 l 1
 253 158 l 1
 318 158 l 1
 318 536 l 1
 540 536 l 1
 540 158 l 1
EndSplineSet
EndChar

StartChar: uni0447
Encoding: 1095 1095 495
Width: 552
Flags: W
LayerCount: 2
Fore
SplineSet
298 536 m 1
 520 536 l 1
 520 0 l 1
 298 0 l 1
 298 176 l 1
 261 151 213 134 162 134 c 0
 51 134 7 205 7 308 c 2
 7 536 l 1
 229 536 l 1
 229 338 l 2
 229 301 240 295 253 295 c 0
 270 295 286 300 298 308 c 1
 298 536 l 1
EndSplineSet
EndChar

StartChar: uni0448
Encoding: 1096 1096 496
Width: 769
Flags: W
LayerCount: 2
Fore
SplineSet
738 536 m 1
 738 0 l 1
 31 0 l 1
 31 536 l 1
 242 536 l 1
 242 158 l 1
 294 158 l 1
 294 536 l 1
 475 536 l 1
 475 158 l 1
 528 158 l 1
 528 536 l 1
 738 536 l 1
EndSplineSet
EndChar

StartChar: uni0449
Encoding: 1097 1097 497
Width: 802
Flags: W
LayerCount: 2
Fore
SplineSet
738 158 m 1
 820 158 l 1
 820 -180 l 1
 675 -180 l 1
 654 0 l 1
 31 0 l 1
 31 536 l 1
 242 536 l 1
 242 158 l 1
 294 158 l 1
 294 536 l 1
 475 536 l 1
 475 158 l 1
 528 158 l 1
 528 536 l 1
 738 536 l 1
 738 158 l 1
EndSplineSet
EndChar

StartChar: uni044A
Encoding: 1098 1098 498
Width: 636
Flags: W
LayerCount: 2
Fore
SplineSet
364 375 m 2
 551 375 636 314 636 185 c 0
 636 66 543 0 394 0 c 2
 137 0 l 1
 137 382 l 1
 136 381 l 1
 -1 381 l 1
 -1 536 l 1
 359 536 l 1
 359 375 l 1
 364 375 l 2
369 136 m 2
 402 136 414 160 414 190 c 0
 414 224 399 243 361 243 c 2
 359 243 l 1
 359 136 l 1
 369 136 l 2
EndSplineSet
EndChar

StartChar: uni044B
Encoding: 1099 1099 499
Width: 789
Flags: W
LayerCount: 2
Fore
SplineSet
253 375 m 1
 437 374 521 313 521 185 c 0
 521 66 427 0 278 0 c 2
 31 0 l 1
 31 536 l 1
 253 536 l 1
 253 375 l 1
536 536 m 1
 758 536 l 1
 758 0 l 1
 536 0 l 1
 536 536 l 1
253 136 m 1
 287 136 298 160 298 190 c 0
 298 222 286 240 253 243 c 1
 253 136 l 1
EndSplineSet
EndChar

StartChar: uni044C
Encoding: 1100 1100 500
Width: 530
Flags: W
LayerCount: 2
Fore
SplineSet
259 375 m 2
 446 375 531 314 531 185 c 0
 531 66 437 0 288 0 c 2
 31 0 l 1
 31 536 l 1
 253 536 l 1
 253 375 l 1
 259 375 l 2
263 136 m 2
 297 136 308 160 308 190 c 0
 308 224 294 243 255 243 c 2
 253 243 l 1
 253 136 l 1
 263 136 l 2
EndSplineSet
EndChar

StartChar: uni044D
Encoding: 1101 1101 501
Width: 489
Flags: W
LayerCount: 2
Fore
SplineSet
210 557 m 0
 372 557 480 461 480 274 c 0
 480 96 375 -22 187 -22 c 0
 109 -22 50 0 -7 40 c 1
 84 162 l 1
 123 140 148 134 177 134 c 0
 214 134 251 149 258 214 c 1
 94 214 l 1
 94 328 l 1
 258 328 l 1
 253 386 225 402 190 402 c 0
 158 402 130 394 96 372 c 1
 5 489 l 1
 58 533 125 557 210 557 c 0
EndSplineSet
EndChar

StartChar: uni044E
Encoding: 1102 1102 502
Width: 830
Flags: W
LayerCount: 2
Fore
SplineSet
556 557 m 0
 709 557 821 458 821 267 c 0
 821 90 711 -22 556 -22 c 0
 414 -22 326 54 298 198 c 1
 253 198 l 1
 253 0 l 1
 31 0 l 1
 31 536 l 1
 253 536 l 1
 253 342 l 1
 300 342 l 1
 328 476 414 557 556 557 c 0
556 136 m 0
 589 136 600 173 600 267 c 0
 600 367 590 400 556 400 c 0
 522 400 513 362 513 269 c 0
 513 169 522 136 556 136 c 0
EndSplineSet
EndChar

StartChar: uni044F
Encoding: 1103 1103 503
Width: 563
Flags: W
LayerCount: 2
Fore
SplineSet
303 536 m 2
 532 536 l 1
 532 0 l 1
 310 0 l 1
 310 168 l 1
 289 168 l 1
 207 0 l 1
 -26 0 l 1
 93 221 l 1
 51 247 22 290 22 350 c 0
 22 474 116 536 303 536 c 2
299 286 m 2
 310 286 l 1
 310 404 l 1
 303 404 l 2
 262 403 246 376 246 348 c 0
 246 317 262 286 299 286 c 2
EndSplineSet
EndChar

StartChar: uni0450
Encoding: 1104 1104 504
Width: 564
Flags: W
LayerCount: 2
Fore
SplineSet
220 869 m 1
 457 718 l 1
 398 607 l 1
 138 709 l 1
 220 869 l 1
557 273 m 0
 557 256 554 227 552 206 c 1
 233 206 l 1
 244 142 278 134 330 134 c 0
 365 134 402 149 448 180 c 1
 537 60 l 1
 483 17 405 -22 308 -22 c 0
 102 -22 9 103 9 268 c 0
 9 422 99 557 285 557 c 0
 446 557 557 456 557 273 c 0
338 329 m 1
 338 335 l 2
 337 379 332 420 289 420 c 0
 253 420 236 400 231 329 c 1
 338 329 l 1
EndSplineSet
EndChar

StartChar: uni0451
Encoding: 1105 1105 505
Width: 564
Flags: W
LayerCount: 2
Fore
SplineSet
159 831 m 0
 218 831 264 786 264 730 c 0
 264 673 218 628 159 628 c 0
 102 628 55 673 55 730 c 0
 55 786 102 831 159 831 c 0
414 831 m 0
 473 831 518 786 518 730 c 0
 518 673 473 628 414 628 c 0
 357 628 309 673 309 730 c 0
 309 786 357 831 414 831 c 0
557 273 m 0
 557 256 554 227 552 206 c 1
 233 206 l 1
 244 142 278 134 330 134 c 0
 365 134 402 149 448 180 c 1
 537 60 l 1
 483 17 405 -22 308 -22 c 0
 102 -22 9 103 9 268 c 0
 9 422 99 557 285 557 c 0
 446 557 557 456 557 273 c 0
338 329 m 1
 338 335 l 2
 337 379 332 420 289 420 c 0
 253 420 236 400 231 329 c 1
 338 329 l 1
EndSplineSet
EndChar

StartChar: uni0452
Encoding: 1106 1106 506
Width: 579
Flags: W
LayerCount: 2
Fore
SplineSet
412 557 m 0
 500 557 555 500 555 398 c 2
 555 87 l 2
 555 -109 434 -188 296 -231 c 1
 219 -70 l 1
 285 -39 333 -9 333 73 c 2
 333 357 l 2
 333 391 325 397 315 397 c 0
 302 397 284 385 264 353 c 1
 264 0 l 1
 42 0 l 1
 42 586 l 1
 -6 586 l 1
 -6 701 l 1
 42 701 l 1
 42 745 l 1
 264 768 l 1
 264 701 l 1
 381 701 l 1
 381 586 l 1
 264 586 l 1
 264 494 l 1
 310 540 355 557 412 557 c 0
EndSplineSet
EndChar

StartChar: uni0453
Encoding: 1107 1107 507
Width: 438
Flags: W
LayerCount: 2
Fore
SplineSet
308 869 m 1
 390 709 l 1
 130 607 l 1
 71 718 l 1
 308 869 l 1
253 0 m 1
 31 0 l 1
 31 536 l 1
 452 536 l 1
 426 372 l 1
 253 372 l 1
 253 0 l 1
EndSplineSet
EndChar

